# https://github.com/mikedh/trimesh
v 2.70000000 10.20000000 12.59000000
v 2.70000000 10.20000000 11.64000000
v 15.80000000 10.20000000 11.64000000
v 15.80000000 10.20000000 12.59000000
v 2.70000000 10.38533581 11.65825398
v 15.80000000 10.38533581 11.65825398
v 2.70000000 10.56354926 11.71231444
v 15.80000000 10.56354926 11.71231444
v 2.70000000 10.72779172 11.80010387
v 15.80000000 10.72779172 11.80010387
v 2.70000000 10.87175144 11.91824856
v 15.80000000 10.87175144 11.91824856
v 2.70000000 10.98989613 12.06220828
v 15.80000000 10.98989613 12.06220828
v 2.70000000 11.07768556 12.22645074
v 15.80000000 11.07768556 12.22645074
v 2.70000000 11.13174602 12.40466419
v 15.80000000 11.13174602 12.40466419
v 2.70000000 11.15000000 12.59000000
v 15.80000000 11.15000000 12.59000000
v 2.70000000 11.13174602 12.77533581
v 15.80000000 11.13174602 12.77533581
v 2.70000000 11.07768556 12.95354926
v 15.80000000 11.07768556 12.95354926
v 2.70000000 10.98989613 13.11779172
v 15.80000000 10.98989613 13.11779172
v 2.70000000 10.87175144 13.26175144
v 15.80000000 10.87175144 13.26175144
v 2.70000000 10.72779172 13.37989613
v 15.80000000 10.72779172 13.37989613
v 2.70000000 10.56354926 13.46768556
v 15.80000000 10.56354926 13.46768556
v 2.70000000 10.38533581 13.52174602
v 15.80000000 10.38533581 13.52174602
v 2.70000000 10.20000000 13.54000000
v 15.80000000 10.20000000 13.54000000
v 2.70000000 10.01466419 13.52174602
v 15.80000000 10.01466419 13.52174602
v 2.70000000 9.83645074 13.46768556
v 15.80000000 9.83645074 13.46768556
v 2.70000000 9.67220828 13.37989613
v 15.80000000 9.67220828 13.37989613
v 2.70000000 9.52824856 13.26175144
v 15.80000000 9.52824856 13.26175144
v 2.70000000 9.41010387 13.11779172
v 15.80000000 9.41010387 13.11779172
v 2.70000000 9.32231444 12.95354926
v 15.80000000 9.32231444 12.95354926
v 2.70000000 9.26825398 12.77533581
v 15.80000000 9.26825398 12.77533581
v 2.70000000 9.25000000 12.59000000
v 15.80000000 9.25000000 12.59000000
v 2.70000000 9.26825398 12.40466419
v 15.80000000 9.26825398 12.40466419
v 2.70000000 9.32231444 12.22645074
v 15.80000000 9.32231444 12.22645074
v 2.70000000 9.41010387 12.06220828
v 15.80000000 9.41010387 12.06220828
v 2.70000000 9.52824856 11.91824856
v 15.80000000 9.52824856 11.91824856
v 2.70000000 9.67220828 11.80010387
v 15.80000000 9.67220828 11.80010387
v 2.70000000 9.83645074 11.71231444
v 15.80000000 9.83645074 11.71231444
v 2.70000000 10.01466419 11.65825398
v 15.80000000 10.01466419 11.65825398
v 5.50000000 10.20000000 12.59000000
v 5.50000000 10.20000000 10.99000000
v 13.00000000 10.20000000 10.99000000
v 13.00000000 10.20000000 12.59000000
v 5.50000000 10.51214452 11.02074355
v 13.00000000 10.51214452 11.02074355
v 5.50000000 10.81229349 11.11179275
v 13.00000000 10.81229349 11.11179275
v 5.50000000 11.08891237 11.25964862
v 13.00000000 11.08891237 11.25964862
v 5.50000000 11.33137085 11.45862915
v 13.00000000 11.33137085 11.45862915
v 5.50000000 11.53035138 11.70108763
v 13.00000000 11.53035138 11.70108763
v 5.50000000 11.67820725 11.97770651
v 13.00000000 11.67820725 11.97770651
v 5.50000000 11.76925645 12.27785548
v 13.00000000 11.76925645 12.27785548
v 5.50000000 11.80000000 12.59000000
v 13.00000000 11.80000000 12.59000000
v 5.50000000 11.76925645 12.90214452
v 13.00000000 11.76925645 12.90214452
v 5.50000000 11.67820725 13.20229349
v 13.00000000 11.67820725 13.20229349
v 5.50000000 11.53035138 13.47891237
v 13.00000000 11.53035138 13.47891237
v 5.50000000 11.33137085 13.72137085
v 13.00000000 11.33137085 13.72137085
v 5.50000000 11.08891237 13.92035138
v 13.00000000 11.08891237 13.92035138
v 5.50000000 10.81229349 14.06820725
v 13.00000000 10.81229349 14.06820725
v 5.50000000 10.51214452 14.15925645
v 13.00000000 10.51214452 14.15925645
v 5.50000000 10.20000000 14.19000000
v 13.00000000 10.20000000 14.19000000
v 5.50000000 9.88785548 14.15925645
v 13.00000000 9.88785548 14.15925645
v 5.50000000 9.58770651 14.06820725
v 13.00000000 9.58770651 14.06820725
v 5.50000000 9.31108763 13.92035138
v 13.00000000 9.31108763 13.92035138
v 5.50000000 9.06862915 13.72137085
v 13.00000000 9.06862915 13.72137085
v 5.50000000 8.86964862 13.47891237
v 13.00000000 8.86964862 13.47891237
v 5.50000000 8.72179275 13.20229349
v 13.00000000 8.72179275 13.20229349
v 5.50000000 8.63074355 12.90214452
v 13.00000000 8.63074355 12.90214452
v 5.50000000 8.60000000 12.59000000
v 13.00000000 8.60000000 12.59000000
v 5.50000000 8.63074355 12.27785548
v 13.00000000 8.63074355 12.27785548
v 5.50000000 8.72179275 11.97770651
v 13.00000000 8.72179275 11.97770651
v 5.50000000 8.86964862 11.70108763
v 13.00000000 8.86964862 11.70108763
v 5.50000000 9.06862915 11.45862915
v 13.00000000 9.06862915 11.45862915
v 5.50000000 9.31108763 11.25964862
v 13.00000000 9.31108763 11.25964862
v 5.50000000 9.58770651 11.11179275
v 13.00000000 9.58770651 11.11179275
v 5.50000000 9.88785548 11.02074355
v 13.00000000 9.88785548 11.02074355
v 3.10000000 10.20000000 12.59000000
v 3.10000000 10.20000000 11.09000000
v 3.90000000 10.20000000 11.09000000
v 3.90000000 10.20000000 12.59000000
v 3.10000000 10.49263548 11.11882208
v 3.90000000 10.49263548 11.11882208
v 3.10000000 10.77402515 11.20418070
v 3.90000000 10.77402515 11.20418070
v 3.10000000 11.03335535 11.34279558
v 3.90000000 11.03335535 11.34279558
v 3.10000000 11.26066017 11.52933983
v 3.90000000 11.26066017 11.52933983
v 3.10000000 11.44720442 11.75664465
v 3.90000000 11.44720442 11.75664465
v 3.10000000 11.58581930 12.01597485
v 3.90000000 11.58581930 12.01597485
v 3.10000000 11.67117792 12.29736452
v 3.90000000 11.67117792 12.29736452
v 3.10000000 11.70000000 12.59000000
v 3.90000000 11.70000000 12.59000000
v 3.10000000 11.67117792 12.88263548
v 3.90000000 11.67117792 12.88263548
v 3.10000000 11.58581930 13.16402515
v 3.90000000 11.58581930 13.16402515
v 3.10000000 11.44720442 13.42335535
v 3.90000000 11.44720442 13.42335535
v 3.10000000 11.26066017 13.65066017
v 3.90000000 11.26066017 13.65066017
v 3.10000000 11.03335535 13.83720442
v 3.90000000 11.03335535 13.83720442
v 3.10000000 10.77402515 13.97581930
v 3.90000000 10.77402515 13.97581930
v 3.10000000 10.49263548 14.06117792
v 3.90000000 10.49263548 14.06117792
v 3.10000000 10.20000000 14.09000000
v 3.90000000 10.20000000 14.09000000
v 3.10000000 9.90736452 14.06117792
v 3.90000000 9.90736452 14.06117792
v 3.10000000 9.62597485 13.97581930
v 3.90000000 9.62597485 13.97581930
v 3.10000000 9.36664465 13.83720442
v 3.90000000 9.36664465 13.83720442
v 3.10000000 9.13933983 13.65066017
v 3.90000000 9.13933983 13.65066017
v 3.10000000 8.95279558 13.42335535
v 3.90000000 8.95279558 13.42335535
v 3.10000000 8.81418070 13.16402515
v 3.90000000 8.81418070 13.16402515
v 3.10000000 8.72882208 12.88263548
v 3.90000000 8.72882208 12.88263548
v 3.10000000 8.70000000 12.59000000
v 3.90000000 8.70000000 12.59000000
v 3.10000000 8.72882208 12.29736452
v 3.90000000 8.72882208 12.29736452
v 3.10000000 8.81418070 12.01597485
v 3.90000000 8.81418070 12.01597485
v 3.10000000 8.95279558 11.75664465
v 3.90000000 8.95279558 11.75664465
v 3.10000000 9.13933983 11.52933983
v 3.90000000 9.13933983 11.52933983
v 3.10000000 9.36664465 11.34279558
v 3.90000000 9.36664465 11.34279558
v 3.10000000 9.62597485 11.20418070
v 3.90000000 9.62597485 11.20418070
v 3.10000000 9.90736452 11.11882208
v 3.90000000 9.90736452 11.11882208
v 14.60000000 10.20000000 12.59000000
v 14.60000000 10.20000000 11.09000000
v 15.40000000 10.20000000 11.09000000
v 15.40000000 10.20000000 12.59000000
v 14.60000000 10.49263548 11.11882208
v 15.40000000 10.49263548 11.11882208
v 14.60000000 10.77402515 11.20418070
v 15.40000000 10.77402515 11.20418070
v 14.60000000 11.03335535 11.34279558
v 15.40000000 11.03335535 11.34279558
v 14.60000000 11.26066017 11.52933983
v 15.40000000 11.26066017 11.52933983
v 14.60000000 11.44720442 11.75664465
v 15.40000000 11.44720442 11.75664465
v 14.60000000 11.58581930 12.01597485
v 15.40000000 11.58581930 12.01597485
v 14.60000000 11.67117792 12.29736452
v 15.40000000 11.67117792 12.29736452
v 14.60000000 11.70000000 12.59000000
v 15.40000000 11.70000000 12.59000000
v 14.60000000 11.67117792 12.88263548
v 15.40000000 11.67117792 12.88263548
v 14.60000000 11.58581930 13.16402515
v 15.40000000 11.58581930 13.16402515
v 14.60000000 11.44720442 13.42335535
v 15.40000000 11.44720442 13.42335535
v 14.60000000 11.26066017 13.65066017
v 15.40000000 11.26066017 13.65066017
v 14.60000000 11.03335535 13.83720442
v 15.40000000 11.03335535 13.83720442
v 14.60000000 10.77402515 13.97581930
v 15.40000000 10.77402515 13.97581930
v 14.60000000 10.49263548 14.06117792
v 15.40000000 10.49263548 14.06117792
v 14.60000000 10.20000000 14.09000000
v 15.40000000 10.20000000 14.09000000
v 14.60000000 9.90736452 14.06117792
v 15.40000000 9.90736452 14.06117792
v 14.60000000 9.62597485 13.97581930
v 15.40000000 9.62597485 13.97581930
v 14.60000000 9.36664465 13.83720442
v 15.40000000 9.36664465 13.83720442
v 14.60000000 9.13933983 13.65066017
v 15.40000000 9.13933983 13.65066017
v 14.60000000 8.95279558 13.42335535
v 15.40000000 8.95279558 13.42335535
v 14.60000000 8.81418070 13.16402515
v 15.40000000 8.81418070 13.16402515
v 14.60000000 8.72882208 12.88263548
v 15.40000000 8.72882208 12.88263548
v 14.60000000 8.70000000 12.59000000
v 15.40000000 8.70000000 12.59000000
v 14.60000000 8.72882208 12.29736452
v 15.40000000 8.72882208 12.29736452
v 14.60000000 8.81418070 12.01597485
v 15.40000000 8.81418070 12.01597485
v 14.60000000 8.95279558 11.75664465
v 15.40000000 8.95279558 11.75664465
v 14.60000000 9.13933983 11.52933983
v 15.40000000 9.13933983 11.52933983
v 14.60000000 9.36664465 11.34279558
v 15.40000000 9.36664465 11.34279558
v 14.60000000 9.62597485 11.20418070
v 15.40000000 9.62597485 11.20418070
v 14.60000000 9.90736452 11.11882208
v 15.40000000 9.90736452 11.11882208
v 7.98400000 12.64045833 11.58118056
v 7.98400000 12.74103125 11.18140625
v 7.98400000 12.82850000 10.78472222
v 7.98400000 12.90286458 10.39112847
v 7.98400000 12.96412500 10.00062500
v 7.98400000 13.01228125 9.61321181
v 7.98400000 13.04733333 9.22888889
v 7.98400000 13.06928125 8.84765625
v 7.98400000 13.07812500 8.46951389
v 7.98400000 13.07386458 8.09446181
v 7.98400000 13.05650000 7.72250000
v 7.98400000 13.02603125 7.35362847
v 7.98400000 12.98245833 6.98784722
v 7.98400000 12.92578125 6.62515625
v 7.98400000 12.85600000 6.26555556
v 7.98400000 12.77311458 5.90904514
v 7.98400000 12.67712500 5.55562500
v 7.98400000 12.56803125 5.20529514
v 7.98400000 12.44583333 4.85805556
v 7.98400000 12.31053125 4.51390625
v 7.98400000 12.16212500 4.17284722
v 7.98400000 12.00061458 3.83487847
v 7.98400000 11.82600000 3.50000000
v 7.98400000 11.82600000 -5.50000000
v 7.98400000 11.82118473 -5.59801714
v 7.98400000 11.80678528 -5.69509032
v 7.98400000 11.78294034 -5.79028468
v 7.98400000 11.74987953 -5.88268343
v 7.98400000 11.70792126 -5.97139674
v 7.98400000 11.65746961 -6.05557023
v 7.98400000 11.59901045 -6.13439328
v 7.98400000 11.53310678 -6.20710678
v 7.98400000 11.46039328 -6.27301045
v 7.98400000 11.38157023 -6.33146961
v 7.98400000 11.29739674 -6.38192126
v 7.98400000 11.20868343 -6.42387953
v 7.98400000 11.11628468 -6.45694034
v 7.98400000 11.02109032 -6.48078528
v 7.98400000 10.92401714 -6.49518473
v 7.98400000 10.82600000 -6.50000000
v 7.98400000 10.72798286 -6.49518473
v 7.98400000 10.63090968 -6.48078528
v 7.98400000 10.53571532 -6.45694034
v 7.98400000 10.44331657 -6.42387953
v 7.98400000 10.35460326 -6.38192126
v 7.98400000 10.27042977 -6.33146961
v 7.98400000 10.19160672 -6.27301045
v 7.98400000 10.11889322 -6.20710678
v 7.98400000 10.05298955 -6.13439328
v 7.98400000 9.99453039 -6.05557023
v 7.98400000 9.94407874 -5.97139674
v 7.98400000 9.90212047 -5.88268343
v 7.98400000 9.86905966 -5.79028468
v 7.98400000 9.84521472 -5.69509032
v 7.98400000 9.83081527 -5.59801714
v 7.98400000 9.82600000 -5.50000000
v 7.98400000 9.82600000 3.50000000
v 7.98400000 9.94853125 3.85831597
v 7.98400000 10.05379167 4.21659722
v 7.98400000 10.14178125 4.57484375
v 7.98400000 10.21250000 4.93305556
v 7.98400000 10.26594792 5.29123264
v 7.98400000 10.30212500 5.64937500
v 7.98400000 10.32103125 6.00748264
v 7.98400000 10.32266667 6.36555556
v 7.98400000 10.30703125 6.72359375
v 7.98400000 10.27412500 7.08159722
v 7.98400000 10.22394792 7.43956597
v 7.98400000 10.15650000 7.79750000
v 7.98400000 10.07178125 8.15539931
v 7.98400000 9.96979167 8.51326389
v 7.98400000 9.85053125 8.87109375
v 7.98400000 9.71400000 9.22888889
v 7.98400000 9.56019792 9.58664931
v 7.98400000 9.38912500 9.94437500
v 7.98400000 9.20078125 10.30206597
v 7.98400000 8.99516667 10.65972222
v 7.98400000 8.89303605 10.82359165
v 7.98400000 8.80433477 10.88937700
v 7.98400000 8.64436508 11.03436508
v 7.98400000 8.49937700 11.19433477
v 7.98400000 8.37076685 11.36774549
v 7.98400000 8.25977322 11.55292718
v 7.98400000 8.16746503 11.74809645
v 7.98400000 8.09473126 11.95137371
v 7.98400000 8.08903235 11.97412504
v 7.98400000 8.00000000 12.09000000
v 7.98400000 8.05899955 12.09402270
v 7.98400000 8.04227238 12.16080129
v 7.98400000 8.01059360 12.37436229
v 7.98400000 8.00000000 12.59000000
v 7.98400000 8.01059360 12.80563771
v 7.98400000 8.04227238 13.01919871
v 7.98400000 8.09473126 13.22862629
v 7.98400000 8.16746503 13.43190355
v 7.98400000 8.25977322 13.62707282
v 7.98400000 8.37076685 13.81225451
v 7.98400000 8.49937700 13.98566523
v 7.98400000 8.64436508 14.14563492
v 7.98400000 8.80433477 14.29062300
v 7.98400000 8.97774549 14.41923315
v 7.98400000 9.16292718 14.53022678
v 7.98400000 9.35809645 14.62253497
v 7.98400000 9.56137371 14.69526874
v 7.98400000 9.77080129 14.74772762
v 7.98400000 9.98436229 14.77940640
v 7.98400000 10.20000000 14.79000000
v 7.98400000 10.41563771 14.77940640
v 7.98400000 10.62919871 14.74772762
v 7.98400000 10.83862629 14.69526874
v 7.98400000 11.04190355 14.62253497
v 7.98400000 11.23707282 14.53022678
v 7.98400000 11.42225451 14.41923315
v 7.98400000 11.59566523 14.29062300
v 7.98400000 11.75563492 14.14563492
v 7.98400000 11.90062300 13.98566523
v 7.98400000 12.02923315 13.81225451
v 7.98400000 12.14022678 13.62707282
v 7.98400000 12.23253497 13.43190355
v 7.98400000 12.30526874 13.22862629
v 7.98400000 12.35772762 13.01919871
v 7.98400000 12.38940640 12.80563771
v 7.98400000 12.40000000 12.59000000
v 7.98400000 12.39014161 12.38932784
v 7.98400000 12.40000000 12.39000000
v 7.98400000 12.52678125 11.98404514
v 12.58400000 12.64045833 11.58118056
v 12.58400000 12.74103125 11.18140625
v 12.58400000 12.82850000 10.78472222
v 12.58400000 12.90286458 10.39112847
v 12.58400000 12.96412500 10.00062500
v 12.58400000 13.01228125 9.61321181
v 12.58400000 13.04733333 9.22888889
v 12.58400000 13.06928125 8.84765625
v 12.58400000 13.07812500 8.46951389
v 12.58400000 13.07386458 8.09446181
v 12.58400000 13.05650000 7.72250000
v 12.58400000 13.02603125 7.35362847
v 12.58400000 12.98245833 6.98784722
v 12.58400000 12.92578125 6.62515625
v 12.58400000 12.85600000 6.26555556
v 12.58400000 12.77311458 5.90904514
v 12.58400000 12.67712500 5.55562500
v 12.58400000 12.56803125 5.20529514
v 12.58400000 12.44583333 4.85805556
v 12.58400000 12.31053125 4.51390625
v 12.58400000 12.16212500 4.17284722
v 12.58400000 12.00061458 3.83487847
v 12.58400000 11.82600000 3.50000000
v 12.58400000 11.82600000 -5.50000000
v 12.58400000 11.82118473 -5.59801714
v 12.58400000 11.80678528 -5.69509032
v 12.58400000 11.78294034 -5.79028468
v 12.58400000 11.74987953 -5.88268343
v 12.58400000 11.70792126 -5.97139674
v 12.58400000 11.65746961 -6.05557023
v 12.58400000 11.59901045 -6.13439328
v 12.58400000 11.53310678 -6.20710678
v 12.58400000 11.46039328 -6.27301045
v 12.58400000 11.38157023 -6.33146961
v 12.58400000 11.29739674 -6.38192126
v 12.58400000 11.20868343 -6.42387953
v 12.58400000 11.11628468 -6.45694034
v 12.58400000 11.02109032 -6.48078528
v 12.58400000 10.92401714 -6.49518473
v 12.58400000 10.82600000 -6.50000000
v 12.58400000 10.72798286 -6.49518473
v 12.58400000 10.63090968 -6.48078528
v 12.58400000 10.53571532 -6.45694034
v 12.58400000 10.44331657 -6.42387953
v 12.58400000 10.35460326 -6.38192126
v 12.58400000 10.27042977 -6.33146961
v 12.58400000 10.19160672 -6.27301045
v 12.58400000 10.11889322 -6.20710678
v 12.58400000 10.05298955 -6.13439328
v 12.58400000 9.99453039 -6.05557023
v 12.58400000 9.94407874 -5.97139674
v 12.58400000 9.90212047 -5.88268343
v 12.58400000 9.86905966 -5.79028468
v 12.58400000 9.84521472 -5.69509032
v 12.58400000 9.83081527 -5.59801714
v 12.58400000 9.82600000 -5.50000000
v 12.58400000 9.82600000 3.50000000
v 12.58400000 9.94853125 3.85831597
v 12.58400000 10.05379167 4.21659722
v 12.58400000 10.14178125 4.57484375
v 12.58400000 10.21250000 4.93305556
v 12.58400000 10.26594792 5.29123264
v 12.58400000 10.30212500 5.64937500
v 12.58400000 10.32103125 6.00748264
v 12.58400000 10.32266667 6.36555556
v 12.58400000 10.30703125 6.72359375
v 12.58400000 10.27412500 7.08159722
v 12.58400000 10.22394792 7.43956597
v 12.58400000 10.15650000 7.79750000
v 12.58400000 10.07178125 8.15539931
v 12.58400000 9.96979167 8.51326389
v 12.58400000 9.85053125 8.87109375
v 12.58400000 9.71400000 9.22888889
v 12.58400000 9.56019792 9.58664931
v 12.58400000 9.38912500 9.94437500
v 12.58400000 9.20078125 10.30206597
v 12.58400000 8.99516667 10.65972222
v 12.58400000 8.89303605 10.82359165
v 12.58400000 8.80433477 10.88937700
v 12.58400000 8.64436508 11.03436508
v 12.58400000 8.49937700 11.19433477
v 12.58400000 8.37076685 11.36774549
v 12.58400000 8.25977322 11.55292718
v 12.58400000 8.16746503 11.74809645
v 12.58400000 8.09473126 11.95137371
v 12.58400000 8.08903235 11.97412504
v 12.58400000 8.00000000 12.09000000
v 12.58400000 8.05899955 12.09402270
v 12.58400000 8.04227238 12.16080129
v 12.58400000 8.01059360 12.37436229
v 12.58400000 8.00000000 12.59000000
v 12.58400000 8.01059360 12.80563771
v 12.58400000 8.04227238 13.01919871
v 12.58400000 8.09473126 13.22862629
v 12.58400000 8.16746503 13.43190355
v 12.58400000 8.25977322 13.62707282
v 12.58400000 8.37076685 13.81225451
v 12.58400000 8.49937700 13.98566523
v 12.58400000 8.64436508 14.14563492
v 12.58400000 8.80433477 14.29062300
v 12.58400000 8.97774549 14.41923315
v 12.58400000 9.16292718 14.53022678
v 12.58400000 9.35809645 14.62253497
v 12.58400000 9.56137371 14.69526874
v 12.58400000 9.77080129 14.74772762
v 12.58400000 9.98436229 14.77940640
v 12.58400000 10.20000000 14.79000000
v 12.58400000 10.41563771 14.77940640
v 12.58400000 10.62919871 14.74772762
v 12.58400000 10.83862629 14.69526874
v 12.58400000 11.04190355 14.62253497
v 12.58400000 11.23707282 14.53022678
v 12.58400000 11.42225451 14.41923315
v 12.58400000 11.59566523 14.29062300
v 12.58400000 11.75563492 14.14563492
v 12.58400000 11.90062300 13.98566523
v 12.58400000 12.02923315 13.81225451
v 12.58400000 12.14022678 13.62707282
v 12.58400000 12.23253497 13.43190355
v 12.58400000 12.30526874 13.22862629
v 12.58400000 12.35772762 13.01919871
v 12.58400000 12.38940640 12.80563771
v 12.58400000 12.40000000 12.59000000
v 12.58400000 12.39014161 12.38932784
v 12.58400000 12.40000000 12.39000000
v 12.58400000 12.52678125 11.98404514
v 5.50000000 8.50000000 6.59000000
v 5.50000000 5.50000000 6.59000000
v 5.50000000 5.50000000 8.59000000
v 5.50000000 8.53141015 11.15899165
v 5.50000000 8.49937700 11.19433477
v 5.50000000 8.37076685 11.36774549
v 5.50000000 8.25977322 11.55292718
v 5.50000000 8.16746503 11.74809645
v 5.50000000 8.09473126 11.95137371
v 5.50000000 8.04227238 12.16080129
v 5.50000000 8.01059360 12.37436229
v 5.50000000 8.00000000 12.59000000
v 5.50000000 8.01059360 12.80563771
v 5.50000000 8.04227238 13.01919871
v 5.50000000 8.09473126 13.22862629
v 5.50000000 8.16746503 13.43190355
v 5.50000000 8.25977322 13.62707282
v 5.50000000 8.37076685 13.81225451
v 5.50000000 8.49937700 13.98566523
v 5.50000000 8.64436508 14.14563492
v 5.50000000 8.80433477 14.29062300
v 5.50000000 8.97774549 14.41923315
v 5.50000000 9.16292718 14.53022678
v 5.50000000 9.35809645 14.62253497
v 5.50000000 9.56137371 14.69526874
v 5.50000000 9.77080129 14.74772762
v 5.50000000 9.98436229 14.77940640
v 5.50000000 10.20000000 14.79000000
v 5.50000000 10.41563771 14.77940640
v 5.50000000 10.62919871 14.74772762
v 5.50000000 10.83862629 14.69526874
v 5.50000000 11.04190355 14.62253497
v 5.50000000 11.23707282 14.53022678
v 5.50000000 11.42225451 14.41923315
v 5.50000000 11.59566523 14.29062300
v 5.50000000 11.75563492 14.14563492
v 5.50000000 11.90062300 13.98566523
v 5.50000000 12.02923315 13.81225451
v 5.50000000 12.14022678 13.62707282
v 5.50000000 12.23253497 13.43190355
v 5.50000000 12.30526874 13.22862629
v 5.50000000 12.35772762 13.01919871
v 5.50000000 12.38940640 12.80563771
v 5.50000000 12.40000000 12.59000000
v 5.50000000 12.38940640 12.37436229
v 5.50000000 12.35772762 12.16080129
v 5.50000000 12.30526874 11.95137371
v 5.50000000 12.23253497 11.74809645
v 5.50000000 12.14022678 11.55292718
v 5.50000000 12.02923315 11.36774549
v 5.50000000 11.90062300 11.19433477
v 5.50000000 11.75563492 11.03436508
v 5.50000000 11.59566523 10.88937700
v 5.50000000 11.42225451 10.76076685
v 5.50000000 11.23707282 10.64977322
v 5.50000000 11.04190355 10.55746503
v 5.50000000 10.83862629 10.48473126
v 5.50000000 10.62919871 10.43227238
v 5.50000000 10.49197639 10.41191738
v 5.50000000 10.20000000 9.39000000
v 9.60000000 8.50000000 6.59000000
v 9.60000000 5.50000000 6.59000000
v 9.60000000 5.50000000 8.59000000
v 9.60000000 8.53141015 11.15899165
v 9.60000000 8.49937700 11.19433477
v 9.60000000 8.37076685 11.36774549
v 9.60000000 8.25977322 11.55292718
v 9.60000000 8.16746503 11.74809645
v 9.60000000 8.09473126 11.95137371
v 9.60000000 8.04227238 12.16080129
v 9.60000000 8.01059360 12.37436229
v 9.60000000 8.00000000 12.59000000
v 9.60000000 8.01059360 12.80563771
v 9.60000000 8.04227238 13.01919871
v 9.60000000 8.09473126 13.22862629
v 9.60000000 8.16746503 13.43190355
v 9.60000000 8.25977322 13.62707282
v 9.60000000 8.37076685 13.81225451
v 9.60000000 8.49937700 13.98566523
v 9.60000000 8.64436508 14.14563492
v 9.60000000 8.80433477 14.29062300
v 9.60000000 8.97774549 14.41923315
v 9.60000000 9.16292718 14.53022678
v 9.60000000 9.35809645 14.62253497
v 9.60000000 9.56137371 14.69526874
v 9.60000000 9.77080129 14.74772762
v 9.60000000 9.98436229 14.77940640
v 9.60000000 10.20000000 14.79000000
v 9.60000000 10.41563771 14.77940640
v 9.60000000 10.62919871 14.74772762
v 9.60000000 10.83862629 14.69526874
v 9.60000000 11.04190355 14.62253497
v 9.60000000 11.23707282 14.53022678
v 9.60000000 11.42225451 14.41923315
v 9.60000000 11.59566523 14.29062300
v 9.60000000 11.75563492 14.14563492
v 9.60000000 11.90062300 13.98566523
v 9.60000000 12.02923315 13.81225451
v 9.60000000 12.14022678 13.62707282
v 9.60000000 12.23253497 13.43190355
v 9.60000000 12.30526874 13.22862629
v 9.60000000 12.35772762 13.01919871
v 9.60000000 12.38940640 12.80563771
v 9.60000000 12.40000000 12.59000000
v 9.60000000 12.38940640 12.37436229
v 9.60000000 12.35772762 12.16080129
v 9.60000000 12.30526874 11.95137371
v 9.60000000 12.23253497 11.74809645
v 9.60000000 12.14022678 11.55292718
v 9.60000000 12.02923315 11.36774549
v 9.60000000 11.90062300 11.19433477
v 9.60000000 11.75563492 11.03436508
v 9.60000000 11.59566523 10.88937700
v 9.60000000 11.42225451 10.76076685
v 9.60000000 11.23707282 10.64977322
v 9.60000000 11.04190355 10.55746503
v 9.60000000 10.83862629 10.48473126
v 9.60000000 10.62919871 10.43227238
v 9.60000000 10.49197639 10.41191738
v 9.60000000 10.20000000 9.39000000
v 5.50000000 12.60000000 9.99000000
v 5.50000000 12.60000000 14.09000000
v 5.50000000 8.40000000 14.09000000
v 5.50000000 8.40000000 9.99000000
v 12.58400000 12.60000000 9.99000000
v 12.58400000 12.60000000 14.09000000
v 12.58400000 8.40000000 14.09000000
v 12.58400000 8.40000000 9.99000000
f 2 1 5
f 2 5 3
f 3 5 6
f 3 6 4
f 5 1 7
f 5 7 6
f 6 7 8
f 6 8 4
f 7 1 9
f 7 9 8
f 8 9 10
f 8 10 4
f 9 1 11
f 9 11 10
f 10 11 12
f 10 12 4
f 11 1 13
f 11 13 12
f 12 13 14
f 12 14 4
f 13 1 15
f 13 15 14
f 14 15 16
f 14 16 4
f 15 1 17
f 15 17 16
f 16 17 18
f 16 18 4
f 17 1 19
f 17 19 18
f 18 19 20
f 18 20 4
f 19 1 21
f 19 21 20
f 20 21 22
f 20 22 4
f 21 1 23
f 21 23 22
f 22 23 24
f 22 24 4
f 23 1 25
f 23 25 24
f 24 25 26
f 24 26 4
f 25 1 27
f 25 27 26
f 26 27 28
f 26 28 4
f 27 1 29
f 27 29 28
f 28 29 30
f 28 30 4
f 29 1 31
f 29 31 30
f 30 31 32
f 30 32 4
f 31 1 33
f 31 33 32
f 32 33 34
f 32 34 4
f 33 1 35
f 33 35 34
f 34 35 36
f 34 36 4
f 35 1 37
f 35 37 36
f 36 37 38
f 36 38 4
f 37 1 39
f 37 39 38
f 38 39 40
f 38 40 4
f 39 1 41
f 39 41 40
f 40 41 42
f 40 42 4
f 41 1 43
f 41 43 42
f 42 43 44
f 42 44 4
f 43 1 45
f 43 45 44
f 44 45 46
f 44 46 4
f 45 1 47
f 45 47 46
f 46 47 48
f 46 48 4
f 47 1 49
f 47 49 48
f 48 49 50
f 48 50 4
f 49 1 51
f 49 51 50
f 50 51 52
f 50 52 4
f 51 1 53
f 51 53 52
f 52 53 54
f 52 54 4
f 53 1 55
f 53 55 54
f 54 55 56
f 54 56 4
f 55 1 57
f 55 57 56
f 56 57 58
f 56 58 4
f 57 1 59
f 57 59 58
f 58 59 60
f 58 60 4
f 59 1 61
f 59 61 60
f 60 61 62
f 60 62 4
f 61 1 63
f 61 63 62
f 62 63 64
f 62 64 4
f 63 1 65
f 63 65 64
f 64 65 66
f 64 66 4
f 65 1 2
f 65 2 66
f 66 2 3
f 66 3 4
f 68 67 71
f 68 71 69
f 69 71 72
f 69 72 70
f 71 67 73
f 71 73 72
f 72 73 74
f 72 74 70
f 73 67 75
f 73 75 74
f 74 75 76
f 74 76 70
f 75 67 77
f 75 77 76
f 76 77 78
f 76 78 70
f 77 67 79
f 77 79 78
f 78 79 80
f 78 80 70
f 79 67 81
f 79 81 80
f 80 81 82
f 80 82 70
f 81 67 83
f 81 83 82
f 82 83 84
f 82 84 70
f 83 67 85
f 83 85 84
f 84 85 86
f 84 86 70
f 85 67 87
f 85 87 86
f 86 87 88
f 86 88 70
f 87 67 89
f 87 89 88
f 88 89 90
f 88 90 70
f 89 67 91
f 89 91 90
f 90 91 92
f 90 92 70
f 91 67 93
f 91 93 92
f 92 93 94
f 92 94 70
f 93 67 95
f 93 95 94
f 94 95 96
f 94 96 70
f 95 67 97
f 95 97 96
f 96 97 98
f 96 98 70
f 97 67 99
f 97 99 98
f 98 99 100
f 98 100 70
f 99 67 101
f 99 101 100
f 100 101 102
f 100 102 70
f 101 67 103
f 101 103 102
f 102 103 104
f 102 104 70
f 103 67 105
f 103 105 104
f 104 105 106
f 104 106 70
f 105 67 107
f 105 107 106
f 106 107 108
f 106 108 70
f 107 67 109
f 107 109 108
f 108 109 110
f 108 110 70
f 109 67 111
f 109 111 110
f 110 111 112
f 110 112 70
f 111 67 113
f 111 113 112
f 112 113 114
f 112 114 70
f 113 67 115
f 113 115 114
f 114 115 116
f 114 116 70
f 115 67 117
f 115 117 116
f 116 117 118
f 116 118 70
f 117 67 119
f 117 119 118
f 118 119 120
f 118 120 70
f 119 67 121
f 119 121 120
f 120 121 122
f 120 122 70
f 121 67 123
f 121 123 122
f 122 123 124
f 122 124 70
f 123 67 125
f 123 125 124
f 124 125 126
f 124 126 70
f 125 67 127
f 125 127 126
f 126 127 128
f 126 128 70
f 127 67 129
f 127 129 128
f 128 129 130
f 128 130 70
f 129 67 131
f 129 131 130
f 130 131 132
f 130 132 70
f 131 67 68
f 131 68 132
f 132 68 69
f 132 69 70
f 134 133 137
f 134 137 135
f 135 137 138
f 135 138 136
f 137 133 139
f 137 139 138
f 138 139 140
f 138 140 136
f 139 133 141
f 139 141 140
f 140 141 142
f 140 142 136
f 141 133 143
f 141 143 142
f 142 143 144
f 142 144 136
f 143 133 145
f 143 145 144
f 144 145 146
f 144 146 136
f 145 133 147
f 145 147 146
f 146 147 148
f 146 148 136
f 147 133 149
f 147 149 148
f 148 149 150
f 148 150 136
f 149 133 151
f 149 151 150
f 150 151 152
f 150 152 136
f 151 133 153
f 151 153 152
f 152 153 154
f 152 154 136
f 153 133 155
f 153 155 154
f 154 155 156
f 154 156 136
f 155 133 157
f 155 157 156
f 156 157 158
f 156 158 136
f 157 133 159
f 157 159 158
f 158 159 160
f 158 160 136
f 159 133 161
f 159 161 160
f 160 161 162
f 160 162 136
f 161 133 163
f 161 163 162
f 162 163 164
f 162 164 136
f 163 133 165
f 163 165 164
f 164 165 166
f 164 166 136
f 165 133 167
f 165 167 166
f 166 167 168
f 166 168 136
f 167 133 169
f 167 169 168
f 168 169 170
f 168 170 136
f 169 133 171
f 169 171 170
f 170 171 172
f 170 172 136
f 171 133 173
f 171 173 172
f 172 173 174
f 172 174 136
f 173 133 175
f 173 175 174
f 174 175 176
f 174 176 136
f 175 133 177
f 175 177 176
f 176 177 178
f 176 178 136
f 177 133 179
f 177 179 178
f 178 179 180
f 178 180 136
f 179 133 181
f 179 181 180
f 180 181 182
f 180 182 136
f 181 133 183
f 181 183 182
f 182 183 184
f 182 184 136
f 183 133 185
f 183 185 184
f 184 185 186
f 184 186 136
f 185 133 187
f 185 187 186
f 186 187 188
f 186 188 136
f 187 133 189
f 187 189 188
f 188 189 190
f 188 190 136
f 189 133 191
f 189 191 190
f 190 191 192
f 190 192 136
f 191 133 193
f 191 193 192
f 192 193 194
f 192 194 136
f 193 133 195
f 193 195 194
f 194 195 196
f 194 196 136
f 195 133 197
f 195 197 196
f 196 197 198
f 196 198 136
f 197 133 134
f 197 134 198
f 198 134 135
f 198 135 136
f 200 199 203
f 200 203 201
f 201 203 204
f 201 204 202
f 203 199 205
f 203 205 204
f 204 205 206
f 204 206 202
f 205 199 207
f 205 207 206
f 206 207 208
f 206 208 202
f 207 199 209
f 207 209 208
f 208 209 210
f 208 210 202
f 209 199 211
f 209 211 210
f 210 211 212
f 210 212 202
f 211 199 213
f 211 213 212
f 212 213 214
f 212 214 202
f 213 199 215
f 213 215 214
f 214 215 216
f 214 216 202
f 215 199 217
f 215 217 216
f 216 217 218
f 216 218 202
f 217 199 219
f 217 219 218
f 218 219 220
f 218 220 202
f 219 199 221
f 219 221 220
f 220 221 222
f 220 222 202
f 221 199 223
f 221 223 222
f 222 223 224
f 222 224 202
f 223 199 225
f 223 225 224
f 224 225 226
f 224 226 202
f 225 199 227
f 225 227 226
f 226 227 228
f 226 228 202
f 227 199 229
f 227 229 228
f 228 229 230
f 228 230 202
f 229 199 231
f 229 231 230
f 230 231 232
f 230 232 202
f 231 199 233
f 231 233 232
f 232 233 234
f 232 234 202
f 233 199 235
f 233 235 234
f 234 235 236
f 234 236 202
f 235 199 237
f 235 237 236
f 236 237 238
f 236 238 202
f 237 199 239
f 237 239 238
f 238 239 240
f 238 240 202
f 239 199 241
f 239 241 240
f 240 241 242
f 240 242 202
f 241 199 243
f 241 243 242
f 242 243 244
f 242 244 202
f 243 199 245
f 243 245 244
f 244 245 246
f 244 246 202
f 245 199 247
f 245 247 246
f 246 247 248
f 246 248 202
f 247 199 249
f 247 249 248
f 248 249 250
f 248 250 202
f 249 199 251
f 249 251 250
f 250 251 252
f 250 252 202
f 251 199 253
f 251 253 252
f 252 253 254
f 252 254 202
f 253 199 255
f 253 255 254
f 254 255 256
f 254 256 202
f 255 199 257
f 255 257 256
f 256 257 258
f 256 258 202
f 257 199 259
f 257 259 258
f 258 259 260
f 258 260 202
f 259 199 261
f 259 261 260
f 260 261 262
f 260 262 202
f 261 199 263
f 261 263 262
f 262 263 264
f 262 264 202
f 263 199 200
f 263 200 264
f 264 200 201
f 264 201 202
f 389 390 265
f 386 387 388
f 384 385 386
f 382 383 384
f 380 381 382
f 378 379 380
f 376 377 378
f 374 375 376
f 372 373 374
f 370 371 372
f 368 369 370
f 366 367 368
f 364 365 366
f 362 363 364
f 360 361 362
f 358 359 360
f 356 357 358
f 354 355 356
f 352 353 354
f 350 351 352
f 348 349 350
f 346 347 348
f 344 345 346
f 342 343 344
f 320 321 322
f 318 319 320
f 316 317 318
f 314 315 316
f 312 313 314
f 310 311 312
f 308 309 310
f 306 307 308
f 304 305 306
f 302 303 304
f 300 301 302
f 298 299 300
f 296 297 298
f 294 295 296
f 292 293 294
f 290 291 292
f 288 289 290
f 285 286 287
f 283 284 285
f 281 282 283
f 279 280 281
f 277 278 279
f 275 276 277
f 273 274 275
f 271 272 273
f 269 270 271
f 267 268 269
f 265 266 267
f 388 389 265
f 384 386 388
f 380 382 384
f 376 378 380
f 372 374 376
f 368 370 372
f 364 366 368
f 360 362 364
f 356 358 360
f 352 354 356
f 348 350 352
f 344 346 348
f 320 322 323
f 316 318 320
f 312 314 316
f 308 310 312
f 304 306 308
f 300 302 304
f 296 298 300
f 292 294 296
f 288 290 292
f 283 285 287
f 279 281 283
f 275 277 279
f 271 273 275
f 267 269 271
f 388 265 267
f 380 384 388
f 372 376 380
f 364 368 372
f 356 360 364
f 348 352 356
f 342 344 348
f 320 323 324
f 312 316 320
f 304 308 312
f 296 300 304
f 288 292 296
f 279 283 287
f 271 275 279
f 388 267 271
f 372 380 388
f 356 364 372
f 342 348 356
f 320 324 325
f 304 312 320
f 288 296 304
f 271 279 287
f 372 388 271
f 342 356 372
f 320 325 326
f 288 304 320
f 372 271 287
f 341 342 372
f 320 326 327
f 287 288 320
f 340 341 372
f 320 327 328
f 339 340 372
f 287 320 328
f 338 339 372
f 287 328 329
f 337 338 372
f 287 329 330
f 336 337 372
f 287 330 331
f 336 372 287
f 287 331 332
f 335 336 287
f 287 332 333
f 334 335 287
f 287 333 334
f 391 516 515
f 514 513 512
f 512 511 510
f 510 509 508
f 508 507 506
f 506 505 504
f 504 503 502
f 502 501 500
f 500 499 498
f 498 497 496
f 496 495 494
f 494 493 492
f 492 491 490
f 490 489 488
f 488 487 486
f 486 485 484
f 484 483 482
f 482 481 480
f 480 479 478
f 478 477 476
f 476 475 474
f 474 473 472
f 472 471 470
f 470 469 468
f 448 447 446
f 446 445 444
f 444 443 442
f 442 441 440
f 440 439 438
f 438 437 436
f 436 435 434
f 434 433 432
f 432 431 430
f 430 429 428
f 428 427 426
f 426 425 424
f 424 423 422
f 422 421 420
f 420 419 418
f 418 417 416
f 416 415 414
f 413 412 411
f 411 410 409
f 409 408 407
f 407 406 405
f 405 404 403
f 403 402 401
f 401 400 399
f 399 398 397
f 397 396 395
f 395 394 393
f 393 392 391
f 391 515 514
f 514 512 510
f 510 508 506
f 506 504 502
f 502 500 498
f 498 496 494
f 494 492 490
f 490 488 486
f 486 484 482
f 482 480 478
f 478 476 474
f 474 472 470
f 449 448 446
f 446 444 442
f 442 440 438
f 438 436 434
f 434 432 430
f 430 428 426
f 426 424 422
f 422 420 418
f 418 416 414
f 413 411 409
f 409 407 405
f 405 403 401
f 401 399 397
f 397 395 393
f 393 391 514
f 514 510 506
f 506 502 498
f 498 494 490
f 490 486 482
f 482 478 474
f 474 470 468
f 450 449 446
f 446 442 438
f 438 434 430
f 430 426 422
f 422 418 414
f 413 409 405
f 405 401 397
f 397 393 514
f 514 506 498
f 498 490 482
f 482 474 468
f 451 450 446
f 446 438 430
f 430 422 414
f 413 405 397
f 397 514 498
f 498 482 468
f 452 451 446
f 446 430 414
f 413 397 498
f 498 468 467
f 453 452 446
f 446 414 413
f 498 467 466
f 454 453 446
f 498 466 465
f 454 446 413
f 498 465 464
f 455 454 413
f 498 464 463
f 456 455 413
f 498 463 462
f 457 456 413
f 413 498 462
f 458 457 413
f 413 462 461
f 459 458 413
f 413 461 460
f 460 459 413
f 391 392 265
f 265 392 266
f 392 393 266
f 266 393 267
f 393 394 267
f 267 394 268
f 394 395 268
f 268 395 269
f 395 396 269
f 269 396 270
f 396 397 270
f 270 397 271
f 397 398 271
f 271 398 272
f 398 399 272
f 272 399 273
f 399 400 273
f 273 400 274
f 400 401 274
f 274 401 275
f 401 402 275
f 275 402 276
f 402 403 276
f 276 403 277
f 403 404 277
f 277 404 278
f 404 405 278
f 278 405 279
f 405 406 279
f 279 406 280
f 406 407 280
f 280 407 281
f 407 408 281
f 281 408 282
f 408 409 282
f 282 409 283
f 409 410 283
f 283 410 284
f 410 411 284
f 284 411 285
f 411 412 285
f 285 412 286
f 412 413 286
f 286 413 287
f 413 414 287
f 287 414 288
f 414 415 288
f 288 415 289
f 415 416 289
f 289 416 290
f 416 417 290
f 290 417 291
f 417 418 291
f 291 418 292
f 418 419 292
f 292 419 293
f 419 420 293
f 293 420 294
f 420 421 294
f 294 421 295
f 421 422 295
f 295 422 296
f 422 423 296
f 296 423 297
f 423 424 297
f 297 424 298
f 424 425 298
f 298 425 299
f 425 426 299
f 299 426 300
f 426 427 300
f 300 427 301
f 427 428 301
f 301 428 302
f 428 429 302
f 302 429 303
f 429 430 303
f 303 430 304
f 430 431 304
f 304 431 305
f 431 432 305
f 305 432 306
f 432 433 306
f 306 433 307
f 433 434 307
f 307 434 308
f 434 435 308
f 308 435 309
f 435 436 309
f 309 436 310
f 436 437 310
f 310 437 311
f 437 438 311
f 311 438 312
f 438 439 312
f 312 439 313
f 439 440 313
f 313 440 314
f 440 441 314
f 314 441 315
f 441 442 315
f 315 442 316
f 442 443 316
f 316 443 317
f 443 444 317
f 317 444 318
f 444 445 318
f 318 445 319
f 445 446 319
f 319 446 320
f 446 447 320
f 320 447 321
f 447 448 321
f 321 448 322
f 448 449 322
f 322 449 323
f 449 450 323
f 323 450 324
f 450 451 324
f 324 451 325
f 451 452 325
f 325 452 326
f 452 453 326
f 326 453 327
f 453 454 327
f 327 454 328
f 454 455 328
f 328 455 329
f 455 456 329
f 329 456 330
f 456 457 330
f 330 457 331
f 457 458 331
f 331 458 332
f 458 459 332
f 332 459 333
f 459 460 333
f 333 460 334
f 460 461 334
f 334 461 335
f 461 462 335
f 335 462 336
f 462 463 336
f 336 463 337
f 463 464 337
f 337 464 338
f 464 465 338
f 338 465 339
f 465 466 339
f 339 466 340
f 466 467 340
f 340 467 341
f 467 468 341
f 341 468 342
f 468 469 342
f 342 469 343
f 469 470 343
f 343 470 344
f 470 471 344
f 344 471 345
f 471 472 345
f 345 472 346
f 472 473 346
f 346 473 347
f 473 474 347
f 347 474 348
f 474 475 348
f 348 475 349
f 475 476 349
f 349 476 350
f 476 477 350
f 350 477 351
f 477 478 351
f 351 478 352
f 478 479 352
f 352 479 353
f 479 480 353
f 353 480 354
f 480 481 354
f 354 481 355
f 481 482 355
f 355 482 356
f 482 483 356
f 356 483 357
f 483 484 357
f 357 484 358
f 484 485 358
f 358 485 359
f 485 486 359
f 359 486 360
f 486 487 360
f 360 487 361
f 487 488 361
f 361 488 362
f 488 489 362
f 362 489 363
f 489 490 363
f 363 490 364
f 490 491 364
f 364 491 365
f 491 492 365
f 365 492 366
f 492 493 366
f 366 493 367
f 493 494 367
f 367 494 368
f 494 495 368
f 368 495 369
f 495 496 369
f 369 496 370
f 496 497 370
f 370 497 371
f 497 498 371
f 371 498 372
f 498 499 372
f 372 499 373
f 499 500 373
f 373 500 374
f 500 501 374
f 374 501 375
f 501 502 375
f 375 502 376
f 502 503 376
f 376 503 377
f 503 504 377
f 377 504 378
f 504 505 378
f 378 505 379
f 505 506 379
f 379 506 380
f 506 507 380
f 380 507 381
f 507 508 381
f 381 508 382
f 508 509 382
f 382 509 383
f 509 510 383
f 383 510 384
f 510 511 384
f 384 511 385
f 511 512 385
f 385 512 386
f 512 513 386
f 386 513 387
f 513 514 387
f 387 514 388
f 514 515 388
f 388 515 389
f 516 391 390
f 390 391 265
f 515 516 389
f 389 516 390
f 575 576 517
f 573 574 575
f 571 572 573
f 569 570 571
f 567 568 569
f 565 566 567
f 563 564 565
f 561 562 563
f 559 560 561
f 557 558 559
f 555 556 557
f 553 554 555
f 551 552 553
f 549 550 551
f 547 548 549
f 545 546 547
f 543 544 545
f 541 542 543
f 539 540 541
f 537 538 539
f 535 536 537
f 533 534 535
f 531 532 533
f 529 530 531
f 527 528 529
f 525 526 527
f 523 524 525
f 521 522 523
f 518 519 520
f 575 517 518
f 571 573 575
f 567 569 571
f 563 565 567
f 559 561 563
f 555 557 559
f 551 553 555
f 547 549 551
f 543 545 547
f 539 541 543
f 535 537 539
f 531 533 535
f 527 529 531
f 523 525 527
f 520 521 523
f 575 518 520
f 567 571 575
f 559 563 567
f 551 555 559
f 543 547 551
f 535 539 543
f 527 531 535
f 520 523 527
f 567 575 520
f 551 559 567
f 535 543 551
f 520 527 535
f 551 567 520
f 520 535 551
f 577 636 635
f 635 634 633
f 633 632 631
f 631 630 629
f 629 628 627
f 627 626 625
f 625 624 623
f 623 622 621
f 621 620 619
f 619 618 617
f 617 616 615
f 615 614 613
f 613 612 611
f 611 610 609
f 609 608 607
f 607 606 605
f 605 604 603
f 603 602 601
f 601 600 599
f 599 598 597
f 597 596 595
f 595 594 593
f 593 592 591
f 591 590 589
f 589 588 587
f 587 586 585
f 585 584 583
f 583 582 581
f 580 579 578
f 578 577 635
f 635 633 631
f 631 629 627
f 627 625 623
f 623 621 619
f 619 617 615
f 615 613 611
f 611 609 607
f 607 605 603
f 603 601 599
f 599 597 595
f 595 593 591
f 591 589 587
f 587 585 583
f 583 581 580
f 580 578 635
f 635 631 627
f 627 623 619
f 619 615 611
f 611 607 603
f 603 599 595
f 595 591 587
f 587 583 580
f 580 635 627
f 627 619 611
f 611 603 595
f 595 587 580
f 580 627 611
f 611 595 580
f 577 578 517
f 517 578 518
f 578 579 518
f 518 579 519
f 579 580 519
f 519 580 520
f 580 581 520
f 520 581 521
f 581 582 521
f 521 582 522
f 582 583 522
f 522 583 523
f 583 584 523
f 523 584 524
f 584 585 524
f 524 585 525
f 585 586 525
f 525 586 526
f 586 587 526
f 526 587 527
f 587 588 527
f 527 588 528
f 588 589 528
f 528 589 529
f 589 590 529
f 529 590 530
f 590 591 530
f 530 591 531
f 591 592 531
f 531 592 532
f 592 593 532
f 532 593 533
f 593 594 533
f 533 594 534
f 594 595 534
f 534 595 535
f 595 596 535
f 535 596 536
f 596 597 536
f 536 597 537
f 597 598 537
f 537 598 538
f 598 599 538
f 538 599 539
f 599 600 539
f 539 600 540
f 600 601 540
f 540 601 541
f 601 602 541
f 541 602 542
f 602 603 542
f 542 603 543
f 603 604 543
f 543 604 544
f 604 605 544
f 544 605 545
f 605 606 545
f 545 606 546
f 606 607 546
f 546 607 547
f 607 608 547
f 547 608 548
f 608 609 548
f 548 609 549
f 609 610 549
f 549 610 550
f 610 611 550
f 550 611 551
f 611 612 551
f 551 612 552
f 612 613 552
f 552 613 553
f 613 614 553
f 553 614 554
f 614 615 554
f 554 615 555
f 615 616 555
f 555 616 556
f 616 617 556
f 556 617 557
f 617 618 557
f 557 618 558
f 618 619 558
f 558 619 559
f 619 620 559
f 559 620 560
f 620 621 560
f 560 621 561
f 621 622 561
f 561 622 562
f 622 623 562
f 562 623 563
f 623 624 563
f 563 624 564
f 624 625 564
f 564 625 565
f 625 626 565
f 565 626 566
f 626 627 566
f 566 627 567
f 627 628 567
f 567 628 568
f 628 629 568
f 568 629 569
f 629 630 569
f 569 630 570
f 630 631 570
f 570 631 571
f 631 632 571
f 571 632 572
f 632 633 572
f 572 633 573
f 633 634 573
f 573 634 574
f 634 635 574
f 574 635 575
f 636 577 576
f 576 577 517
f 635 636 575
f 575 636 576
f 638 637 640
f 640 639 638
f 644 641 642
f 642 643 644
f 642 641 638
f 638 641 637
f 643 642 639
f 639 642 638
f 641 644 637
f 637 644 640
f 644 643 640
f 640 643 639

