# https://github.com/mikedh/trimesh
v -5.80000000 1.12667152 2.46419787
v -5.80000000 0.68012848 3.79107364
v -3.70000000 0.68012848 3.79107364
v -3.70000000 1.12667152 2.46419787
v -5.80000000 0.42984806 3.67846187
v -3.70000000 0.42984806 3.67846187
v -5.80000000 0.20634617 3.51918662
v -3.70000000 0.20634617 3.51918662
v -5.80000000 0.01821187 3.31936873
v -3.70000000 0.01821187 3.31936873
v -5.80000000 -0.12732495 3.08668712
v -3.70000000 -0.12732495 3.08668712
v -5.80000000 -0.22467139 2.83008359
v -3.70000000 -0.22467139 2.83008359
v -5.80000000 -0.27008647 2.55941927
v -3.70000000 -0.27008647 2.55941927
v -5.80000000 -0.26182494 2.28509565
v -3.70000000 -0.26182494 2.28509565
v -5.80000000 -0.20020426 2.01765483
v -3.70000000 -0.20020426 2.01765483
v -5.80000000 -0.08759249 1.76737441
v -3.70000000 -0.08759249 1.76737441
v -5.80000000 0.07168277 1.54387252
v -3.70000000 0.07168277 1.54387252
v -5.80000000 0.27150065 1.35573822
v -3.70000000 0.27150065 1.35573822
v -5.80000000 0.50418227 1.21020140
v -3.70000000 0.50418227 1.21020140
v -5.80000000 0.76078580 1.11285496
v -3.70000000 0.76078580 1.11285496
v -5.80000000 1.03145011 1.06743988
v -3.70000000 1.03145011 1.06743988
v -5.80000000 1.30577373 1.07570141
v -3.70000000 1.30577373 1.07570141
v -5.80000000 1.57321455 1.13732209
v -3.70000000 1.57321455 1.13732209
v -5.80000000 1.82349497 1.24993386
v -3.70000000 1.82349497 1.24993386
v -5.80000000 2.04699686 1.40920912
v -3.70000000 2.04699686 1.40920912
v -5.80000000 2.23513116 1.60902700
v -3.70000000 2.23513116 1.60902700
v -5.80000000 2.38066798 1.84170862
v -3.70000000 2.38066798 1.84170862
v -5.80000000 2.47801442 2.09831215
v -3.70000000 2.47801442 2.09831215
v -5.80000000 2.52342951 2.36897646
v -3.70000000 2.52342951 2.36897646
v -5.80000000 2.51516797 2.64330008
v -3.70000000 2.51516797 2.64330008
v -5.80000000 2.45354729 2.91074090
v -3.70000000 2.45354729 2.91074090
v -5.80000000 2.34093552 3.16102132
v -3.70000000 2.34093552 3.16102132
v -5.80000000 2.18166027 3.38452321
v -3.70000000 2.18166027 3.38452321
v -5.80000000 1.98184239 3.57265751
v -3.70000000 1.98184239 3.57265751
v -5.80000000 1.74916077 3.71819433
v -3.70000000 1.74916077 3.71819433
v -5.80000000 1.49255724 3.81554077
v -3.70000000 1.49255724 3.81554077
v -5.80000000 1.22189292 3.86095586
v -3.70000000 1.22189292 3.86095586
v -5.80000000 0.94756930 3.85269432
v -3.70000000 0.94756930 3.85269432
v 3.70000000 1.12667152 2.46419787
v 3.70000000 0.68012848 3.79107364
v 5.80000000 0.68012848 3.79107364
v 5.80000000 1.12667152 2.46419787
v 3.70000000 0.42984806 3.67846187
v 5.80000000 0.42984806 3.67846187
v 3.70000000 0.20634617 3.51918662
v 5.80000000 0.20634617 3.51918662
v 3.70000000 0.01821187 3.31936873
v 5.80000000 0.01821187 3.31936873
v 3.70000000 -0.12732495 3.08668712
v 5.80000000 -0.12732495 3.08668712
v 3.70000000 -0.22467139 2.83008359
v 5.80000000 -0.22467139 2.83008359
v 3.70000000 -0.27008647 2.55941927
v 5.80000000 -0.27008647 2.55941927
v 3.70000000 -0.26182494 2.28509565
v 5.80000000 -0.26182494 2.28509565
v 3.70000000 -0.20020426 2.01765483
v 5.80000000 -0.20020426 2.01765483
v 3.70000000 -0.08759249 1.76737441
v 5.80000000 -0.08759249 1.76737441
v 3.70000000 0.07168277 1.54387252
v 5.80000000 0.07168277 1.54387252
v 3.70000000 0.27150065 1.35573822
v 5.80000000 0.27150065 1.35573822
v 3.70000000 0.50418227 1.21020140
v 5.80000000 0.50418227 1.21020140
v 3.70000000 0.76078580 1.11285496
v 5.80000000 0.76078580 1.11285496
v 3.70000000 1.03145011 1.06743988
v 5.80000000 1.03145011 1.06743988
v 3.70000000 1.30577373 1.07570141
v 5.80000000 1.30577373 1.07570141
v 3.70000000 1.57321455 1.13732209
v 5.80000000 1.57321455 1.13732209
v 3.70000000 1.82349497 1.24993386
v 5.80000000 1.82349497 1.24993386
v 3.70000000 2.04699686 1.40920912
v 5.80000000 2.04699686 1.40920912
v 3.70000000 2.23513116 1.60902700
v 5.80000000 2.23513116 1.60902700
v 3.70000000 2.38066798 1.84170862
v 5.80000000 2.38066798 1.84170862
v 3.70000000 2.47801442 2.09831215
v 5.80000000 2.47801442 2.09831215
v 3.70000000 2.52342951 2.36897646
v 5.80000000 2.52342951 2.36897646
v 3.70000000 2.51516797 2.64330008
v 5.80000000 2.51516797 2.64330008
v 3.70000000 2.45354729 2.91074090
v 5.80000000 2.45354729 2.91074090
v 3.70000000 2.34093552 3.16102132
v 5.80000000 2.34093552 3.16102132
v 3.70000000 2.18166027 3.38452321
v 5.80000000 2.18166027 3.38452321
v 3.70000000 1.98184239 3.57265751
v 5.80000000 1.98184239 3.57265751
v 3.70000000 1.74916077 3.71819433
v 5.80000000 1.74916077 3.71819433
v 3.70000000 1.49255724 3.81554077
v 5.80000000 1.49255724 3.81554077
v 3.70000000 1.22189292 3.86095586
v 5.80000000 1.22189292 3.86095586
v 3.70000000 0.94756930 3.85269432
v 5.80000000 0.94756930 3.85269432
v -3.75000000 1.12667152 2.46419787
v -3.75000000 0.45685697 4.45451153
v 3.75000000 0.45685697 4.45451153
v 3.75000000 1.12667152 2.46419787
v -3.75000000 0.08143633 4.28559387
v 3.75000000 0.08143633 4.28559387
v -3.75000000 -0.25381650 4.04668099
v 3.75000000 -0.25381650 4.04668099
v -3.75000000 -0.53601795 3.74695417
v 3.75000000 -0.53601795 3.74695417
v -3.75000000 -0.75432318 3.39793174
v 3.75000000 -0.75432318 3.39793174
v -3.75000000 -0.90034284 3.01302645
v 3.75000000 -0.90034284 3.01302645
v -3.75000000 -0.96846547 2.60702998
v 3.75000000 -0.96846547 2.60702998
v -3.75000000 -0.95607316 2.19554455
v 3.75000000 -0.95607316 2.19554455
v -3.75000000 -0.86364214 1.79438332
v 3.75000000 -0.86364214 1.79438332
v -3.75000000 -0.69472449 1.41896268
v 3.75000000 -0.69472449 1.41896268
v -3.75000000 -0.45581161 1.08370985
v 3.75000000 -0.45581161 1.08370985
v -3.75000000 -0.15608479 0.80150840
v 3.75000000 -0.15608479 0.80150840
v -3.75000000 0.19293764 0.58320317
v 3.75000000 0.19293764 0.58320317
v -3.75000000 0.57784294 0.43718351
v 3.75000000 0.57784294 0.43718351
v -3.75000000 0.98383941 0.36906088
v 3.75000000 0.98383941 0.36906088
v -3.75000000 1.39532483 0.38145319
v 3.75000000 1.39532483 0.38145319
v -3.75000000 1.79648607 0.47388421
v 3.75000000 1.79648607 0.47388421
v -3.75000000 2.17190670 0.64280186
v 3.75000000 2.17190670 0.64280186
v -3.75000000 2.50715953 0.88171474
v 3.75000000 2.50715953 0.88171474
v -3.75000000 2.78936098 1.18144156
v 3.75000000 2.78936098 1.18144156
v -3.75000000 3.00766621 1.53046399
v 3.75000000 3.00766621 1.53046399
v -3.75000000 3.15368587 1.91536929
v 3.75000000 3.15368587 1.91536929
v -3.75000000 3.22180850 2.32136576
v 3.75000000 3.22180850 2.32136576
v -3.75000000 3.20941620 2.73285118
v 3.75000000 3.20941620 2.73285118
v -3.75000000 3.11698518 3.13401242
v 3.75000000 3.11698518 3.13401242
v -3.75000000 2.94806752 3.50943305
v 3.75000000 2.94806752 3.50943305
v -3.75000000 2.70915464 3.84468588
v 3.75000000 2.70915464 3.84468588
v -3.75000000 2.40942782 4.12688733
v 3.75000000 2.40942782 4.12688733
v -3.75000000 2.06040539 4.34519256
v 3.75000000 2.06040539 4.34519256
v -3.75000000 1.67550010 4.49121222
v 3.75000000 1.67550010 4.49121222
v -3.75000000 1.26950363 4.55933485
v 3.75000000 1.26950363 4.55933485
v -3.75000000 0.85801820 4.54694254
v 3.75000000 0.85801820 4.54694254
v -3.65000000 -2.67806640 5.93175744
v -3.65000000 -0.40251126 6.38103333
v -3.65000000 1.70319502 4.48223363
v -3.65000000 1.87153949 4.42765698
v -3.65000000 2.06040539 4.34519256
v -3.65000000 2.24027893 4.24461313
v -3.65000000 2.40942782 4.12688733
v -3.65000000 2.56622306 3.99314893
v -3.65000000 2.70915464 3.84468588
v -3.65000000 2.83684604 3.68292798
v -3.65000000 2.94806752 3.50943305
v -3.65000000 3.04174797 3.32587193
v -3.65000000 3.11698518 3.13401242
v -3.65000000 3.17305458 2.93570222
v -3.65000000 3.20941620 2.73285118
v -3.65000000 3.22571984 2.52741287
v -3.65000000 3.22180850 2.32136576
v -3.65000000 3.19771985 2.11669420
v -3.65000000 3.15368587 1.91536929
v -3.65000000 3.09013063 1.71932989
v -3.65000000 3.00766621 1.53046399
v -3.65000000 2.90708679 1.35059045
v -3.65000000 2.78936098 1.18144156
v -3.65000000 2.65562258 1.02464632
v -3.65000000 2.50715953 0.88171474
v -3.65000000 2.34540164 0.75402334
v -3.65000000 2.17190670 0.64280186
v -3.65000000 1.98834558 0.54912142
v -3.65000000 1.79648607 0.47388421
v -3.65000000 1.59817587 0.41781480
v -3.65000000 1.39532483 0.38145319
v -3.65000000 1.18988652 0.36514954
v -3.65000000 0.98383941 0.36906088
v -3.65000000 0.77916785 0.39314953
v -3.65000000 0.57784294 0.43718351
v -3.65000000 0.38180355 0.50073875
v -3.65000000 0.19293764 0.58320317
v -3.65000000 0.01306410 0.68378260
v -3.65000000 -0.15608479 0.80150840
v -3.65000000 -0.31288003 0.93524681
v -3.65000000 -0.45581161 1.08370985
v -3.65000000 -0.58350301 1.24546775
v -3.65000000 -0.69472449 1.41896268
v -3.65000000 -0.78840493 1.60252380
v -3.65000000 -0.86364214 1.79438332
v -3.65000000 -0.91971155 1.99269351
v -3.65000000 -0.95607316 2.19554455
v -3.65000000 -0.97237681 2.40098286
v -3.65000000 -0.96846547 2.60702998
v -3.65000000 -0.95422028 2.72806559
v -3.65000000 -2.38462636 2.86518069
v -2.65000000 -2.67806640 5.93175744
v -2.65000000 -0.40251126 6.38103333
v -2.65000000 1.70319502 4.48223363
v -2.65000000 1.87153949 4.42765698
v -2.65000000 2.06040539 4.34519256
v -2.65000000 2.24027893 4.24461313
v -2.65000000 2.40942782 4.12688733
v -2.65000000 2.56622306 3.99314893
v -2.65000000 2.70915464 3.84468588
v -2.65000000 2.83684604 3.68292798
v -2.65000000 2.94806752 3.50943305
v -2.65000000 3.04174797 3.32587193
v -2.65000000 3.11698518 3.13401242
v -2.65000000 3.17305458 2.93570222
v -2.65000000 3.20941620 2.73285118
v -2.65000000 3.22571984 2.52741287
v -2.65000000 3.22180850 2.32136576
v -2.65000000 3.19771985 2.11669420
v -2.65000000 3.15368587 1.91536929
v -2.65000000 3.09013063 1.71932989
v -2.65000000 3.00766621 1.53046399
v -2.65000000 2.90708679 1.35059045
v -2.65000000 2.78936098 1.18144156
v -2.65000000 2.65562258 1.02464632
v -2.65000000 2.50715953 0.88171474
v -2.65000000 2.34540164 0.75402334
v -2.65000000 2.17190670 0.64280186
v -2.65000000 1.98834558 0.54912142
v -2.65000000 1.79648607 0.47388421
v -2.65000000 1.59817587 0.41781480
v -2.65000000 1.39532483 0.38145319
v -2.65000000 1.18988652 0.36514954
v -2.65000000 0.98383941 0.36906088
v -2.65000000 0.77916785 0.39314953
v -2.65000000 0.57784294 0.43718351
v -2.65000000 0.38180355 0.50073875
v -2.65000000 0.19293764 0.58320317
v -2.65000000 0.01306410 0.68378260
v -2.65000000 -0.15608479 0.80150840
v -2.65000000 -0.31288003 0.93524681
v -2.65000000 -0.45581161 1.08370985
v -2.65000000 -0.58350301 1.24546775
v -2.65000000 -0.69472449 1.41896268
v -2.65000000 -0.78840493 1.60252380
v -2.65000000 -0.86364214 1.79438332
v -2.65000000 -0.91971155 1.99269351
v -2.65000000 -0.95607316 2.19554455
v -2.65000000 -0.97237681 2.40098286
v -2.65000000 -0.96846547 2.60702998
v -2.65000000 -0.95422028 2.72806559
v -2.65000000 -2.38462636 2.86518069
v 2.65000000 -2.67806640 5.93175744
v 2.65000000 -0.40251126 6.38103333
v 2.65000000 1.70319502 4.48223363
v 2.65000000 1.87153949 4.42765698
v 2.65000000 2.06040539 4.34519256
v 2.65000000 2.24027893 4.24461313
v 2.65000000 2.40942782 4.12688733
v 2.65000000 2.56622306 3.99314893
v 2.65000000 2.70915464 3.84468588
v 2.65000000 2.83684604 3.68292798
v 2.65000000 2.94806752 3.50943305
v 2.65000000 3.04174797 3.32587193
v 2.65000000 3.11698518 3.13401242
v 2.65000000 3.17305458 2.93570222
v 2.65000000 3.20941620 2.73285118
v 2.65000000 3.22571984 2.52741287
v 2.65000000 3.22180850 2.32136576
v 2.65000000 3.19771985 2.11669420
v 2.65000000 3.15368587 1.91536929
v 2.65000000 3.09013063 1.71932989
v 2.65000000 3.00766621 1.53046399
v 2.65000000 2.90708679 1.35059045
v 2.65000000 2.78936098 1.18144156
v 2.65000000 2.65562258 1.02464632
v 2.65000000 2.50715953 0.88171474
v 2.65000000 2.34540164 0.75402334
v 2.65000000 2.17190670 0.64280186
v 2.65000000 1.98834558 0.54912142
v 2.65000000 1.79648607 0.47388421
v 2.65000000 1.59817587 0.41781480
v 2.65000000 1.39532483 0.38145319
v 2.65000000 1.18988652 0.36514954
v 2.65000000 0.98383941 0.36906088
v 2.65000000 0.77916785 0.39314953
v 2.65000000 0.57784294 0.43718351
v 2.65000000 0.38180355 0.50073875
v 2.65000000 0.19293764 0.58320317
v 2.65000000 0.01306410 0.68378260
v 2.65000000 -0.15608479 0.80150840
v 2.65000000 -0.31288003 0.93524681
v 2.65000000 -0.45581161 1.08370985
v 2.65000000 -0.58350301 1.24546775
v 2.65000000 -0.69472449 1.41896268
v 2.65000000 -0.78840493 1.60252380
v 2.65000000 -0.86364214 1.79438332
v 2.65000000 -0.91971155 1.99269351
v 2.65000000 -0.95607316 2.19554455
v 2.65000000 -0.97237681 2.40098286
v 2.65000000 -0.96846547 2.60702998
v 2.65000000 -0.95422028 2.72806559
v 2.65000000 -2.38462636 2.86518069
v 3.65000000 -2.67806640 5.93175744
v 3.65000000 -0.40251126 6.38103333
v 3.65000000 1.70319502 4.48223363
v 3.65000000 1.87153949 4.42765698
v 3.65000000 2.06040539 4.34519256
v 3.65000000 2.24027893 4.24461313
v 3.65000000 2.40942782 4.12688733
v 3.65000000 2.56622306 3.99314893
v 3.65000000 2.70915464 3.84468588
v 3.65000000 2.83684604 3.68292798
v 3.65000000 2.94806752 3.50943305
v 3.65000000 3.04174797 3.32587193
v 3.65000000 3.11698518 3.13401242
v 3.65000000 3.17305458 2.93570222
v 3.65000000 3.20941620 2.73285118
v 3.65000000 3.22571984 2.52741287
v 3.65000000 3.22180850 2.32136576
v 3.65000000 3.19771985 2.11669420
v 3.65000000 3.15368587 1.91536929
v 3.65000000 3.09013063 1.71932989
v 3.65000000 3.00766621 1.53046399
v 3.65000000 2.90708679 1.35059045
v 3.65000000 2.78936098 1.18144156
v 3.65000000 2.65562258 1.02464632
v 3.65000000 2.50715953 0.88171474
v 3.65000000 2.34540164 0.75402334
v 3.65000000 2.17190670 0.64280186
v 3.65000000 1.98834558 0.54912142
v 3.65000000 1.79648607 0.47388421
v 3.65000000 1.59817587 0.41781480
v 3.65000000 1.39532483 0.38145319
v 3.65000000 1.18988652 0.36514954
v 3.65000000 0.98383941 0.36906088
v 3.65000000 0.77916785 0.39314953
v 3.65000000 0.57784294 0.43718351
v 3.65000000 0.38180355 0.50073875
v 3.65000000 0.19293764 0.58320317
v 3.65000000 0.01306410 0.68378260
v 3.65000000 -0.15608479 0.80150840
v 3.65000000 -0.31288003 0.93524681
v 3.65000000 -0.45581161 1.08370985
v 3.65000000 -0.58350301 1.24546775
v 3.65000000 -0.69472449 1.41896268
v 3.65000000 -0.78840493 1.60252380
v 3.65000000 -0.86364214 1.79438332
v 3.65000000 -0.91971155 1.99269351
v 3.65000000 -0.95607316 2.19554455
v 3.65000000 -0.97237681 2.40098286
v 3.65000000 -0.96846547 2.60702998
v 3.65000000 -0.95422028 2.72806559
v 3.65000000 -2.38462636 2.86518069
v -1.16600000 -1.43222919 2.66744820
v -1.16600000 -1.66685850 3.01029261
v -1.16600000 -1.88964229 3.35386289
v -1.16600000 -2.10058057 3.69815905
v -1.16600000 -2.29967332 4.04318109
v -1.16600000 -2.48692055 4.38892900
v -1.16600000 -2.66232227 4.73540278
v -1.16600000 -2.82587847 5.08260244
v -1.16600000 -2.97758914 5.43052797
v -1.16600000 -3.11745430 5.77917938
v -1.16600000 -3.24547394 6.12855666
v -1.16600000 -3.36164806 6.47865981
v -1.16600000 -3.46597666 6.82948884
v -1.16600000 -3.55845974 7.18104375
v -1.16600000 -3.63909730 7.53332452
v -1.16600000 -3.70788935 7.88633118
v -1.16600000 -3.76483587 8.24006370
v -1.16600000 -3.80993687 8.59452211
v -1.16600000 -3.84319236 8.94970638
v -1.16600000 -3.86460232 9.30561653
v -1.16600000 -3.87416677 9.66225256
v -1.16600000 -3.87188570 10.01961446
v -1.16600000 -3.85775911 10.37770223
v -1.16600000 -6.72839289 18.90761792
v -1.16600000 -6.75509261 19.00205135
v -1.16600000 -6.77240766 19.09864708
v -1.16600000 -6.78017130 19.19647485
v -1.16600000 -6.77830876 19.29459252
v -1.16600000 -6.76683797 19.39205517
v -1.16600000 -6.74586941 19.48792418
v -1.16600000 -6.71560501 19.58127627
v -1.16600000 -6.67633624 19.67121241
v -1.16600000 -6.62844128 19.75686648
v -1.16600000 -6.57238137 19.83741357
v -1.16600000 -6.50869641 19.91207797
v -1.16600000 -6.43799973 19.98014062
v -1.16600000 -6.36097216 20.04094605
v -1.16600000 -6.27835552 20.09390866
v -1.16600000 -6.19094546 20.13851840
v -1.16600000 -6.09958379 20.17434564
v -1.16600000 -6.00515036 20.20104536
v -1.16600000 -5.90855463 20.21836041
v -1.16600000 -5.81072686 20.22612405
v -1.16600000 -5.71260919 20.22426151
v -1.16600000 -5.61514654 20.21279072
v -1.16600000 -5.51927754 20.19182216
v -1.16600000 -5.42592545 20.16155776
v -1.16600000 -5.33598930 20.12228899
v -1.16600000 -5.25033524 20.07439403
v -1.16600000 -5.16978815 20.01833412
v -1.16600000 -5.09512374 19.95464917
v -1.16600000 -5.02706109 19.88395248
v -1.16600000 -4.96625566 19.80692491
v -1.16600000 -4.91329305 19.72430827
v -1.16600000 -4.86868331 19.63689821
v -1.16600000 -4.83285607 19.54553654
v -1.16600000 -1.96222229 11.01562085
v -1.16600000 -1.91983942 10.65182147
v -1.16600000 -1.86331692 10.29281724
v -1.16600000 -1.79265478 9.93860815
v -1.16600000 -1.70785301 9.58919421
v -1.16600000 -1.60891160 9.24457542
v -1.16600000 -1.49583057 8.90475178
v -1.16600000 -1.36860989 8.56972329
v -1.16600000 -1.22724959 8.23948995
v -1.16600000 -1.07174965 7.91405175
v -1.16600000 -0.90211007 7.59340871
v -1.16600000 -0.71833087 7.27756081
v -1.16600000 -0.52041202 6.96650806
v -1.16600000 -0.30835355 6.66025046
v -1.16600000 -0.08215544 6.35878800
v -1.16600000 0.15818230 6.06212070
v -1.16600000 0.41265968 5.77024854
v -1.16600000 0.68127669 5.48317153
v -1.16600000 0.96403334 5.20088967
v -1.16600000 1.26092962 4.92340296
v -1.16600000 1.57196553 4.65071139
v -1.16600000 1.82400654 4.44306699
v -1.16600000 1.87153949 4.42765698
v -1.16600000 2.06040539 4.34519256
v -1.16600000 2.24027893 4.24461313
v -1.16600000 2.40942782 4.12688733
v -1.16600000 2.56622306 3.99314893
v -1.16600000 2.70915464 3.84468588
v -1.16600000 2.82267048 3.70088541
v -1.16600000 2.95750552 3.60789662
v -1.16600000 2.90028076 3.58397586
v -1.16600000 2.94806752 3.50943305
v -1.16600000 3.04174797 3.32587193
v -1.16600000 3.11698518 3.13401242
v -1.16600000 3.17305458 2.93570222
v -1.16600000 3.20941620 2.73285118
v -1.16600000 3.22571984 2.52741287
v -1.16600000 3.22180850 2.32136576
v -1.16600000 3.19771985 2.11669420
v -1.16600000 3.15368587 1.91536929
v -1.16600000 3.09013063 1.71932989
v -1.16600000 3.00766621 1.53046399
v -1.16600000 2.90708679 1.35059045
v -1.16600000 2.78936098 1.18144156
v -1.16600000 2.65562258 1.02464632
v -1.16600000 2.50715953 0.88171474
v -1.16600000 2.34540164 0.75402334
v -1.16600000 2.17190670 0.64280186
v -1.16600000 1.98834558 0.54912142
v -1.16600000 1.79648607 0.47388421
v -1.16600000 1.59817587 0.41781480
v -1.16600000 1.39532483 0.38145319
v -1.16600000 1.18988652 0.36514954
v -1.16600000 0.98383941 0.36906088
v -1.16600000 0.77916785 0.39314953
v -1.16600000 0.57784294 0.43718351
v -1.16600000 0.38180355 0.50073875
v -1.16600000 0.19293764 0.58320317
v -1.16600000 0.01306410 0.68378260
v -1.16600000 -0.15608479 0.80150840
v -1.16600000 -0.31288003 0.93524681
v -1.16600000 -0.45581161 1.08370985
v -1.16600000 -0.58350301 1.24546775
v -1.16600000 -0.69472449 1.41896268
v -1.16600000 -0.78840493 1.60252380
v -1.16600000 -0.86364214 1.79438332
v -1.16600000 -0.91831368 1.98774943
v -1.16600000 -0.92743401 1.98393700
v -1.16600000 -1.18575436 2.32532966
v 3.23400000 -1.43222919 2.66744820
v 3.23400000 -1.66685850 3.01029261
v 3.23400000 -1.88964229 3.35386289
v 3.23400000 -2.10058057 3.69815905
v 3.23400000 -2.29967332 4.04318109
v 3.23400000 -2.48692055 4.38892900
v 3.23400000 -2.66232227 4.73540278
v 3.23400000 -2.82587847 5.08260244
v 3.23400000 -2.97758914 5.43052797
v 3.23400000 -3.11745430 5.77917938
v 3.23400000 -3.24547394 6.12855666
v 3.23400000 -3.36164806 6.47865981
v 3.23400000 -3.46597666 6.82948884
v 3.23400000 -3.55845974 7.18104375
v 3.23400000 -3.63909730 7.53332452
v 3.23400000 -3.70788935 7.88633118
v 3.23400000 -3.76483587 8.24006370
v 3.23400000 -3.80993687 8.59452211
v 3.23400000 -3.84319236 8.94970638
v 3.23400000 -3.86460232 9.30561653
v 3.23400000 -3.87416677 9.66225256
v 3.23400000 -3.87188570 10.01961446
v 3.23400000 -3.85775911 10.37770223
v 3.23400000 -6.72839289 18.90761792
v 3.23400000 -6.75509261 19.00205135
v 3.23400000 -6.77240766 19.09864708
v 3.23400000 -6.78017130 19.19647485
v 3.23400000 -6.77830876 19.29459252
v 3.23400000 -6.76683797 19.39205517
v 3.23400000 -6.74586941 19.48792418
v 3.23400000 -6.71560501 19.58127627
v 3.23400000 -6.67633624 19.67121241
v 3.23400000 -6.62844128 19.75686648
v 3.23400000 -6.57238137 19.83741357
v 3.23400000 -6.50869641 19.91207797
v 3.23400000 -6.43799973 19.98014062
v 3.23400000 -6.36097216 20.04094605
v 3.23400000 -6.27835552 20.09390866
v 3.23400000 -6.19094546 20.13851840
v 3.23400000 -6.09958379 20.17434564
v 3.23400000 -6.00515036 20.20104536
v 3.23400000 -5.90855463 20.21836041
v 3.23400000 -5.81072686 20.22612405
v 3.23400000 -5.71260919 20.22426151
v 3.23400000 -5.61514654 20.21279072
v 3.23400000 -5.51927754 20.19182216
v 3.23400000 -5.42592545 20.16155776
v 3.23400000 -5.33598930 20.12228899
v 3.23400000 -5.25033524 20.07439403
v 3.23400000 -5.16978815 20.01833412
v 3.23400000 -5.09512374 19.95464917
v 3.23400000 -5.02706109 19.88395248
v 3.23400000 -4.96625566 19.80692491
v 3.23400000 -4.91329305 19.72430827
v 3.23400000 -4.86868331 19.63689821
v 3.23400000 -4.83285607 19.54553654
v 3.23400000 -1.96222229 11.01562085
v 3.23400000 -1.91983942 10.65182147
v 3.23400000 -1.86331692 10.29281724
v 3.23400000 -1.79265478 9.93860815
v 3.23400000 -1.70785301 9.58919421
v 3.23400000 -1.60891160 9.24457542
v 3.23400000 -1.49583057 8.90475178
v 3.23400000 -1.36860989 8.56972329
v 3.23400000 -1.22724959 8.23948995
v 3.23400000 -1.07174965 7.91405175
v 3.23400000 -0.90211007 7.59340871
v 3.23400000 -0.71833087 7.27756081
v 3.23400000 -0.52041202 6.96650806
v 3.23400000 -0.30835355 6.66025046
v 3.23400000 -0.08215544 6.35878800
v 3.23400000 0.15818230 6.06212070
v 3.23400000 0.41265968 5.77024854
v 3.23400000 0.68127669 5.48317153
v 3.23400000 0.96403334 5.20088967
v 3.23400000 1.26092962 4.92340296
v 3.23400000 1.57196553 4.65071139
v 3.23400000 1.82400654 4.44306699
v 3.23400000 1.87153949 4.42765698
v 3.23400000 2.06040539 4.34519256
v 3.23400000 2.24027893 4.24461313
v 3.23400000 2.40942782 4.12688733
v 3.23400000 2.56622306 3.99314893
v 3.23400000 2.70915464 3.84468588
v 3.23400000 2.82267048 3.70088541
v 3.23400000 2.95750552 3.60789662
v 3.23400000 2.90028076 3.58397586
v 3.23400000 2.94806752 3.50943305
v 3.23400000 3.04174797 3.32587193
v 3.23400000 3.11698518 3.13401242
v 3.23400000 3.17305458 2.93570222
v 3.23400000 3.20941620 2.73285118
v 3.23400000 3.22571984 2.52741287
v 3.23400000 3.22180850 2.32136576
v 3.23400000 3.19771985 2.11669420
v 3.23400000 3.15368587 1.91536929
v 3.23400000 3.09013063 1.71932989
v 3.23400000 3.00766621 1.53046399
v 3.23400000 2.90708679 1.35059045
v 3.23400000 2.78936098 1.18144156
v 3.23400000 2.65562258 1.02464632
v 3.23400000 2.50715953 0.88171474
v 3.23400000 2.34540164 0.75402334
v 3.23400000 2.17190670 0.64280186
v 3.23400000 1.98834558 0.54912142
v 3.23400000 1.79648607 0.47388421
v 3.23400000 1.59817587 0.41781480
v 3.23400000 1.39532483 0.38145319
v 3.23400000 1.18988652 0.36514954
v 3.23400000 0.98383941 0.36906088
v 3.23400000 0.77916785 0.39314953
v 3.23400000 0.57784294 0.43718351
v 3.23400000 0.38180355 0.50073875
v 3.23400000 0.19293764 0.58320317
v 3.23400000 0.01306410 0.68378260
v 3.23400000 -0.15608479 0.80150840
v 3.23400000 -0.31288003 0.93524681
v 3.23400000 -0.45581161 1.08370985
v 3.23400000 -0.58350301 1.24546775
v 3.23400000 -0.69472449 1.41896268
v 3.23400000 -0.78840493 1.60252380
v 3.23400000 -0.86364214 1.79438332
v 3.23400000 -0.91831368 1.98774943
v 3.23400000 -0.92743401 1.98393700
v 3.23400000 -1.18575436 2.32532966
v -3.65000000 -2.26341930 4.69965850
v -3.65000000 -0.92379020 0.71903118
v -3.65000000 2.86728344 1.99486842
v -3.65000000 1.52765434 5.97549574
v 3.65000000 -2.26341930 4.69965850
v 3.65000000 -0.92379020 0.71903118
v 3.65000000 2.86728344 1.99486842
v 3.65000000 1.52765434 5.97549574
v -3.75000000 1.79648607 0.47388421
v -3.75000000 1.59817587 0.41781480
v -3.75000000 1.39532483 0.38145319
v -3.75000000 1.18988652 0.36514954
v -3.75000000 0.98383941 0.36906088
v -3.75000000 0.77916785 0.39314953
v -3.75000000 0.57784294 0.43718351
v -3.75000000 0.38180355 0.50073875
v -3.75000000 0.19293764 0.58320317
v -3.75000000 0.01306410 0.68378260
v -3.75000000 -0.15608479 0.80150840
v -3.75000000 -0.31288003 0.93524681
v -3.75000000 -0.45581161 1.08370985
v -3.75000000 -0.58350301 1.24546775
v -3.75000000 -0.69472449 1.41896268
v -3.75000000 -0.78840493 1.60252380
v -3.75000000 -0.86364214 1.79438332
v -3.75000000 -0.91971155 1.99269351
v -3.75000000 -0.95607316 2.19554455
v -3.75000000 -0.97237681 2.40098286
v -3.75000000 -0.96846547 2.60702998
v -3.75000000 -0.94437682 2.81170154
v -3.75000000 -0.90034284 3.01302645
v -3.75000000 -0.83678760 3.20906584
v -3.75000000 -0.75432318 3.39793174
v -3.75000000 -0.65374375 3.57780528
v -3.75000000 -0.53601795 3.74695417
v -3.75000000 -0.40227954 3.90374941
v -3.75000000 -0.25381650 4.04668099
v -3.75000000 -0.09205860 4.17437239
v -3.75000000 0.08143633 4.28559387
v -3.75000000 0.26499745 4.37927432
v -3.75000000 0.45685697 4.45451153
v -3.75000000 0.65516716 4.51058093
v -3.75000000 0.85801820 4.54694254
v -3.75000000 1.06345652 4.56324619
v -3.75000000 1.26950363 4.55933485
v -3.75000000 1.47417519 4.53524620
v -3.75000000 1.57577664 4.51302383
v -3.75000000 1.75092586 5.31205785
v -3.75000000 3.29894745 10.99251296
v -3.75000000 5.79413030 12.04325677
v -3.75000000 6.78017130 10.05385406
v -3.75000000 4.29227607 6.47329861
v -3.75000000 3.10141125 3.17372688
v -3.75000000 3.11698518 3.13401242
v -3.75000000 3.17305458 2.93570222
v -3.75000000 3.20941620 2.73285118
v -3.75000000 3.22571984 2.52741287
v -3.75000000 3.22180850 2.32136576
v -3.75000000 3.19771985 2.11669420
v -3.75000000 3.15368587 1.91536929
v -3.75000000 3.09013063 1.71932989
v -3.75000000 3.00766621 1.53046399
v -3.75000000 2.90708679 1.35059045
v -3.75000000 2.78936098 1.18144156
v -3.75000000 2.65562258 1.02464632
v -3.75000000 2.50715953 0.88171474
v -3.75000000 2.34540164 0.75402334
v -3.75000000 2.19279559 0.65619299
v -3.75000000 1.95596572 0.00000000
v -1.05000000 1.79648607 0.47388421
v -1.05000000 1.59817587 0.41781480
v -1.05000000 1.39532483 0.38145319
v -1.05000000 1.18988652 0.36514954
v -1.05000000 0.98383941 0.36906088
v -1.05000000 0.77916785 0.39314953
v -1.05000000 0.57784294 0.43718351
v -1.05000000 0.38180355 0.50073875
v -1.05000000 0.19293764 0.58320317
v -1.05000000 0.01306410 0.68378260
v -1.05000000 -0.15608479 0.80150840
v -1.05000000 -0.31288003 0.93524681
v -1.05000000 -0.45581161 1.08370985
v -1.05000000 -0.58350301 1.24546775
v -1.05000000 -0.69472449 1.41896268
v -1.05000000 -0.78840493 1.60252380
v -1.05000000 -0.86364214 1.79438332
v -1.05000000 -0.91971155 1.99269351
v -1.05000000 -0.95607316 2.19554455
v -1.05000000 -0.97237681 2.40098286
v -1.05000000 -0.96846547 2.60702998
v -1.05000000 -0.94437682 2.81170154
v -1.05000000 -0.90034284 3.01302645
v -1.05000000 -0.83678760 3.20906584
v -1.05000000 -0.75432318 3.39793174
v -1.05000000 -0.65374375 3.57780528
v -1.05000000 -0.53601795 3.74695417
v -1.05000000 -0.40227954 3.90374941
v -1.05000000 -0.25381650 4.04668099
v -1.05000000 -0.09205860 4.17437239
v -1.05000000 0.08143633 4.28559387
v -1.05000000 0.26499745 4.37927432
v -1.05000000 0.45685697 4.45451153
v -1.05000000 0.65516716 4.51058093
v -1.05000000 0.85801820 4.54694254
v -1.05000000 1.06345652 4.56324619
v -1.05000000 1.26950363 4.55933485
v -1.05000000 1.47417519 4.53524620
v -1.05000000 1.57577664 4.51302383
v -1.05000000 1.75092586 5.31205785
v -1.05000000 3.29894745 10.99251296
v -1.05000000 5.79413030 12.04325677
v -1.05000000 6.78017130 10.05385406
v -1.05000000 4.29227607 6.47329861
v -1.05000000 3.10141125 3.17372688
v -1.05000000 3.11698518 3.13401242
v -1.05000000 3.17305458 2.93570222
v -1.05000000 3.20941620 2.73285118
v -1.05000000 3.22571984 2.52741287
v -1.05000000 3.22180850 2.32136576
v -1.05000000 3.19771985 2.11669420
v -1.05000000 3.15368587 1.91536929
v -1.05000000 3.09013063 1.71932989
v -1.05000000 3.00766621 1.53046399
v -1.05000000 2.90708679 1.35059045
v -1.05000000 2.78936098 1.18144156
v -1.05000000 2.65562258 1.02464632
v -1.05000000 2.50715953 0.88171474
v -1.05000000 2.34540164 0.75402334
v -1.05000000 2.19279559 0.65619299
v -1.05000000 1.95596572 0.00000000
f 2 1 5
f 2 5 3
f 3 5 6
f 3 6 4
f 5 1 7
f 5 7 6
f 6 7 8
f 6 8 4
f 7 1 9
f 7 9 8
f 8 9 10
f 8 10 4
f 9 1 11
f 9 11 10
f 10 11 12
f 10 12 4
f 11 1 13
f 11 13 12
f 12 13 14
f 12 14 4
f 13 1 15
f 13 15 14
f 14 15 16
f 14 16 4
f 15 1 17
f 15 17 16
f 16 17 18
f 16 18 4
f 17 1 19
f 17 19 18
f 18 19 20
f 18 20 4
f 19 1 21
f 19 21 20
f 20 21 22
f 20 22 4
f 21 1 23
f 21 23 22
f 22 23 24
f 22 24 4
f 23 1 25
f 23 25 24
f 24 25 26
f 24 26 4
f 25 1 27
f 25 27 26
f 26 27 28
f 26 28 4
f 27 1 29
f 27 29 28
f 28 29 30
f 28 30 4
f 29 1 31
f 29 31 30
f 30 31 32
f 30 32 4
f 31 1 33
f 31 33 32
f 32 33 34
f 32 34 4
f 33 1 35
f 33 35 34
f 34 35 36
f 34 36 4
f 35 1 37
f 35 37 36
f 36 37 38
f 36 38 4
f 37 1 39
f 37 39 38
f 38 39 40
f 38 40 4
f 39 1 41
f 39 41 40
f 40 41 42
f 40 42 4
f 41 1 43
f 41 43 42
f 42 43 44
f 42 44 4
f 43 1 45
f 43 45 44
f 44 45 46
f 44 46 4
f 45 1 47
f 45 47 46
f 46 47 48
f 46 48 4
f 47 1 49
f 47 49 48
f 48 49 50
f 48 50 4
f 49 1 51
f 49 51 50
f 50 51 52
f 50 52 4
f 51 1 53
f 51 53 52
f 52 53 54
f 52 54 4
f 53 1 55
f 53 55 54
f 54 55 56
f 54 56 4
f 55 1 57
f 55 57 56
f 56 57 58
f 56 58 4
f 57 1 59
f 57 59 58
f 58 59 60
f 58 60 4
f 59 1 61
f 59 61 60
f 60 61 62
f 60 62 4
f 61 1 63
f 61 63 62
f 62 63 64
f 62 64 4
f 63 1 65
f 63 65 64
f 64 65 66
f 64 66 4
f 65 1 2
f 65 2 66
f 66 2 3
f 66 3 4
f 68 67 71
f 68 71 69
f 69 71 72
f 69 72 70
f 71 67 73
f 71 73 72
f 72 73 74
f 72 74 70
f 73 67 75
f 73 75 74
f 74 75 76
f 74 76 70
f 75 67 77
f 75 77 76
f 76 77 78
f 76 78 70
f 77 67 79
f 77 79 78
f 78 79 80
f 78 80 70
f 79 67 81
f 79 81 80
f 80 81 82
f 80 82 70
f 81 67 83
f 81 83 82
f 82 83 84
f 82 84 70
f 83 67 85
f 83 85 84
f 84 85 86
f 84 86 70
f 85 67 87
f 85 87 86
f 86 87 88
f 86 88 70
f 87 67 89
f 87 89 88
f 88 89 90
f 88 90 70
f 89 67 91
f 89 91 90
f 90 91 92
f 90 92 70
f 91 67 93
f 91 93 92
f 92 93 94
f 92 94 70
f 93 67 95
f 93 95 94
f 94 95 96
f 94 96 70
f 95 67 97
f 95 97 96
f 96 97 98
f 96 98 70
f 97 67 99
f 97 99 98
f 98 99 100
f 98 100 70
f 99 67 101
f 99 101 100
f 100 101 102
f 100 102 70
f 101 67 103
f 101 103 102
f 102 103 104
f 102 104 70
f 103 67 105
f 103 105 104
f 104 105 106
f 104 106 70
f 105 67 107
f 105 107 106
f 106 107 108
f 106 108 70
f 107 67 109
f 107 109 108
f 108 109 110
f 108 110 70
f 109 67 111
f 109 111 110
f 110 111 112
f 110 112 70
f 111 67 113
f 111 113 112
f 112 113 114
f 112 114 70
f 113 67 115
f 113 115 114
f 114 115 116
f 114 116 70
f 115 67 117
f 115 117 116
f 116 117 118
f 116 118 70
f 117 67 119
f 117 119 118
f 118 119 120
f 118 120 70
f 119 67 121
f 119 121 120
f 120 121 122
f 120 122 70
f 121 67 123
f 121 123 122
f 122 123 124
f 122 124 70
f 123 67 125
f 123 125 124
f 124 125 126
f 124 126 70
f 125 67 127
f 125 127 126
f 126 127 128
f 126 128 70
f 127 67 129
f 127 129 128
f 128 129 130
f 128 130 70
f 129 67 131
f 129 131 130
f 130 131 132
f 130 132 70
f 131 67 68
f 131 68 132
f 132 68 69
f 132 69 70
f 134 133 137
f 134 137 135
f 135 137 138
f 135 138 136
f 137 133 139
f 137 139 138
f 138 139 140
f 138 140 136
f 139 133 141
f 139 141 140
f 140 141 142
f 140 142 136
f 141 133 143
f 141 143 142
f 142 143 144
f 142 144 136
f 143 133 145
f 143 145 144
f 144 145 146
f 144 146 136
f 145 133 147
f 145 147 146
f 146 147 148
f 146 148 136
f 147 133 149
f 147 149 148
f 148 149 150
f 148 150 136
f 149 133 151
f 149 151 150
f 150 151 152
f 150 152 136
f 151 133 153
f 151 153 152
f 152 153 154
f 152 154 136
f 153 133 155
f 153 155 154
f 154 155 156
f 154 156 136
f 155 133 157
f 155 157 156
f 156 157 158
f 156 158 136
f 157 133 159
f 157 159 158
f 158 159 160
f 158 160 136
f 159 133 161
f 159 161 160
f 160 161 162
f 160 162 136
f 161 133 163
f 161 163 162
f 162 163 164
f 162 164 136
f 163 133 165
f 163 165 164
f 164 165 166
f 164 166 136
f 165 133 167
f 165 167 166
f 166 167 168
f 166 168 136
f 167 133 169
f 167 169 168
f 168 169 170
f 168 170 136
f 169 133 171
f 169 171 170
f 170 171 172
f 170 172 136
f 171 133 173
f 171 173 172
f 172 173 174
f 172 174 136
f 173 133 175
f 173 175 174
f 174 175 176
f 174 176 136
f 175 133 177
f 175 177 176
f 176 177 178
f 176 178 136
f 177 133 179
f 177 179 178
f 178 179 180
f 178 180 136
f 179 133 181
f 179 181 180
f 180 181 182
f 180 182 136
f 181 133 183
f 181 183 182
f 182 183 184
f 182 184 136
f 183 133 185
f 183 185 184
f 184 185 186
f 184 186 136
f 185 133 187
f 185 187 186
f 186 187 188
f 186 188 136
f 187 133 189
f 187 189 188
f 188 189 190
f 188 190 136
f 189 133 191
f 189 191 190
f 190 191 192
f 190 192 136
f 191 133 193
f 191 193 192
f 192 193 194
f 192 194 136
f 193 133 195
f 193 195 194
f 194 195 196
f 194 196 136
f 195 133 197
f 195 197 196
f 196 197 198
f 196 198 136
f 197 133 134
f 197 134 198
f 198 134 135
f 198 135 136
f 248 249 199
f 246 247 248
f 244 245 246
f 242 243 244
f 240 241 242
f 238 239 240
f 236 237 238
f 234 235 236
f 232 233 234
f 230 231 232
f 228 229 230
f 226 227 228
f 224 225 226
f 222 223 224
f 220 221 222
f 218 219 220
f 216 217 218
f 214 215 216
f 212 213 214
f 210 211 212
f 208 209 210
f 206 207 208
f 204 205 206
f 202 203 204
f 199 200 201
f 244 246 248
f 240 242 244
f 236 238 240
f 232 234 236
f 228 230 232
f 224 226 228
f 220 222 224
f 216 218 220
f 212 214 216
f 208 210 212
f 204 206 208
f 201 202 204
f 248 199 201
f 240 244 248
f 232 236 240
f 224 228 232
f 216 220 224
f 208 212 216
f 201 204 208
f 240 248 201
f 224 232 240
f 208 216 224
f 240 201 208
f 208 224 240
f 250 300 299
f 299 298 297
f 297 296 295
f 295 294 293
f 293 292 291
f 291 290 289
f 289 288 287
f 287 286 285
f 285 284 283
f 283 282 281
f 281 280 279
f 279 278 277
f 277 276 275
f 275 274 273
f 273 272 271
f 271 270 269
f 269 268 267
f 267 266 265
f 265 264 263
f 263 262 261
f 261 260 259
f 259 258 257
f 257 256 255
f 255 254 253
f 252 251 250
f 299 297 295
f 295 293 291
f 291 289 287
f 287 285 283
f 283 281 279
f 279 277 275
f 275 273 271
f 271 269 267
f 267 265 263
f 263 261 259
f 259 257 255
f 255 253 252
f 252 250 299
f 299 295 291
f 291 287 283
f 283 279 275
f 275 271 267
f 267 263 259
f 259 255 252
f 252 299 291
f 291 283 275
f 275 267 259
f 259 252 291
f 291 275 259
f 250 251 199
f 199 251 200
f 251 252 200
f 200 252 201
f 252 253 201
f 201 253 202
f 253 254 202
f 202 254 203
f 254 255 203
f 203 255 204
f 255 256 204
f 204 256 205
f 256 257 205
f 205 257 206
f 257 258 206
f 206 258 207
f 258 259 207
f 207 259 208
f 259 260 208
f 208 260 209
f 260 261 209
f 209 261 210
f 261 262 210
f 210 262 211
f 262 263 211
f 211 263 212
f 263 264 212
f 212 264 213
f 264 265 213
f 213 265 214
f 265 266 214
f 214 266 215
f 266 267 215
f 215 267 216
f 267 268 216
f 216 268 217
f 268 269 217
f 217 269 218
f 269 270 218
f 218 270 219
f 270 271 219
f 219 271 220
f 271 272 220
f 220 272 221
f 272 273 221
f 221 273 222
f 273 274 222
f 222 274 223
f 274 275 223
f 223 275 224
f 275 276 224
f 224 276 225
f 276 277 225
f 225 277 226
f 277 278 226
f 226 278 227
f 278 279 227
f 227 279 228
f 279 280 228
f 228 280 229
f 280 281 229
f 229 281 230
f 281 282 230
f 230 282 231
f 282 283 231
f 231 283 232
f 283 284 232
f 232 284 233
f 284 285 233
f 233 285 234
f 285 286 234
f 234 286 235
f 286 287 235
f 235 287 236
f 287 288 236
f 236 288 237
f 288 289 237
f 237 289 238
f 289 290 238
f 238 290 239
f 290 291 239
f 239 291 240
f 291 292 240
f 240 292 241
f 292 293 241
f 241 293 242
f 293 294 242
f 242 294 243
f 294 295 243
f 243 295 244
f 295 296 244
f 244 296 245
f 296 297 245
f 245 297 246
f 297 298 246
f 246 298 247
f 298 299 247
f 247 299 248
f 300 250 249
f 249 250 199
f 299 300 248
f 248 300 249
f 350 351 301
f 348 349 350
f 346 347 348
f 344 345 346
f 342 343 344
f 340 341 342
f 338 339 340
f 336 337 338
f 334 335 336
f 332 333 334
f 330 331 332
f 328 329 330
f 326 327 328
f 324 325 326
f 322 323 324
f 320 321 322
f 318 319 320
f 316 317 318
f 314 315 316
f 312 313 314
f 310 311 312
f 308 309 310
f 306 307 308
f 304 305 306
f 301 302 303
f 346 348 350
f 342 344 346
f 338 340 342
f 334 336 338
f 330 332 334
f 326 328 330
f 322 324 326
f 318 320 322
f 314 316 318
f 310 312 314
f 306 308 310
f 303 304 306
f 350 301 303
f 342 346 350
f 334 338 342
f 326 330 334
f 318 322 326
f 310 314 318
f 303 306 310
f 342 350 303
f 326 334 342
f 310 318 326
f 342 303 310
f 310 326 342
f 352 402 401
f 401 400 399
f 399 398 397
f 397 396 395
f 395 394 393
f 393 392 391
f 391 390 389
f 389 388 387
f 387 386 385
f 385 384 383
f 383 382 381
f 381 380 379
f 379 378 377
f 377 376 375
f 375 374 373
f 373 372 371
f 371 370 369
f 369 368 367
f 367 366 365
f 365 364 363
f 363 362 361
f 361 360 359
f 359 358 357
f 357 356 355
f 354 353 352
f 401 399 397
f 397 395 393
f 393 391 389
f 389 387 385
f 385 383 381
f 381 379 377
f 377 375 373
f 373 371 369
f 369 367 365
f 365 363 361
f 361 359 357
f 357 355 354
f 354 352 401
f 401 397 393
f 393 389 385
f 385 381 377
f 377 373 369
f 369 365 361
f 361 357 354
f 354 401 393
f 393 385 377
f 377 369 361
f 361 354 393
f 393 377 361
f 352 353 301
f 301 353 302
f 353 354 302
f 302 354 303
f 354 355 303
f 303 355 304
f 355 356 304
f 304 356 305
f 356 357 305
f 305 357 306
f 357 358 306
f 306 358 307
f 358 359 307
f 307 359 308
f 359 360 308
f 308 360 309
f 360 361 309
f 309 361 310
f 361 362 310
f 310 362 311
f 362 363 311
f 311 363 312
f 363 364 312
f 312 364 313
f 364 365 313
f 313 365 314
f 365 366 314
f 314 366 315
f 366 367 315
f 315 367 316
f 367 368 316
f 316 368 317
f 368 369 317
f 317 369 318
f 369 370 318
f 318 370 319
f 370 371 319
f 319 371 320
f 371 372 320
f 320 372 321
f 372 373 321
f 321 373 322
f 373 374 322
f 322 374 323
f 374 375 323
f 323 375 324
f 375 376 324
f 324 376 325
f 376 377 325
f 325 377 326
f 377 378 326
f 326 378 327
f 378 379 327
f 327 379 328
f 379 380 328
f 328 380 329
f 380 381 329
f 329 381 330
f 381 382 330
f 330 382 331
f 382 383 331
f 331 383 332
f 383 384 332
f 332 384 333
f 384 385 333
f 333 385 334
f 385 386 334
f 334 386 335
f 386 387 335
f 335 387 336
f 387 388 336
f 336 388 337
f 388 389 337
f 337 389 338
f 389 390 338
f 338 390 339
f 390 391 339
f 339 391 340
f 391 392 340
f 340 392 341
f 392 393 341
f 341 393 342
f 393 394 342
f 342 394 343
f 394 395 343
f 343 395 344
f 395 396 344
f 344 396 345
f 396 397 345
f 345 397 346
f 397 398 346
f 346 398 347
f 398 399 347
f 347 399 348
f 399 400 348
f 348 400 349
f 400 401 349
f 349 401 350
f 402 352 351
f 351 352 301
f 401 402 350
f 350 402 351
f 526 527 403
f 523 524 525
f 521 522 523
f 519 520 521
f 517 518 519
f 515 516 517
f 513 514 515
f 511 512 513
f 509 510 511
f 507 508 509
f 505 506 507
f 503 504 505
f 501 502 503
f 499 500 501
f 497 498 499
f 495 496 497
f 493 494 495
f 491 492 493
f 489 490 491
f 487 488 489
f 485 486 487
f 483 484 485
f 481 482 483
f 458 459 460
f 456 457 458
f 454 455 456
f 452 453 454
f 450 451 452
f 448 449 450
f 446 447 448
f 444 445 446
f 442 443 444
f 440 441 442
f 438 439 440
f 436 437 438
f 434 435 436
f 432 433 434
f 430 431 432
f 428 429 430
f 426 427 428
f 423 424 425
f 421 422 423
f 419 420 421
f 417 418 419
f 415 416 417
f 413 414 415
f 411 412 413
f 409 410 411
f 407 408 409
f 405 406 407
f 403 404 405
f 525 526 403
f 521 523 525
f 517 519 521
f 513 515 517
f 509 511 513
f 505 507 509
f 501 503 505
f 497 499 501
f 493 495 497
f 489 491 493
f 485 487 489
f 481 483 485
f 458 460 461
f 454 456 458
f 450 452 454
f 446 448 450
f 442 444 446
f 438 440 442
f 434 436 438
f 430 432 434
f 426 428 430
f 421 423 425
f 417 419 421
f 413 415 417
f 409 411 413
f 405 407 409
f 525 403 405
f 517 521 525
f 509 513 517
f 501 505 509
f 493 497 501
f 485 489 493
f 480 481 485
f 458 461 462
f 450 454 458
f 442 446 450
f 434 438 442
f 426 430 434
f 417 421 425
f 409 413 417
f 525 405 409
f 509 517 525
f 493 501 509
f 480 485 493
f 458 462 463
f 442 450 458
f 426 434 442
f 409 417 425
f 509 525 409
f 480 493 509
f 458 463 464
f 426 442 458
f 509 409 425
f 479 480 509
f 426 458 464
f 509 425 426
f 478 479 509
f 426 464 465
f 477 478 509
f 426 465 466
f 476 477 509
f 426 466 467
f 475 476 509
f 426 467 468
f 474 475 509
f 509 426 468
f 473 474 509
f 509 468 469
f 472 473 509
f 509 469 470
f 471 472 509
f 509 470 471
f 528 652 651
f 650 649 648
f 648 647 646
f 646 645 644
f 644 643 642
f 642 641 640
f 640 639 638
f 638 637 636
f 636 635 634
f 634 633 632
f 632 631 630
f 630 629 628
f 628 627 626
f 626 625 624
f 624 623 622
f 622 621 620
f 620 619 618
f 618 617 616
f 616 615 614
f 614 613 612
f 612 611 610
f 610 609 608
f 608 607 606
f 585 584 583
f 583 582 581
f 581 580 579
f 579 578 577
f 577 576 575
f 575 574 573
f 573 572 571
f 571 570 569
f 569 568 567
f 567 566 565
f 565 564 563
f 563 562 561
f 561 560 559
f 559 558 557
f 557 556 555
f 555 554 553
f 553 552 551
f 550 549 548
f 548 547 546
f 546 545 544
f 544 543 542
f 542 541 540
f 540 539 538
f 538 537 536
f 536 535 534
f 534 533 532
f 532 531 530
f 530 529 528
f 528 651 650
f 650 648 646
f 646 644 642
f 642 640 638
f 638 636 634
f 634 632 630
f 630 628 626
f 626 624 622
f 622 620 618
f 618 616 614
f 614 612 610
f 610 608 606
f 586 585 583
f 583 581 579
f 579 577 575
f 575 573 571
f 571 569 567
f 567 565 563
f 563 561 559
f 559 557 555
f 555 553 551
f 550 548 546
f 546 544 542
f 542 540 538
f 538 536 534
f 534 532 530
f 530 528 650
f 650 646 642
f 642 638 634
f 634 630 626
f 626 622 618
f 618 614 610
f 610 606 605
f 587 586 583
f 583 579 575
f 575 571 567
f 567 563 559
f 559 555 551
f 550 546 542
f 542 538 534
f 534 530 650
f 650 642 634
f 634 626 618
f 618 610 605
f 588 587 583
f 583 575 567
f 567 559 551
f 550 542 534
f 534 650 634
f 634 618 605
f 589 588 583
f 583 567 551
f 550 534 634
f 634 605 604
f 589 583 551
f 551 550 634
f 634 604 603
f 590 589 551
f 634 603 602
f 591 590 551
f 634 602 601
f 592 591 551
f 634 601 600
f 593 592 551
f 634 600 599
f 593 551 634
f 634 599 598
f 594 593 634
f 634 598 597
f 595 594 634
f 634 597 596
f 596 595 634
f 528 529 403
f 403 529 404
f 529 530 404
f 404 530 405
f 530 531 405
f 405 531 406
f 531 532 406
f 406 532 407
f 532 533 407
f 407 533 408
f 533 534 408
f 408 534 409
f 534 535 409
f 409 535 410
f 535 536 410
f 410 536 411
f 536 537 411
f 411 537 412
f 537 538 412
f 412 538 413
f 538 539 413
f 413 539 414
f 539 540 414
f 414 540 415
f 540 541 415
f 415 541 416
f 541 542 416
f 416 542 417
f 542 543 417
f 417 543 418
f 543 544 418
f 418 544 419
f 544 545 419
f 419 545 420
f 545 546 420
f 420 546 421
f 546 547 421
f 421 547 422
f 547 548 422
f 422 548 423
f 548 549 423
f 423 549 424
f 549 550 424
f 424 550 425
f 550 551 425
f 425 551 426
f 551 552 426
f 426 552 427
f 552 553 427
f 427 553 428
f 553 554 428
f 428 554 429
f 554 555 429
f 429 555 430
f 555 556 430
f 430 556 431
f 556 557 431
f 431 557 432
f 557 558 432
f 432 558 433
f 558 559 433
f 433 559 434
f 559 560 434
f 434 560 435
f 560 561 435
f 435 561 436
f 561 562 436
f 436 562 437
f 562 563 437
f 437 563 438
f 563 564 438
f 438 564 439
f 564 565 439
f 439 565 440
f 565 566 440
f 440 566 441
f 566 567 441
f 441 567 442
f 567 568 442
f 442 568 443
f 568 569 443
f 443 569 444
f 569 570 444
f 444 570 445
f 570 571 445
f 445 571 446
f 571 572 446
f 446 572 447
f 572 573 447
f 447 573 448
f 573 574 448
f 448 574 449
f 574 575 449
f 449 575 450
f 575 576 450
f 450 576 451
f 576 577 451
f 451 577 452
f 577 578 452
f 452 578 453
f 578 579 453
f 453 579 454
f 579 580 454
f 454 580 455
f 580 581 455
f 455 581 456
f 581 582 456
f 456 582 457
f 582 583 457
f 457 583 458
f 583 584 458
f 458 584 459
f 584 585 459
f 459 585 460
f 585 586 460
f 460 586 461
f 586 587 461
f 461 587 462
f 587 588 462
f 462 588 463
f 588 589 463
f 463 589 464
f 589 590 464
f 464 590 465
f 590 591 465
f 465 591 466
f 591 592 466
f 466 592 467
f 592 593 467
f 467 593 468
f 593 594 468
f 468 594 469
f 594 595 469
f 469 595 470
f 595 596 470
f 470 596 471
f 596 597 471
f 471 597 472
f 597 598 472
f 472 598 473
f 598 599 473
f 473 599 474
f 599 600 474
f 474 600 475
f 600 601 475
f 475 601 476
f 601 602 476
f 476 602 477
f 602 603 477
f 477 603 478
f 603 604 478
f 478 604 479
f 604 605 479
f 479 605 480
f 605 606 480
f 480 606 481
f 606 607 481
f 481 607 482
f 607 608 482
f 482 608 483
f 608 609 483
f 483 609 484
f 609 610 484
f 484 610 485
f 610 611 485
f 485 611 486
f 611 612 486
f 486 612 487
f 612 613 487
f 487 613 488
f 613 614 488
f 488 614 489
f 614 615 489
f 489 615 490
f 615 616 490
f 490 616 491
f 616 617 491
f 491 617 492
f 617 618 492
f 492 618 493
f 618 619 493
f 493 619 494
f 619 620 494
f 494 620 495
f 620 621 495
f 495 621 496
f 621 622 496
f 496 622 497
f 622 623 497
f 497 623 498
f 623 624 498
f 498 624 499
f 624 625 499
f 499 625 500
f 625 626 500
f 500 626 501
f 626 627 501
f 501 627 502
f 627 628 502
f 502 628 503
f 628 629 503
f 503 629 504
f 629 630 504
f 504 630 505
f 630 631 505
f 505 631 506
f 631 632 506
f 506 632 507
f 632 633 507
f 507 633 508
f 633 634 508
f 508 634 509
f 634 635 509
f 509 635 510
f 635 636 510
f 510 636 511
f 636 637 511
f 511 637 512
f 637 638 512
f 512 638 513
f 638 639 513
f 513 639 514
f 639 640 514
f 514 640 515
f 640 641 515
f 515 641 516
f 641 642 516
f 516 642 517
f 642 643 517
f 517 643 518
f 643 644 518
f 518 644 519
f 644 645 519
f 519 645 520
f 645 646 520
f 520 646 521
f 646 647 521
f 521 647 522
f 647 648 522
f 522 648 523
f 648 649 523
f 523 649 524
f 649 650 524
f 524 650 525
f 650 651 525
f 525 651 526
f 652 528 527
f 527 528 403
f 651 652 526
f 526 652 527
f 654 653 656
f 656 655 654
f 660 657 658
f 658 659 660
f 658 657 654
f 654 657 653
f 659 658 655
f 655 658 654
f 657 660 653
f 653 660 656
f 660 659 656
f 656 659 655
f 720 721 661
f 718 719 720
f 716 717 718
f 714 715 716
f 712 713 714
f 710 711 712
f 708 709 710
f 706 707 708
f 702 703 704
f 700 701 702
f 697 698 699
f 695 696 697
f 693 694 695
f 691 692 693
f 689 690 691
f 687 688 689
f 685 686 687
f 683 684 685
f 681 682 683
f 679 680 681
f 677 678 679
f 675 676 677
f 673 674 675
f 671 672 673
f 669 670 671
f 667 668 669
f 665 666 667
f 663 664 665
f 661 662 663
f 718 720 661
f 714 716 718
f 710 712 714
f 706 708 710
f 702 704 705
f 699 700 702
f 695 697 699
f 691 693 695
f 687 689 691
f 683 685 687
f 679 681 683
f 675 677 679
f 671 673 675
f 667 669 671
f 663 665 667
f 718 661 663
f 710 714 718
f 705 706 710
f 699 702 705
f 691 695 699
f 683 687 691
f 675 679 683
f 667 671 675
f 718 663 667
f 705 710 718
f 691 699 705
f 675 683 691
f 718 667 675
f 691 705 718
f 718 675 691
f 722 782 781
f 781 780 779
f 779 778 777
f 777 776 775
f 775 774 773
f 773 772 771
f 771 770 769
f 769 768 767
f 765 764 763
f 763 762 761
f 760 759 758
f 758 757 756
f 756 755 754
f 754 753 752
f 752 751 750
f 750 749 748
f 748 747 746
f 746 745 744
f 744 743 742
f 742 741 740
f 740 739 738
f 738 737 736
f 736 735 734
f 734 733 732
f 732 731 730
f 730 729 728
f 728 727 726
f 726 725 724
f 724 723 722
f 722 781 779
f 779 777 775
f 775 773 771
f 771 769 767
f 766 765 763
f 763 761 760
f 760 758 756
f 756 754 752
f 752 750 748
f 748 746 744
f 744 742 740
f 740 738 736
f 736 734 732
f 732 730 728
f 728 726 724
f 724 722 779
f 779 775 771
f 771 767 766
f 766 763 760
f 760 756 752
f 752 748 744
f 744 740 736
f 736 732 728
f 728 724 779
f 779 771 766
f 766 760 752
f 752 744 736
f 736 728 779
f 779 766 752
f 752 736 779
f 722 723 661
f 661 723 662
f 723 724 662
f 662 724 663
f 724 725 663
f 663 725 664
f 725 726 664
f 664 726 665
f 726 727 665
f 665 727 666
f 727 728 666
f 666 728 667
f 728 729 667
f 667 729 668
f 729 730 668
f 668 730 669
f 730 731 669
f 669 731 670
f 731 732 670
f 670 732 671
f 732 733 671
f 671 733 672
f 733 734 672
f 672 734 673
f 734 735 673
f 673 735 674
f 735 736 674
f 674 736 675
f 736 737 675
f 675 737 676
f 737 738 676
f 676 738 677
f 738 739 677
f 677 739 678
f 739 740 678
f 678 740 679
f 740 741 679
f 679 741 680
f 741 742 680
f 680 742 681
f 742 743 681
f 681 743 682
f 743 744 682
f 682 744 683
f 744 745 683
f 683 745 684
f 745 746 684
f 684 746 685
f 746 747 685
f 685 747 686
f 747 748 686
f 686 748 687
f 748 749 687
f 687 749 688
f 749 750 688
f 688 750 689
f 750 751 689
f 689 751 690
f 751 752 690
f 690 752 691
f 752 753 691
f 691 753 692
f 753 754 692
f 692 754 693
f 754 755 693
f 693 755 694
f 755 756 694
f 694 756 695
f 756 757 695
f 695 757 696
f 757 758 696
f 696 758 697
f 758 759 697
f 697 759 698
f 759 760 698
f 698 760 699
f 760 761 699
f 699 761 700
f 761 762 700
f 700 762 701
f 762 763 701
f 701 763 702
f 763 764 702
f 702 764 703
f 764 765 703
f 703 765 704
f 765 766 704
f 704 766 705
f 766 767 705
f 705 767 706
f 767 768 706
f 706 768 707
f 768 769 707
f 707 769 708
f 769 770 708
f 708 770 709
f 770 771 709
f 709 771 710
f 771 772 710
f 710 772 711
f 772 773 711
f 711 773 712
f 773 774 712
f 712 774 713
f 774 775 713
f 713 775 714
f 775 776 714
f 714 776 715
f 776 777 715
f 715 777 716
f 777 778 716
f 716 778 717
f 778 779 717
f 717 779 718
f 779 780 718
f 718 780 719
f 780 781 719
f 719 781 720
f 782 722 721
f 721 722 661
f 781 782 720
f 720 782 721

