# https://github.com/mikedh/trimesh
v -1.20000005 -2.20000005 0.00000000
v -0.60000002 -1.70000005 0.00000000
v -1.64999998 -2.75000000 2.47000003
v -1.29999995 -2.40000010 2.47000003
v -1.29999995 -2.40000010 3.42000008
v -0.60000002 -1.70000005 3.42000008
v -1.20000005 2.20000005 0.00000000
v -0.60000002 1.70000005 0.00000000
v -1.64999998 2.75000000 2.47000003
v -1.29999995 2.40000010 2.47000003
v -1.29999995 2.40000010 3.42000008
v -0.60000002 1.70000005 3.42000008
v 0.60000002 -1.70000005 0.00000000
v 0.89999992 -2.20000005 0.00000000
v 1.20000005 -1.89999986 0.00000000
v 0.34999993 -2.75000000 2.47000003
v 0.69999987 -2.40000010 2.47000003
v 0.69999987 -2.40000010 3.42000008
v 0.60000002 -1.70000005 3.42000008
v 1.29999995 -1.79999995 2.47000003
v 1.64999998 -1.45000005 2.47000003
v 1.29999995 -1.79999995 3.42000008
v 0.60000002 1.70000005 0.00000000
v 1.20000005 2.20000005 0.00000000
v 0.60000002 1.70000005 3.42000008
v 1.29999995 2.40000010 2.47000003
v 1.64999998 2.75000000 2.47000003
v 1.29999995 2.40000010 3.42000008
f 1 16 3
f 1 3 7
f 1 7 2
f 1 2 13
f 3 4 10
f 4 5 10
f 5 6 12
f 3 17 4
f 3 16 17
f 4 18 5
f 5 19 6
f 3 9 7
f 7 8 2
f 7 9 24
f 7 24 8
f 3 10 9
f 5 11 10
f 5 12 11
f 9 10 27
f 11 12 25
f 10 11 26
f 1 15 14
f 1 14 16
f 1 13 15
f 14 15 16
f 15 17 16
f 15 13 23
f 15 20 17
f 15 21 20
f 15 27 21
f 4 17 18
f 5 18 22
f 5 22 19
f 17 20 18
f 18 20 22
f 20 21 26
f 22 28 19
f 20 28 22
f 24 23 8
f 9 27 24
f 15 23 24
f 15 24 27
f 10 26 27
f 11 25 28
f 11 28 26
f 21 27 26
f 28 25 19
f 20 26 28
f 2 6 13
f 6 2 12
f 2 8 12
f 12 8 25
f 23 13 19
f 6 19 13
f 8 23 25
f 19 25 23

