# https://github.com/mikedh/trimesh
v -5.34999955 -4.09200001 3.79000019
v -5.34999955 -2.94199991 3.79000019
v -7.04999959 -2.30600023 3.24000000
v -6.04999959 -2.30600023 3.24000000
v -6.04999959 -2.30600023 2.96727299
v -3.87499964 -4.09200001 3.79000019
v -3.87499964 -2.94199991 3.79000019
v -7.04999959 -2.30600023 2.59000038
v -5.39999974 -2.30600023 2.79000019
v -6.04999959 -2.30600023 2.59000038
v -5.39999974 -2.30600023 2.59000038
v -7.04999959 -1.82700014 3.24000000
v -7.04999959 -1.40600014 3.24000000
v -6.04999959 -1.82700014 3.24000000
v -6.04999959 -1.82700014 2.96727299
v -7.04999959 -1.82700014 2.59000038
v -7.04999959 -1.82700014 2.39999985
v -7.04999959 -1.40600014 2.59000038
v -6.04999959 -1.82700014 2.59000038
v -6.04999959 -1.82700014 2.39999985
v -5.39999974 -1.40600014 2.79000019
v -5.39999974 -1.40600014 2.59000038
v -7.04999959 -1.81827784 2.22801422
v -7.04999959 -1.79220104 2.05779289
v -6.04999959 -1.81827784 2.22801422
v -6.04999959 -1.79220104 2.05779289
v -7.04999959 -4.09200001 0.89999985
v -6.04999959 -4.09200001 0.89999985
v -5.34999955 -4.09200001 0.89999985
v -5.34999955 -4.05278444 0.89999985
v -7.04999959 -4.04600000 0.39999985
v -7.04999959 -3.64599991 0.00000023
v -6.04999959 -4.04600000 0.39999985
v -5.34999955 -4.04600000 0.39999985
v -6.04999959 -3.64599991 0.00000023
v -5.34999955 -3.64599991 0.00000023
v -7.04999959 -2.30600023 0.89999985
v -5.34999955 -2.89599991 0.89999985
v -6.04999959 -2.30600023 0.89999985
v -3.87499964 -4.04600000 0.39999985
v -3.87499964 -3.64599991 0.00000023
v -3.87499964 -2.89599991 0.89999985
v -7.04999959 -1.74903679 1.89108299
v -7.04999959 -1.68922853 1.72959541
v -7.04999959 -1.61338949 1.57498669
v -7.04999959 -1.52229786 1.42884373
v -6.04999959 -1.74903679 1.89108299
v -6.04999959 -1.68922853 1.72959541
v -6.04999959 -1.61338949 1.57498669
v -6.04999959 -1.52229786 1.42884373
v -7.04999959 -1.41688871 1.29266666
v -7.04999959 -1.29824352 1.16785263
v -7.04999959 -1.16758060 1.05568146
v -7.04999959 -1.02623940 0.95730518
v -5.34999955 -1.75600004 0.96999954
v -6.04999959 -1.41688871 1.29266666
v -6.04999959 -1.29824352 1.16785263
v -6.04999959 -1.16758060 1.05568146
v -6.04999959 -1.02623940 0.95730518
v -3.87499964 -1.75600004 0.96999954
v -5.34999955 -1.75600004 0.89999985
v -7.04999959 -0.87567043 0.87373184
v -7.04999959 -0.71741867 0.80582165
v -7.04999959 -0.55310917 0.75426888
v -7.04999959 -0.38442707 0.71960377
v -7.04999959 -0.21310329 0.70218204
v -7.04999959 -0.04089642 0.70218204
v -6.04999959 -0.92299557 0.89999985
v -6.04999959 -0.87567043 0.87373184
v -6.04999959 -0.71741867 0.80582165
v -6.04999959 -0.55310917 0.75426888
v -6.04999959 -0.38442707 0.71960377
v -6.04999959 -0.21310329 0.70218204
v -6.04999959 -0.04089642 0.70218204
v -3.87499964 -1.75600004 0.89999985
v -7.04999959 1.19400024 3.24000000
v -7.04999959 1.57299995 3.24000000
v -7.04999959 1.72005939 2.88006424
v -6.04999959 1.57299995 3.24000000
v -6.04999959 1.57299995 2.96727299
v -7.04999959 1.19400024 2.59000038
v -7.04999959 1.57299995 2.59000038
v -7.04999959 1.70215511 2.59000038
v -7.04999959 1.57299995 2.39999985
v -5.39999974 1.19400024 2.79000019
v -5.39999974 1.19400024 2.59000038
v -6.04999959 1.57299995 2.59000038
v -6.04999959 1.57299995 2.39999985
v -7.04999959 1.56427765 2.22801422
v -7.04999959 1.53820038 2.05779289
v -6.04999959 1.56427765 2.22801422
v -6.04999959 1.53820038 2.05779289
v -5.34999955 2.94199944 3.79000019
v -7.04999959 2.14400005 3.24000000
v -6.04999959 2.14400005 3.24000000
v -6.04999959 2.14400005 2.96727299
v -5.34999955 4.09200001 3.79000019
v -3.87499964 2.94199944 3.79000019
v -3.87499964 4.09200001 3.79000019
v -7.04999959 2.14400005 2.59000038
v -5.39999974 2.14400005 2.79000019
v -6.04999959 2.14400005 2.59000038
v -5.39999974 2.14400005 2.59000038
v -7.04999959 0.77223873 0.95730518
v -7.04999959 0.91357994 1.05568146
v -6.04999959 0.77223873 0.95730518
v -6.04999959 0.91357994 1.05568146
v -7.04999959 1.49503613 1.89108299
v -7.04999959 1.43522835 1.72959541
v -7.04999959 1.26829815 1.42884373
v -7.04999959 1.35938931 1.57498669
v -6.04999959 1.49503613 1.89108299
v -6.04999959 1.43522835 1.72959541
v -6.04999959 1.26829815 1.42884373
v -6.04999959 1.35938931 1.57498669
v -7.04999959 1.16288853 1.29266666
v -7.04999959 1.04424381 1.16785263
v -6.04999959 1.16288853 1.29266666
v -6.04999959 1.04424381 1.16785263
v -5.34999955 1.50199986 0.96999954
v -3.87499964 1.50199986 0.96999954
v -7.04999959 0.13042736 0.71960377
v -7.04999959 0.29910946 0.75426888
v -7.04999959 0.46341896 0.80582165
v -7.04999959 0.62166977 0.87373184
v -6.04999959 0.13042736 0.71960377
v -6.04999959 0.29910946 0.75426888
v -6.04999959 0.46341896 0.80582165
v -6.04999959 0.62166977 0.87373184
v -6.04999959 0.66899490 0.89999985
v -5.34999955 1.50199986 0.89999985
v -3.87499964 1.50199986 0.89999985
v -3.87499964 2.77400017 1.29000019
v -3.87499964 2.83127308 1.29000019
v -3.87499964 3.97399998 1.29000019
v -7.04999959 2.14400005 0.89999985
v -6.04999959 2.14400005 0.89999985
v -5.34999955 2.81400013 0.89999985
v -7.04999959 4.09200001 0.89999985
v -6.04999959 4.09200001 0.89999985
v -5.34999955 3.98287868 0.89999985
v -5.34999955 4.09200001 0.89999985
v -7.04999959 3.96399975 0.39999985
v -7.04999959 3.96399975 0.00000023
v -5.34999955 3.56400013 0.00000023
v -6.04999959 3.96399975 0.39999985
v -5.34999955 3.96399975 0.39999985
v -6.04999959 3.96399975 0.00000023
v -5.34999955 3.96399975 0.00000023
v -3.87499964 2.77400017 0.89999985
v -3.87499964 2.81400013 0.89999985
v -3.87499964 2.77400017 0.00000023
v -3.87499964 3.97399998 0.66484951
v -3.87499964 3.56400013 0.00000023
v -3.87499964 3.96399975 0.39999985
v -3.87499964 3.97399998 0.00000023
v 3.87500036 -4.09200001 3.79000019
v 3.87500036 -2.94199991 3.79000019
v 5.35000074 -4.09200001 3.79000019
v 5.35000074 -2.94199991 3.79000019
v 6.05000055 -2.30600023 3.24000000
v 6.05000055 -2.30600023 2.96727299
v 7.04999959 -2.30600023 3.24000000
v 5.39999998 -2.30600023 2.79000019
v 5.39999998 -2.30600023 2.59000038
v 6.05000055 -2.30600023 2.59000038
v 7.04999959 -2.30600023 2.59000038
v 6.05000055 -1.82700014 3.24000000
v 6.05000055 -1.82700014 2.96727299
v 7.04999959 -1.82700014 3.24000000
v 7.04999959 -1.40600014 3.24000000
v 6.05000055 -1.82700014 2.59000038
v 6.05000055 -1.82700014 2.39999985
v 5.39999998 -1.40600014 2.79000019
v 5.39999998 -1.40600014 2.59000038
v 7.04999959 -1.82700014 2.59000038
v 7.04999959 -1.82700014 2.39999985
v 7.04999959 -1.40600014 2.59000038
v 6.05000055 -1.81827784 2.22801422
v 6.05000055 -1.79220104 2.05779289
v 7.04999959 -1.81827784 2.22801422
v 7.04999959 -1.79220104 2.05779289
v 3.87500036 -4.04600000 0.39999985
v 3.87500036 -3.64599991 0.00000023
v 3.87500036 -2.89599991 0.89999985
v 5.35000074 -4.09200001 0.89999985
v 5.35000074 -4.05278444 0.89999985
v 6.05000055 -4.09200001 0.89999985
v 7.04999959 -4.09200001 0.89999985
v 5.35000074 -4.04600000 0.39999985
v 6.05000055 -4.04600000 0.39999985
v 5.35000074 -3.64599991 0.00000023
v 6.05000055 -3.64599991 0.00000023
v 7.04999959 -4.04600000 0.39999985
v 7.04999959 -3.64599991 0.00000023
v 5.35000074 -2.89599991 0.89999985
v 6.05000055 -2.30600023 0.89999985
v 7.04999959 -2.30600023 0.89999985
v 3.87500036 -1.75600004 0.96999954
v 6.05000055 -1.74903679 1.89108299
v 6.05000055 -1.68922853 1.72959541
v 6.05000055 -1.61338949 1.57498669
v 6.05000055 -1.52229786 1.42884373
v 7.04999959 -1.74903679 1.89108299
v 7.04999959 -1.68922853 1.72959541
v 7.04999959 -1.61338949 1.57498669
v 7.04999959 -1.52229786 1.42884373
v 5.35000074 -1.75600004 0.96999954
v 6.05000055 -1.41688871 1.29266666
v 6.05000055 -1.29824352 1.16785263
v 6.05000055 -1.16758060 1.05568146
v 6.05000055 -1.02623940 0.95730518
v 7.04999959 -1.41688871 1.29266666
v 7.04999959 -1.29824352 1.16785263
v 7.04999959 -1.16758060 1.05568146
v 7.04999959 -1.02623940 0.95730518
v 3.87500036 -1.75600004 0.89999985
v 5.35000074 -1.75600004 0.89999985
v 6.05000055 -0.92299557 0.89999985
v 6.05000055 -0.87567043 0.87373184
v 6.05000055 -0.71741867 0.80582165
v 6.05000055 -0.55310917 0.75426888
v 6.05000055 -0.38442707 0.71960377
v 6.05000055 -0.21310329 0.70218204
v 6.05000055 -0.04089642 0.70218204
v 7.04999959 -0.87567043 0.87373184
v 7.04999959 -0.71741867 0.80582165
v 7.04999959 -0.55310917 0.75426888
v 7.04999959 -0.38442707 0.71960377
v 7.04999959 -0.21310329 0.70218204
v 7.04999959 -0.04089642 0.70218204
v 6.05000055 1.57299995 3.24000000
v 6.05000055 1.57299995 2.96727299
v 7.04999959 1.19400024 3.24000000
v 7.04999959 1.57299995 3.24000000
v 5.39999998 1.19400024 2.79000019
v 5.39999998 1.19400024 2.59000038
v 6.05000055 1.57299995 2.59000038
v 6.05000055 1.57299995 2.39999985
v 7.04999959 1.19400024 2.59000038
v 7.04999959 1.57299995 2.59000038
v 7.04999959 1.57299995 2.39999985
v 6.05000055 1.56427765 2.22801422
v 6.05000055 1.53820038 2.05779289
v 7.04999959 1.56427765 2.22801422
v 7.04999959 1.53820038 2.05779289
v 3.87500036 2.94199944 3.79000019
v 3.87500036 4.09200001 3.79000019
v 5.35000074 2.94199944 3.79000019
v 6.05000055 2.14400005 3.24000000
v 6.05000055 2.14400005 2.96727299
v 7.04999959 2.14400005 3.24000000
v 5.35000074 4.09200001 3.79000019
v 5.39999998 2.14400005 2.79000019
v 5.39999998 2.14400005 2.59000038
v 6.05000055 2.14400005 2.59000038
v 7.04999959 2.14400005 2.59000038
v 3.87500036 1.50199986 0.96999954
v 6.05000055 0.77223873 0.95730518
v 6.05000055 0.91357994 1.05568146
v 7.04999959 0.77223873 0.95730518
v 7.04999959 0.91357994 1.05568146
v 6.05000055 1.49503613 1.89108299
v 6.05000055 1.43522835 1.72959541
v 6.05000055 1.26829815 1.42884373
v 6.05000055 1.35938931 1.57498669
v 7.04999959 1.49503613 1.89108299
v 7.04999959 1.43522835 1.72959541
v 7.04999959 1.26829815 1.42884373
v 7.04999959 1.35938931 1.57498669
v 6.05000055 1.16288853 1.29266666
v 5.35000074 1.50199986 0.96999954
v 6.05000055 1.04424381 1.16785263
v 7.04999959 1.16288853 1.29266666
v 7.04999959 1.04424381 1.16785263
v 3.87500036 1.50199986 0.89999985
v 6.05000055 0.13042736 0.71960377
v 6.05000055 0.29910946 0.75426888
v 6.05000055 0.46341896 0.80582165
v 6.05000055 0.62166977 0.87373184
v 6.05000055 0.66899490 0.89999985
v 7.04999959 0.13042736 0.71960377
v 7.04999959 0.29910946 0.75426888
v 7.04999959 0.46341896 0.80582165
v 7.04999959 0.62166977 0.87373184
v 5.35000074 1.50199986 0.89999985
v 3.87500036 2.77400017 1.29000019
v 3.87500036 2.83127308 1.29000019
v 3.87500036 3.97399998 1.29000019
v 3.87500036 2.77400017 0.89999985
v 3.87500036 2.81400013 0.89999985
v 3.87500036 2.77400017 0.00000023
v 3.87500036 3.97399998 0.66484951
v 3.87500036 3.56400013 0.00000023
v 3.87500036 3.96399975 0.39999985
v 3.87500036 3.97399998 0.00000023
v 6.05000055 2.14400005 0.89999985
v 5.35000074 2.81400013 0.89999985
v 7.04999959 2.14400005 0.89999985
v 5.35000074 3.98287868 0.89999985
v 5.35000074 4.09200001 0.89999985
v 6.05000055 4.09200001 0.89999985
v 7.04999959 4.09200001 0.89999985
v 5.35000074 3.56400013 0.00000023
v 5.35000074 3.96399975 0.39999985
v 6.05000055 3.96399975 0.39999985
v 5.35000074 3.96399975 0.00000023
v 6.05000055 3.96399975 0.00000023
v 7.04999959 3.96399975 0.39999985
v 7.04999959 3.96399975 0.00000023
f 4 12 3
f 5 4 3
f 8 5 3
f 5 14 4
f 6 2 1
f 6 7 2
f 2 38 1
f 17 8 3
f 8 9 5
f 10 9 8
f 11 9 10
f 19 11 10
f 37 10 8
f 17 37 8
f 39 19 10
f 40 6 1
f 42 7 6
f 7 38 2
f 15 13 12
f 14 12 4
f 14 15 12
f 12 16 3
f 13 18 12
f 21 18 13
f 15 14 5
f 21 15 5
f 15 21 13
f 9 21 5
f 16 17 3
f 18 16 12
f 20 17 16
f 19 20 16
f 18 22 16
f 11 21 9
f 22 21 11
f 22 19 16
f 19 22 11
f 21 22 18
f 20 23 17
f 25 24 23
f 25 23 20
f 26 43 24
f 25 26 24
f 47 43 26
f 39 20 19
f 38 30 1
f 37 39 10
f 30 40 1
f 40 42 6
f 42 38 7
f 33 28 27
f 31 33 27
f 28 37 27
f 37 31 27
f 34 29 28
f 34 30 29
f 33 34 28
f 29 39 28
f 35 33 31
f 32 35 31
f 37 32 31
f 36 34 33
f 35 36 33
f 39 37 28
f 37 62 32
f 29 68 39
f 34 40 30
f 36 41 34
f 41 40 34
f 41 42 40
f 42 61 38
f 75 42 41
f 42 75 61
f 23 37 17
f 24 37 23
f 47 44 43
f 48 45 44
f 47 48 44
f 43 37 24
f 43 44 37
f 49 46 45
f 48 49 45
f 49 50 46
f 39 25 20
f 39 26 25
f 39 47 26
f 48 47 39
f 44 45 37
f 45 46 37
f 46 51 37
f 51 52 37
f 52 53 37
f 50 51 46
f 56 52 51
f 56 51 50
f 56 57 52
f 53 54 37
f 57 53 52
f 58 54 53
f 57 58 53
f 58 59 54
f 49 48 39
f 50 49 39
f 56 50 39
f 57 56 39
f 58 57 39
f 59 58 39
f 60 120 55
f 62 63 32
f 63 64 32
f 54 62 37
f 64 65 32
f 68 59 39
f 130 68 29
f 30 140 29
f 148 35 32
f 145 36 35
f 59 62 54
f 69 63 62
f 70 64 63
f 68 62 59
f 68 69 62
f 69 70 63
f 70 71 64
f 71 65 64
f 72 66 65
f 71 72 65
f 73 67 66
f 72 73 66
f 73 74 67
f 72 71 70
f 38 140 30
f 120 61 55
f 130 69 68
f 129 70 69
f 137 130 29
f 73 72 70
f 74 73 70
f 126 74 70
f 127 126 70
f 61 140 38
f 65 144 32
f 61 75 55
f 75 60 55
f 132 75 41
f 152 41 36
f 75 121 60
f 85 77 76
f 77 82 76
f 81 85 76
f 79 94 77
f 94 78 77
f 80 79 77
f 95 94 79
f 78 82 77
f 94 83 78
f 85 80 77
f 80 95 79
f 96 95 80
f 101 96 80
f 85 101 80
f 82 81 76
f 82 87 81
f 83 82 78
f 94 100 83
f 83 84 82
f 84 87 82
f 88 87 84
f 86 85 81
f 86 101 85
f 87 86 81
f 103 101 86
f 88 102 87
f 102 86 87
f 102 103 86
f 108 112 90
f 112 92 90
f 89 91 84
f 91 88 84
f 92 91 89
f 90 92 89
f 100 136 83
f 136 84 83
f 137 102 88
f 95 96 94
f 96 100 94
f 134 98 93
f 98 97 93
f 98 99 97
f 134 99 98
f 101 100 96
f 101 102 100
f 101 103 102
f 102 137 100
f 97 138 93
f 151 134 93
f 99 141 97
f 134 135 99
f 135 153 99
f 107 117 105
f 106 105 104
f 119 117 107
f 106 107 105
f 109 113 108
f 113 112 108
f 115 113 109
f 111 115 109
f 114 111 110
f 114 115 111
f 136 89 84
f 136 90 89
f 136 108 90
f 136 109 108
f 91 137 88
f 92 137 91
f 112 137 92
f 113 137 112
f 116 118 110
f 117 119 116
f 136 116 110
f 118 114 110
f 119 118 116
f 105 136 104
f 136 117 116
f 117 136 105
f 136 111 109
f 111 136 110
f 118 137 114
f 137 107 106
f 119 137 118
f 137 119 107
f 115 137 113
f 137 115 114
f 121 120 60
f 126 123 122
f 127 124 123
f 126 122 74
f 126 127 123
f 127 128 124
f 74 122 67
f 125 129 104
f 128 125 124
f 128 129 125
f 129 130 104
f 130 106 104
f 130 129 69
f 128 127 70
f 129 128 70
f 120 131 61
f 140 137 29
f 136 125 104
f 66 144 65
f 122 144 67
f 123 144 122
f 124 144 123
f 125 144 124
f 130 137 106
f 131 140 61
f 67 144 66
f 144 148 32
f 148 149 35
f 149 145 35
f 132 121 75
f 152 132 41
f 154 152 36
f 121 131 120
f 132 138 131
f 121 132 131
f 145 154 36
f 137 136 100
f 141 138 97
f 138 151 93
f 134 151 133
f 151 150 133
f 147 141 99
f 153 147 99
f 136 144 125
f 137 139 136
f 138 140 131
f 139 143 136
f 140 139 137
f 140 143 139
f 146 143 140
f 142 146 140
f 138 141 140
f 141 142 140
f 147 142 141
f 142 147 146
f 143 144 136
f 146 144 143
f 146 148 144
f 147 148 146
f 149 147 145
f 147 149 148
f 132 150 138
f 152 150 132
f 150 151 138
f 153 155 147
f 147 155 145
f 156 155 153
f 155 154 145
f 155 156 154
f 287 134 133
f 287 135 134
f 289 153 135
f 150 292 133
f 152 292 150
f 289 156 153
f 154 296 152
f 156 296 154
f 290 287 133
f 287 288 135
f 288 289 135
f 292 290 133
f 294 292 152
f 289 293 156
f 296 294 152
f 293 296 156
f 291 288 287
f 290 291 287
f 293 295 296
f 295 294 296
f 159 158 157
f 159 160 158
f 169 162 161
f 162 169 164
f 162 163 161
f 163 168 161
f 167 163 162
f 158 185 157
f 187 159 157
f 160 185 158
f 196 160 159
f 165 166 164
f 167 162 164
f 166 167 164
f 167 177 163
f 173 197 166
f 197 167 166
f 198 177 167
f 168 169 161
f 169 174 164
f 169 170 174
f 170 169 168
f 170 171 174
f 163 170 168
f 176 170 163
f 176 171 170
f 171 178 174
f 175 165 164
f 174 175 164
f 175 166 165
f 172 166 175
f 172 173 166
f 178 172 175
f 178 175 174
f 177 176 163
f 176 178 171
f 177 173 172
f 176 177 172
f 178 176 172
f 177 179 173
f 181 180 179
f 177 181 179
f 182 200 180
f 181 182 180
f 204 200 182
f 185 183 157
f 183 190 157
f 190 187 157
f 196 185 160
f 187 196 159
f 197 198 167
f 184 192 183
f 185 184 183
f 192 190 183
f 185 217 184
f 196 217 185
f 196 218 217
f 188 187 186
f 187 190 186
f 188 196 187
f 191 188 186
f 190 191 186
f 194 189 188
f 191 194 188
f 189 197 188
f 194 198 189
f 193 191 190
f 192 193 190
f 195 194 191
f 193 195 191
f 195 198 194
f 188 218 196
f 189 198 197
f 226 198 195
f 208 258 199
f 179 197 173
f 180 197 179
f 200 197 180
f 200 201 197
f 204 201 200
f 205 202 201
f 198 181 177
f 198 182 181
f 204 205 201
f 206 203 202
f 198 204 182
f 205 204 198
f 205 206 202
f 206 207 203
f 201 202 197
f 202 203 197
f 203 209 197
f 209 210 197
f 210 211 197
f 211 212 197
f 206 205 198
f 207 206 198
f 213 207 198
f 214 213 198
f 215 214 198
f 207 209 203
f 213 210 209
f 207 213 209
f 213 214 210
f 214 211 210
f 215 212 211
f 216 215 198
f 214 215 211
f 215 216 212
f 217 218 199
f 217 276 184
f 218 208 199
f 304 192 184
f 258 217 199
f 188 286 218
f 212 219 197
f 227 226 195
f 228 227 195
f 226 216 198
f 229 228 195
f 308 193 192
f 310 195 193
f 218 272 208
f 188 197 301
f 220 281 219
f 221 280 220
f 222 279 221
f 223 279 222
f 224 279 223
f 216 219 212
f 216 220 219
f 226 221 220
f 227 222 221
f 216 226 220
f 226 227 221
f 227 228 222
f 228 223 222
f 229 224 223
f 228 229 223
f 230 225 224
f 229 230 224
f 230 231 225
f 310 229 195
f 234 233 236
f 250 251 232
f 251 254 236
f 251 233 232
f 233 251 236
f 234 235 233
f 240 234 236
f 240 235 234
f 235 250 232
f 233 235 232
f 235 252 250
f 241 252 235
f 255 237 236
f 237 240 236
f 238 241 237
f 254 255 236
f 255 238 237
f 256 238 255
f 240 241 235
f 241 240 237
f 242 252 241
f 257 252 242
f 239 241 238
f 242 241 239
f 297 239 238
f 256 297 238
f 263 267 244
f 267 246 244
f 243 245 239
f 245 242 239
f 246 245 243
f 244 246 243
f 299 257 242
f 249 248 247
f 249 253 248
f 248 288 247
f 252 251 250
f 252 257 251
f 298 249 247
f 288 298 247
f 253 293 248
f 289 288 248
f 293 289 248
f 256 255 254
f 251 257 254
f 257 256 254
f 257 299 256
f 298 253 249
f 272 258 208
f 262 273 260
f 261 260 259
f 262 275 273
f 261 262 260
f 297 243 239
f 297 244 243
f 297 263 244
f 297 264 263
f 264 268 263
f 268 267 263
f 270 268 264
f 266 270 264
f 269 266 265
f 269 270 266
f 245 299 242
f 246 299 245
f 267 299 246
f 268 299 267
f 297 271 265
f 260 297 259
f 297 273 271
f 273 297 260
f 297 266 264
f 266 297 265
f 271 274 265
f 273 275 271
f 274 269 265
f 275 274 271
f 274 299 269
f 299 262 261
f 275 299 274
f 299 275 262
f 270 299 268
f 299 270 269
f 258 276 217
f 276 292 184
f 292 304 184
f 272 276 258
f 286 290 276
f 272 286 276
f 188 298 286
f 286 272 218
f 280 281 220
f 279 280 221
f 225 279 224
f 277 279 225
f 197 219 301
f 278 279 277
f 188 300 298
f 282 278 277
f 283 279 278
f 282 277 231
f 282 283 278
f 283 284 279
f 231 277 225
f 285 281 280
f 281 285 259
f 284 280 279
f 284 285 280
f 285 261 259
f 188 301 300
f 297 281 259
f 219 281 301
f 285 299 261
f 310 230 229
f 310 282 231
f 310 283 282
f 310 284 283
f 310 285 284
f 304 308 192
f 310 231 230
f 308 310 193
f 288 291 298
f 295 293 253
f 300 295 253
f 299 297 256
f 298 300 253
f 291 290 286
f 290 292 276
f 298 291 286
f 305 295 300
f 292 294 304
f 294 295 305
f 294 305 304
f 281 297 301
f 310 299 285
f 299 302 297
f 297 302 301
f 301 305 300
f 302 305 301
f 302 306 305
f 299 303 302
f 309 303 299
f 303 306 302
f 303 309 306
f 306 307 305
f 305 307 304
f 307 308 304
f 306 308 307
f 310 309 299
f 309 308 306
f 309 310 308

