# https://github.com/mikedh/trimesh
v -1.58749998 -2.30600023 3.24000000
v -1.58749998 -2.30600023 2.59000038
v -1.58749998 -1.82700014 3.24000000
v -1.58749998 -1.40600014 3.24000000
v -1.58749998 -1.82700014 2.59000038
v -1.58749998 -1.82700014 2.39999985
v -1.58749998 -1.40600014 2.59000038
v -1.58749998 -1.81827784 2.22801422
v -1.58749998 -1.79220104 2.05779289
v -0.58749998 -2.30600023 3.24000000
v -0.58749998 -2.30600023 2.96727299
v -0.58749998 -2.30600023 2.59000038
v -0.58749998 -1.82700014 3.24000000
v -0.58749998 -1.82700014 2.96727299
v -0.58749998 -1.82700014 2.59000038
v -0.58749998 -1.82700014 2.39999985
v -0.58749998 -1.81827784 2.22801422
v -0.58749998 -1.79220104 2.05779289
v -1.58749998 -4.09200001 0.89999985
v -1.58749998 -4.04600000 0.39999985
v -1.58749998 -3.64599991 0.00000023
v -1.58749998 -2.30600023 0.89999985
v -1.58749998 -1.74903679 1.89108299
v -1.58749998 -1.68922853 1.72959541
v -1.58749998 -1.61338949 1.57498669
v -1.58749998 -1.52229786 1.42884373
v -1.58749998 -1.41688871 1.29266666
v -1.58749998 -1.29824352 1.16785263
v -1.58749998 -1.16758060 1.05568146
v -1.58749998 -1.02623940 0.95730518
v -1.58749998 -0.87567043 0.87373184
v -1.58749998 -0.71741867 0.80582165
v -1.58749998 -0.55310917 0.75426888
v -1.58749998 -0.38442707 0.71960377
v -1.58749998 -0.21310329 0.70218204
v -1.58749998 -0.04089642 0.70218204
v -0.58749998 -4.09200001 0.89999985
v -0.58749998 -4.04600000 0.39999985
v -0.58749998 -3.64599991 0.00000023
v -0.58749998 -2.30600023 0.89999985
v -0.58749998 -1.74903679 1.89108299
v -0.58749998 -1.68922853 1.72959541
v -0.58749998 -1.61338949 1.57498669
v -0.58749998 -1.52229786 1.42884373
v -0.58749998 -1.41688871 1.29266666
v -0.58749998 -1.29824352 1.16785263
v -0.58749998 -1.16758060 1.05568146
v -0.58749998 -1.02623940 0.95730518
v -0.58749998 -0.92299557 0.89999985
v -0.58749998 -0.87567043 0.87373184
v -0.58749998 -0.71741867 0.80582165
v -0.58749998 -0.55310917 0.75426888
v -0.58749998 -0.38442707 0.71960377
v -0.58749998 -0.21310329 0.70218204
v -0.58749998 -0.04089642 0.70218204
v -1.58749998 1.19400024 3.24000000
v -1.58749998 1.57299995 3.24000000
v -1.58749998 1.72005939 2.88006424
v -1.58749998 1.19400024 2.59000038
v -1.58749998 1.57299995 2.59000038
v -1.58749998 1.70215511 2.59000038
v -1.58749998 1.57299995 2.39999985
v -1.58749998 1.56427765 2.22801422
v -1.58749998 1.53820038 2.05779289
v -1.58749998 2.14400005 3.24000000
v -1.58749998 2.14400005 2.59000038
v -0.58749998 1.57299995 3.24000000
v -0.58749998 1.57299995 2.96727299
v -0.58749998 1.57299995 2.59000038
v -0.58749998 1.57299995 2.39999985
v -0.58749998 1.56427765 2.22801422
v -0.58749998 1.53820038 2.05779289
v -0.58749998 2.14400005 3.24000000
v -0.58749998 2.14400005 2.96727299
v -0.58749998 2.14400005 2.59000038
v -1.58749998 0.77223873 0.95730518
v -1.58749998 0.91357994 1.05568146
v -1.58749998 1.49503613 1.89108299
v -1.58749998 1.43522835 1.72959541
v -1.58749998 1.26829815 1.42884373
v -1.58749998 1.35938931 1.57498669
v -1.58749998 1.16288853 1.29266666
v -1.58749998 1.04424381 1.16785263
v -1.58749998 0.13042736 0.71960377
v -1.58749998 0.29910946 0.75426888
v -1.58749998 0.46341896 0.80582165
v -1.58749998 0.62166977 0.87373184
v -1.58749998 2.14400005 0.89999985
v -1.58749998 4.09200001 0.89999985
v -1.58749998 3.96399975 0.39999985
v -1.58749998 3.96399975 0.00000023
v -0.58749998 0.77223873 0.95730518
v -0.58749998 0.91357994 1.05568146
v -0.58749998 1.49503613 1.89108299
v -0.58749998 1.43522835 1.72959541
v -0.58749998 1.26829815 1.42884373
v -0.58749998 1.35938931 1.57498669
v -0.58749998 1.16288853 1.29266666
v -0.58749998 1.04424381 1.16785263
v -0.58749998 0.13042736 0.71960377
v -0.58749998 0.29910946 0.75426888
v -0.58749998 0.46341896 0.80582165
v -0.58749998 0.62166977 0.87373184
v -0.58749998 0.66899490 0.89999985
v -0.58749998 2.14400005 0.89999985
v -0.58749998 4.09200001 0.89999985
v -0.58749998 3.96399975 0.39999985
v -0.58749998 3.96399975 0.00000023
v 0.11250007 -4.09200001 3.79000019
v 0.11250007 -2.94199991 3.79000019
v 0.06249988 -2.30600023 2.79000019
v 0.06249988 -2.30600023 2.59000038
v 0.06249988 -1.40600014 2.79000019
v 0.06249988 -1.40600014 2.59000038
v 1.58749998 -4.09200001 3.79000019
v 1.58749998 -2.94199991 3.79000019
v 0.11250007 -4.09200001 0.89999985
v 0.11250007 -4.05278444 0.89999985
v 0.11250007 -4.04600000 0.39999985
v 0.11250007 -3.64599991 0.00000023
v 0.11250007 -2.89599991 0.89999985
v 0.11250007 -1.75600004 0.96999954
v 0.11250007 -1.75600004 0.89999985
v 1.58749998 -4.04600000 0.39999985
v 1.58749998 -3.64599991 0.00000023
v 1.58749998 -2.89599991 0.89999985
v 1.58749998 -1.75600004 0.96999954
v 1.58749998 -1.75600004 0.89999985
v 0.06249988 1.19400024 2.79000019
v 0.06249988 1.19400024 2.59000038
v 0.11250007 2.94199944 3.79000019
v 0.11250007 4.09200001 3.79000019
v 0.06249988 2.14400005 2.79000019
v 0.06249988 2.14400005 2.59000038
v 1.58749998 2.94199944 3.79000019
v 1.58749998 4.09200001 3.79000019
v 0.11250007 1.50199986 0.96999954
v 0.11250007 1.50199986 0.89999985
v 0.11250007 2.81400013 0.89999985
v 0.11250007 3.98287868 0.89999985
v 0.11250007 4.09200001 0.89999985
v 0.11250007 3.56400013 0.00000023
v 0.11250007 3.96399975 0.39999985
v 0.11250007 3.96399975 0.00000023
v 1.58749998 1.50199986 0.96999954
v 1.58749998 1.50199986 0.89999985
v 1.58749998 2.81400013 0.89999985
v 1.58749998 3.56400013 0.00000023
v 1.58749998 3.96399975 0.39999985
f 10 3 1
f 2 11 1
f 11 10 1
f 6 2 1
f 6 22 2
f 22 12 2
f 3 5 1
f 4 7 3
f 14 4 3
f 113 7 4
f 10 13 3
f 13 14 3
f 5 6 1
f 7 5 3
f 16 6 5
f 16 8 6
f 17 9 8
f 18 23 9
f 7 114 5
f 15 16 5
f 16 17 8
f 17 18 9
f 41 23 18
f 11 13 10
f 111 11 2
f 12 111 2
f 40 15 12
f 15 112 12
f 112 111 12
f 14 113 4
f 14 13 11
f 113 14 11
f 111 113 11
f 114 15 5
f 113 114 7
f 40 16 15
f 114 112 15
f 22 40 12
f 22 20 19
f 20 38 19
f 37 22 19
f 22 21 20
f 21 39 20
f 22 31 21
f 38 37 19
f 39 38 20
f 37 40 22
f 8 22 6
f 9 22 8
f 23 22 9
f 23 24 22
f 41 24 23
f 42 25 24
f 43 26 25
f 24 25 22
f 25 26 22
f 26 27 22
f 27 28 22
f 28 29 22
f 29 30 22
f 44 27 26
f 45 28 27
f 46 29 28
f 47 30 29
f 41 42 24
f 42 43 25
f 43 44 26
f 44 45 27
f 45 46 28
f 46 47 29
f 47 48 30
f 31 32 21
f 32 33 21
f 30 31 22
f 33 34 21
f 48 31 30
f 50 32 31
f 51 33 32
f 52 34 33
f 53 35 34
f 54 36 35
f 34 91 21
f 108 39 21
f 48 49 31
f 49 50 31
f 50 51 32
f 51 52 33
f 52 53 34
f 53 54 35
f 54 55 36
f 38 119 37
f 117 40 37
f 119 117 37
f 39 120 38
f 120 119 38
f 117 49 40
f 40 17 16
f 40 18 17
f 40 41 18
f 42 41 40
f 43 42 40
f 44 43 40
f 45 44 40
f 46 45 40
f 47 46 40
f 48 47 40
f 49 48 40
f 53 52 51
f 104 50 49
f 103 51 50
f 54 53 51
f 55 54 51
f 100 55 51
f 101 100 51
f 117 104 49
f 117 118 106
f 142 120 39
f 117 105 104
f 118 121 106
f 121 123 106
f 58 60 57
f 65 57 67
f 57 68 67
f 73 65 67
f 61 65 66
f 60 61 62
f 69 60 62
f 61 66 88
f 61 88 62
f 78 94 64
f 63 71 62
f 64 72 63
f 70 69 62
f 94 72 64
f 71 70 62
f 72 71 63
f 74 65 73
f 66 75 105
f 68 73 67
f 68 74 73
f 75 69 70
f 105 75 70
f 93 83 77
f 92 77 76
f 88 63 62
f 88 64 63
f 88 78 64
f 88 79 78
f 79 95 78
f 81 97 79
f 96 81 80
f 88 82 80
f 77 88 76
f 88 83 82
f 83 88 77
f 88 81 79
f 81 88 80
f 82 98 80
f 83 99 82
f 93 99 83
f 92 93 77
f 95 94 78
f 97 95 79
f 96 97 81
f 98 96 80
f 99 98 82
f 100 85 84
f 101 86 85
f 55 84 36
f 87 103 76
f 102 87 86
f 88 87 76
f 35 91 34
f 84 91 36
f 85 91 84
f 86 91 85
f 87 91 86
f 36 91 35
f 91 108 21
f 100 84 55
f 100 101 85
f 101 102 86
f 102 103 87
f 103 104 76
f 104 92 76
f 66 105 88
f 88 91 87
f 105 89 88
f 89 90 88
f 106 90 89
f 90 91 88
f 107 91 90
f 105 106 89
f 106 107 90
f 107 108 91
f 71 105 70
f 72 105 71
f 94 105 72
f 95 105 94
f 98 105 96
f 105 93 92
f 99 105 98
f 105 99 93
f 97 105 95
f 105 97 96
f 104 103 50
f 102 101 51
f 103 102 51
f 104 105 92
f 117 106 105
f 123 138 106
f 108 144 39
f 144 142 39
f 138 139 106
f 141 107 106
f 139 140 106
f 140 141 106
f 141 143 107
f 143 108 107
f 143 144 108
f 115 110 109
f 110 121 109
f 116 121 110
f 112 113 111
f 114 113 112
f 115 116 110
f 124 115 109
f 126 116 115
f 121 118 109
f 118 124 109
f 119 118 117
f 119 124 118
f 120 125 119
f 126 123 121
f 127 137 122
f 137 123 122
f 123 128 122
f 126 121 116
f 124 126 115
f 125 124 119
f 126 128 123
f 125 126 124
f 128 126 125
f 128 127 122
f 148 125 120
f 146 128 125
f 128 145 127
f 135 132 131
f 132 139 131
f 136 140 132
f 135 136 132
f 147 135 131
f 147 136 135
f 137 138 123
f 145 138 137
f 146 139 138
f 142 148 120
f 140 139 132
f 139 147 131
f 143 140 136
f 143 141 140
f 144 143 142
f 143 149 142
f 145 137 127
f 145 146 138
f 146 145 128
f 148 146 125
f 149 143 136
f 147 149 136
f 146 147 139
f 149 148 142
f 148 147 146
f 148 149 147
f 57 60 56
f 65 58 57
f 61 58 65
f 129 57 56
f 59 129 56
f 60 59 56
f 58 61 60
f 60 69 59
f 66 65 74
f 68 57 129
f 74 68 133
f 133 68 129
f 69 130 59
f 130 129 59
f 69 75 130
f 75 134 130
f 66 74 133
f 75 66 133
f 134 75 133
f 130 133 129
f 134 133 130

