# https://github.com/mikedh/trimesh
v -1.84999990 -4.33200002 4.49000019
v -1.84999990 -2.93199992 4.49000019
v -0.44999933 -4.33200002 4.49000019
v -0.44999933 -2.93199992 4.49000019
v -0.40000010 -2.30599999 3.54000038
v -0.40000010 -2.30599999 3.33999962
v -0.40000010 -1.40599990 3.54000038
v -0.40000010 -1.40599990 3.33999962
v -1.84999990 -2.87599969 1.59999985
v -1.84999990 -4.27599978 0.50000042
v -1.84999990 -3.77599978 0.00000042
v -1.84999990 -2.05599999 1.59999985
v -1.84999990 -1.85599971 1.19000000
v -0.44999933 -4.29200006 1.59999985
v -0.44999933 -4.29143834 1.59999985
v -0.44999933 -4.29115462 1.57978577
v -0.44999933 -2.87599969 1.59999985
v -0.44999933 -4.27599978 0.50000042
v -0.44999933 -4.24600005 0.50000042
v -0.44999933 -3.77599978 0.00000042
v -0.44999933 -3.74600005 0.00000042
v -0.44999933 -2.05599999 1.59999985
v -0.44999933 -1.85599971 1.19000000
v -1.84999990 2.93200040 4.49000019
v -1.84999990 4.33200002 4.49000019
v -0.40000010 1.19400048 3.54000038
v -0.40000010 2.14400029 3.54000038
v -0.40000010 1.19400048 3.33999962
v -0.40000010 2.14400029 3.33999962
v -0.44999933 2.93200040 4.49000019
v -0.44999933 4.33200002 4.49000019
v -1.84999990 1.59400010 1.19000000
v -1.84999990 1.79399991 1.59999985
v -1.84999990 2.79399991 1.59999985
v -1.84999990 3.69400048 0.00000042
v -1.84999990 4.19400048 0.50000042
v -0.44999933 1.59400010 1.19000000
v -0.44999933 1.79399991 1.59999985
v -0.44999933 2.79399991 1.59999985
v -0.44999933 4.23204541 1.59999985
v -0.44999933 4.29200006 1.59999985
v -0.44999933 3.69400048 0.00000042
v -0.44999933 3.76400018 0.00000042
v -0.44999933 4.19400048 0.50000042
v -0.44999933 4.26400018 0.50000042
v 0.25000048 -2.30599999 3.94000000
v 0.25000048 -2.30599999 3.69757599
v 0.25000048 -2.30599999 3.33999962
v 0.25000048 -1.97700000 3.94000000
v 0.25000048 -1.97700000 3.69757599
v 0.25000048 -1.97700000 3.33999962
v 0.25000048 -1.97700000 3.09999985
v 0.25000048 -1.96750808 2.91283840
v 0.25000048 -1.93913007 2.72759766
v 0.25000048 -1.89215732 2.54617828
v 0.25000048 -1.82707191 2.37044186
v 1.24999952 -2.30599999 3.94000000
v 1.84999990 -2.30599999 3.94000000
v 1.24999952 -2.30599999 3.33999962
v 1.24999952 -1.97700000 3.94000000
v 1.24999952 -1.40599990 3.94000000
v 1.24999952 -1.97700000 3.33999962
v 1.24999952 -1.97700000 3.09999985
v 1.24999952 -1.96750808 2.91283840
v 1.24999952 -1.40599990 3.33999962
v 1.24999952 -1.93913007 2.72759766
v 1.24999952 -1.89215732 2.54617828
v 1.24999952 -1.82707191 2.37044186
v 0.25000048 -4.29200006 1.59999985
v 0.25000048 -2.30599999 1.59999985
v 0.25000048 -4.24600005 0.50000042
v 0.25000048 -3.74600005 0.00000042
v 0.25000048 -1.74454093 2.20219177
v 0.25000048 -1.64541221 2.04315418
v 0.25000048 -1.53070235 1.89496082
v 0.25000048 -1.40158916 1.75913376
v 0.25000048 -1.25939631 1.63706535
v 0.25000048 -1.20614314 1.59999985
v 0.25000048 -1.10558295 1.53000778
v 0.25000048 -0.94172931 1.43906158
v 0.25000048 -0.76951480 1.36515850
v 0.25000048 -0.59070754 1.30905766
v 0.25000048 -0.40714145 1.27133316
v 0.25000048 -0.22070098 1.25237411
v 0.25000048 -0.03329921 1.25237411
v 1.24999952 -4.29200006 1.59999985
v 1.24999952 -2.30599999 1.59999985
v 1.84999990 -4.29200006 1.59999985
v 1.84999990 -2.30599999 1.59999985
v 1.24999952 -4.24600005 0.50000042
v 1.24999952 -3.74600005 0.00000042
v 1.84999990 -4.24600005 0.50000042
v 1.84999990 -3.74600005 0.00000042
v 1.24999952 -1.74454093 2.20219177
v 1.24999952 -1.64541221 2.04315418
v 1.24999952 -1.53070235 1.89496082
v 1.24999952 -1.40158916 1.75913376
v 1.24999952 -1.25939631 1.63706535
v 1.24999952 -1.10558295 1.53000778
v 1.24999952 -0.94172931 1.43906158
v 1.24999952 -0.76951480 1.36515850
v 1.24999952 -0.59070754 1.30905766
v 1.24999952 -0.40714145 1.27133316
v 1.24999952 -0.22070098 1.25237411
v 1.24999952 -0.03329921 1.25237411
v 0.25000048 1.72299981 3.94000000
v 0.25000048 2.14400029 3.94000000
v 0.25000048 1.72299981 3.69757599
v 0.25000048 2.14400029 3.69757599
v 0.25000048 1.72299981 3.33999962
v 0.25000048 1.72299981 3.09999985
v 0.25000048 2.14400029 3.33999962
v 0.25000048 1.71350789 2.91283840
v 0.25000048 1.57307172 2.37044186
v 0.25000048 1.68513036 2.72759766
v 0.25000048 1.63815808 2.54617828
v 1.24999952 1.19400048 3.94000000
v 1.24999952 1.72299981 3.94000000
v 1.24999952 2.14400029 3.94000000
v 1.84999990 2.14400029 3.94000000
v 1.24999952 1.19400048 3.33999962
v 1.24999952 1.72299981 3.33999962
v 1.24999952 1.72299981 3.09999985
v 1.24999952 2.14400029 3.33999962
v 1.24999952 1.71350789 2.91283840
v 1.24999952 1.57307172 2.37044186
v 1.24999952 1.68513036 2.72759766
v 1.24999952 1.63815808 2.54617828
v 0.25000048 0.15314126 1.27133316
v 0.25000048 0.33670735 1.30905766
v 0.25000048 0.51551461 1.36515850
v 0.25000048 0.68772912 1.43906158
v 0.25000048 1.00539613 1.63706535
v 0.25000048 0.95214295 1.59999985
v 0.25000048 0.85158372 1.53000778
v 0.25000048 1.49054170 2.20219177
v 0.25000048 1.39141202 2.04315418
v 0.25000048 1.27670217 1.89496082
v 0.25000048 1.14758897 1.75913376
v 0.25000048 2.14400029 1.59999985
v 0.25000048 4.29200006 1.59999985
v 0.25000048 3.76400018 0.00000042
v 0.25000048 4.26400018 0.50000042
v 1.24999952 0.15314126 1.27133316
v 1.24999952 0.33670735 1.30905766
v 1.24999952 0.51551461 1.36515850
v 1.24999952 0.68772912 1.43906158
v 1.24999952 1.00539613 1.63706535
v 1.24999952 0.85158372 1.53000778
v 1.24999952 1.49054170 2.20219177
v 1.24999952 1.39141202 2.04315418
v 1.24999952 1.27670217 1.89496082
v 1.24999952 1.14758897 1.75913376
v 1.24999952 2.14400029 1.59999985
v 1.84999990 2.14400029 1.59999985
v 1.24999952 4.29200006 1.59999985
v 1.84999990 4.29200006 1.59999985
v 1.24999952 3.76400018 0.00000042
v 1.24999952 4.26400018 0.50000042
v 1.84999990 3.76400018 0.00000042
v 1.84999990 4.26400018 0.50000042
f 2 9 1
f 3 2 1
f 4 9 2
f 3 4 2
f 15 3 1
f 17 4 3
f 6 48 5
f 16 15 1
f 17 9 4
f 15 17 3
f 8 6 5
f 7 8 5
f 50 7 5
f 9 10 1
f 12 13 9
f 10 18 1
f 17 12 9
f 11 10 9
f 13 11 9
f 11 20 10
f 22 13 12
f 23 32 13
f 13 32 11
f 18 16 1
f 17 22 12
f 15 16 14
f 69 15 14
f 69 17 15
f 16 71 14
f 69 22 17
f 20 18 10
f 21 20 11
f 18 19 16
f 19 71 16
f 20 19 18
f 20 21 19
f 21 72 19
f 22 23 13
f 69 38 22
f 37 23 22
f 42 21 11
f 25 34 24
f 30 25 24
f 34 39 24
f 31 36 25
f 39 30 24
f 30 31 25
f 39 31 30
f 39 40 31
f 33 34 32
f 38 34 33
f 37 33 32
f 32 35 11
f 35 42 11
f 36 34 25
f 34 35 32
f 36 35 34
f 36 44 35
f 37 32 23
f 37 38 33
f 38 37 22
f 69 39 38
f 69 40 39
f 69 41 40
f 42 142 21
f 38 39 34
f 40 36 31
f 41 45 40
f 141 45 41
f 40 44 36
f 44 42 35
f 45 44 40
f 44 45 43
f 44 43 42
f 43 142 42
f 45 143 43
f 47 50 5
f 50 47 46
f 59 47 5
f 48 59 5
f 57 49 46
f 47 57 46
f 59 57 47
f 51 48 6
f 54 70 48
f 70 59 48
f 65 8 7
f 49 50 46
f 50 60 7
f 57 60 49
f 60 50 49
f 60 61 7
f 61 65 7
f 8 65 6
f 51 52 48
f 52 53 48
f 65 51 6
f 53 54 48
f 55 70 54
f 63 52 51
f 63 53 52
f 64 54 53
f 62 63 51
f 65 62 51
f 63 64 53
f 66 55 54
f 67 56 55
f 68 73 56
f 64 66 54
f 66 67 55
f 67 68 56
f 94 73 68
f 58 60 57
f 59 89 57
f 89 58 57
f 117 65 61
f 61 60 58
f 117 61 58
f 65 63 62
f 65 123 63
f 123 64 63
f 123 66 64
f 123 67 66
f 123 68 67
f 123 94 68
f 123 95 94
f 123 96 95
f 123 97 96
f 89 120 58
f 71 69 14
f 86 70 69
f 90 86 69
f 70 87 59
f 86 87 70
f 72 71 19
f 71 90 69
f 72 91 71
f 91 90 71
f 56 70 55
f 73 70 56
f 73 74 70
f 74 75 70
f 75 76 70
f 76 77 70
f 77 78 70
f 69 70 41
f 79 134 78
f 80 132 79
f 81 132 80
f 82 132 81
f 83 130 82
f 84 129 83
f 85 129 84
f 94 74 73
f 95 75 74
f 96 76 75
f 97 77 76
f 94 95 74
f 95 96 75
f 96 97 76
f 98 78 77
f 98 79 78
f 97 98 77
f 98 99 79
f 99 80 79
f 100 81 80
f 101 82 81
f 102 83 82
f 103 84 83
f 104 85 84
f 99 100 80
f 100 101 81
f 101 102 82
f 102 103 83
f 103 104 84
f 104 105 85
f 142 72 21
f 158 91 72
f 88 87 86
f 92 88 86
f 92 89 88
f 87 89 59
f 88 89 87
f 90 92 86
f 92 93 89
f 91 93 90
f 93 92 90
f 123 98 97
f 149 99 98
f 147 100 99
f 145 101 100
f 145 102 101
f 144 103 102
f 146 145 100
f 144 105 103
f 145 144 102
f 105 104 103
f 93 155 89
f 160 93 91
f 109 108 106
f 107 109 106
f 118 107 106
f 118 119 107
f 108 118 106
f 119 109 107
f 110 140 111
f 140 113 111
f 110 112 140
f 140 115 113
f 140 116 115
f 122 110 111
f 113 125 111
f 123 122 111
f 125 123 111
f 127 125 113
f 126 116 114
f 136 150 114
f 115 127 113
f 116 128 115
f 126 128 116
f 150 126 114
f 128 127 115
f 112 124 154
f 117 121 65
f 118 117 58
f 119 118 58
f 120 119 58
f 124 119 120
f 121 123 65
f 123 125 98
f 125 127 98
f 127 128 98
f 121 122 123
f 155 120 89
f 154 124 120
f 155 154 120
f 70 78 41
f 135 134 79
f 132 135 79
f 129 130 83
f 130 131 82
f 131 132 82
f 140 138 137
f 140 139 138
f 116 140 114
f 140 136 114
f 140 137 136
f 78 134 41
f 139 140 133
f 140 134 133
f 144 130 129
f 105 129 85
f 145 131 130
f 147 135 132
f 134 149 133
f 135 149 134
f 148 139 133
f 146 132 131
f 144 129 105
f 144 145 130
f 145 146 131
f 146 147 132
f 147 149 135
f 149 148 133
f 137 151 136
f 138 152 137
f 139 153 138
f 112 154 140
f 152 151 137
f 151 150 136
f 153 152 138
f 148 153 139
f 142 158 72
f 134 140 41
f 140 141 41
f 154 141 140
f 156 143 141
f 154 156 141
f 141 143 45
f 143 142 43
f 156 159 143
f 143 159 142
f 159 158 142
f 150 151 98
f 151 152 98
f 152 153 98
f 128 126 98
f 126 150 98
f 148 149 98
f 147 146 100
f 149 147 99
f 153 148 98
f 160 155 93
f 158 160 91
f 155 156 154
f 157 159 156
f 157 156 155
f 161 157 155
f 160 161 155
f 161 159 157
f 159 161 158
f 161 160 158
f 29 28 26
f 27 29 26
f 109 27 26
f 27 112 29
f 29 110 28
f 28 121 26
f 108 109 26
f 117 108 26
f 109 124 27
f 124 112 27
f 117 118 108
f 121 117 26
f 109 119 124
f 112 110 29
f 110 122 28
f 122 121 28

