# https://github.com/mikedh/trimesh
v -7.64999980 -2.30599999 3.94000000
v -7.04999977 -2.30599999 3.94000000
v -6.04999977 -2.30599999 3.94000000
v -6.04999977 -2.30599999 3.69757599
v -5.34999973 -4.33200002 4.49000019
v -3.94999963 -4.33200002 4.49000019
v -5.34999973 -2.93199992 4.49000019
v -3.94999963 -2.93199992 4.49000019
v -5.39999992 -2.30599999 3.54000038
v -7.04999977 -2.30599999 3.33999962
v -6.04999977 -2.30599999 3.33999962
v -5.39999992 -2.30599999 3.33999962
v -7.04999977 -1.97700000 3.94000000
v -7.04999977 -1.40599990 3.94000000
v -6.04999977 -1.97700000 3.94000000
v -6.04999977 -1.97700000 3.69757599
v -5.39999992 -1.40599990 3.54000038
v -7.04999977 -1.97700000 3.33999962
v -7.04999977 -1.97700000 3.09999985
v -7.04999977 -1.96750808 2.91283840
v -7.04999977 -1.40599990 3.33999962
v -6.04999977 -1.97700000 3.33999962
v -6.04999977 -1.97700000 3.09999985
v -6.04999977 -1.96750808 2.91283840
v -7.04999977 -1.93913007 2.72759766
v -7.04999977 -1.89215732 2.54617828
v -7.04999977 -1.82707191 2.37044186
v -6.04999977 -1.93913007 2.72759766
v -6.04999977 -1.89215732 2.54617828
v -6.04999977 -1.82707191 2.37044186
v -5.39999992 -1.40599990 3.33999962
v -7.64999980 -4.29200006 1.59999985
v -7.04999977 -4.29200006 1.59999985
v -6.04999977 -4.29200006 1.59999985
v -7.64999980 -2.30599999 1.59999985
v -7.04999977 -2.30599999 1.59999985
v -6.04999977 -2.30599999 1.59999985
v -5.34999973 -4.29200006 1.59999985
v -5.34999973 -4.29143834 1.59999985
v -5.34999973 -4.29115462 1.57978577
v -5.34999973 -2.87599969 1.59999985
v -3.94999963 -2.87599969 1.59999985
v -7.64999980 -4.24600005 0.50000042
v -7.04999977 -4.24600005 0.50000042
v -7.64999980 -3.74600005 0.00000042
v -7.04999977 -3.74600005 0.00000042
v -6.04999977 -4.24600005 0.50000042
v -6.04999977 -3.74600005 0.00000042
v -5.34999973 -4.27599978 0.50000042
v -5.34999973 -4.24600005 0.50000042
v -5.34999973 -3.77599978 0.00000042
v -5.34999973 -3.74600005 0.00000042
v -3.94999963 -4.27599978 0.50000042
v -3.94999963 -3.77599978 0.00000042
v -7.04999977 -1.74454093 2.20219177
v -7.04999977 -1.64541221 2.04315418
v -7.04999977 -1.53070235 1.89496082
v -7.04999977 -1.40158916 1.75913376
v -6.04999977 -1.74454093 2.20219177
v -6.04999977 -1.64541221 2.04315418
v -6.04999977 -1.53070235 1.89496082
v -6.04999977 -1.40158916 1.75913376
v -7.04999977 -1.25939631 1.63706535
v -7.04999977 -1.10558295 1.53000778
v -6.04999977 -1.25939631 1.63706535
v -6.04999977 -1.20614314 1.59999985
v -6.04999977 -1.10558295 1.53000778
v -7.04999977 -0.94172931 1.43906158
v -7.04999977 -0.76951480 1.36515850
v -7.04999977 -0.59070754 1.30905766
v -7.04999977 -0.40714145 1.27133316
v -7.04999977 -0.22070098 1.25237411
v -7.04999977 -0.03329921 1.25237411
v -6.04999977 -0.94172931 1.43906158
v -6.04999977 -0.76951480 1.36515850
v -6.04999977 -0.59070754 1.30905766
v -6.04999977 -0.40714145 1.27133316
v -6.04999977 -0.22070098 1.25237411
v -6.04999977 -0.03329921 1.25237411
v -5.34999973 -2.05599999 1.59999985
v -5.34999973 -1.85599971 1.19000000
v -3.94999963 -2.05599999 1.59999985
v -3.94999963 -1.85599971 1.19000000
v -7.04999977 1.19400048 3.94000000
v -7.64999980 2.14400029 3.94000000
v -7.04999977 1.72299981 3.94000000
v -7.04999977 2.14400029 3.94000000
v -6.04999977 1.72299981 3.94000000
v -6.04999977 2.14400029 3.94000000
v -6.04999977 1.72299981 3.69757599
v -6.04999977 2.14400029 3.69757599
v -5.39999992 1.19400048 3.54000038
v -5.39999992 2.14400029 3.54000038
v -7.04999977 1.19400048 3.33999962
v -7.04999977 1.72299981 3.33999962
v -7.04999977 1.72299981 3.09999985
v -7.04999977 2.14400029 3.33999962
v -7.04999977 1.71350789 2.91283840
v -6.04999977 1.72299981 3.33999962
v -6.04999977 1.72299981 3.09999985
v -6.04999977 2.14400029 3.33999962
v -6.04999977 1.71350789 2.91283840
v -7.04999977 1.57307172 2.37044186
v -7.04999977 1.68513036 2.72759766
v -7.04999977 1.63815808 2.54617828
v -6.04999977 1.57307172 2.37044186
v -6.04999977 1.68513036 2.72759766
v -6.04999977 1.63815808 2.54617828
v -5.39999992 1.19400048 3.33999962
v -5.39999992 2.14400029 3.33999962
v -5.34999973 2.93200040 4.49000019
v -3.94999963 2.93200040 4.49000019
v -5.34999973 4.33200002 4.49000019
v -3.94999963 4.33200002 4.49000019
v -7.04999977 0.15314126 1.27133316
v -7.04999977 0.33670735 1.30905766
v -7.04999977 0.51551461 1.36515850
v -7.04999977 0.68772912 1.43906158
v -7.04999977 1.00539613 1.63706535
v -7.04999977 0.85158372 1.53000778
v -6.04999977 0.15314126 1.27133316
v -6.04999977 0.33670735 1.30905766
v -6.04999977 0.51551461 1.36515850
v -6.04999977 0.68772912 1.43906158
v -6.04999977 1.00539613 1.63706535
v -6.04999977 0.95214295 1.59999985
v -6.04999977 0.85158372 1.53000778
v -7.04999977 1.49054170 2.20219177
v -7.04999977 1.39141202 2.04315418
v -7.04999977 1.27670217 1.89496082
v -7.04999977 1.14758897 1.75913376
v -6.04999977 1.49054170 2.20219177
v -6.04999977 1.39141202 2.04315418
v -6.04999977 1.27670217 1.89496082
v -6.04999977 1.14758897 1.75913376
v -7.64999980 2.14400029 1.59999985
v -7.04999977 2.14400029 1.59999985
v -6.04999977 2.14400029 1.59999985
v -5.34999973 1.59400010 1.19000000
v -5.34999973 1.79399991 1.59999985
v -3.94999963 1.59400010 1.19000000
v -3.94999963 1.79399991 1.59999985
v -7.64999980 4.29200006 1.59999985
v -7.04999977 4.29200006 1.59999985
v -6.04999977 4.29200006 1.59999985
v -3.94999963 2.77400041 2.19000000
v -3.94999963 2.82217336 2.19000000
v -5.34999973 2.79399991 1.59999985
v -3.94999963 2.77400041 1.59999985
v -3.94999963 2.79399991 1.59999985
v -3.94999963 4.25245118 2.19000000
v -3.94999963 4.27400041 2.19000000
v -5.34999973 4.23204541 1.59999985
v -5.34999973 4.29200006 1.59999985
v -7.64999980 3.76400018 0.00000042
v -7.04999977 3.76400018 0.00000042
v -7.64999980 4.26400018 0.50000042
v -7.04999977 4.26400018 0.50000042
v -6.04999977 3.76400018 0.00000042
v -6.04999977 4.26400018 0.50000042
v -3.94999963 2.77400041 0.00000042
v -5.34999973 3.69400048 0.00000042
v -5.34999973 3.76400018 0.00000042
v -5.34999973 4.19400048 0.50000042
v -5.34999973 4.26400018 0.50000042
v -3.94999963 3.69400048 0.00000042
v -3.94999963 4.19400048 0.50000042
v -3.94999963 4.27400041 0.00000042
v 3.94999999 -4.33200002 4.49000019
v 5.35000056 -4.33200002 4.49000019
v 3.94999999 -2.93199992 4.49000019
v 5.35000056 -2.93199992 4.49000019
v 5.39999980 -2.30599999 3.54000038
v 6.05000037 -2.30599999 3.94000000
v 7.04999942 -2.30599999 3.94000000
v 7.64999980 -2.30599999 3.94000000
v 6.05000037 -2.30599999 3.69757599
v 5.39999980 -2.30599999 3.33999962
v 6.05000037 -2.30599999 3.33999962
v 7.04999942 -2.30599999 3.33999962
v 5.39999980 -1.40599990 3.54000038
v 6.05000037 -1.97700000 3.94000000
v 7.04999942 -1.97700000 3.94000000
v 7.04999942 -1.40599990 3.94000000
v 6.05000037 -1.97700000 3.69757599
v 5.39999980 -1.40599990 3.33999962
v 6.05000037 -1.97700000 3.33999962
v 6.05000037 -1.97700000 3.09999985
v 6.05000037 -1.96750808 2.91283840
v 7.04999942 -1.97700000 3.33999962
v 7.04999942 -1.97700000 3.09999985
v 7.04999942 -1.96750808 2.91283840
v 7.04999942 -1.40599990 3.33999962
v 6.05000037 -1.93913007 2.72759766
v 6.05000037 -1.89215732 2.54617828
v 6.05000037 -1.82707191 2.37044186
v 7.04999942 -1.93913007 2.72759766
v 7.04999942 -1.89215732 2.54617828
v 7.04999942 -1.82707191 2.37044186
v 5.35000056 -4.29200006 1.59999985
v 5.35000056 -4.29143834 1.59999985
v 5.35000056 -4.29115462 1.57978577
v 3.94999999 -2.87599969 1.59999985
v 5.35000056 -2.87599969 1.59999985
v 6.05000037 -4.29200006 1.59999985
v 7.04999942 -4.29200006 1.59999985
v 7.64999980 -4.29200006 1.59999985
v 6.05000037 -2.30599999 1.59999985
v 7.04999942 -2.30599999 1.59999985
v 7.64999980 -2.30599999 1.59999985
v 3.94999999 -4.27599978 0.50000042
v 3.94999999 -3.77599978 0.00000042
v 5.35000056 -4.27599978 0.50000042
v 5.35000056 -4.24600005 0.50000042
v 5.35000056 -3.77599978 0.00000042
v 5.35000056 -3.74600005 0.00000042
v 6.05000037 -4.24600005 0.50000042
v 6.05000037 -3.74600005 0.00000042
v 7.04999942 -4.24600005 0.50000042
v 7.64999980 -4.24600005 0.50000042
v 7.04999942 -3.74600005 0.00000042
v 7.64999980 -3.74600005 0.00000042
v 3.94999999 -2.05599999 1.59999985
v 3.94999999 -1.85599971 1.19000000
v 5.35000056 -2.05599999 1.59999985
v 5.35000056 -1.85599971 1.19000000
v 6.05000037 -1.74454093 2.20219177
v 6.05000037 -1.64541221 2.04315418
v 6.05000037 -1.53070235 1.89496082
v 6.05000037 -1.40158916 1.75913376
v 7.04999942 -1.74454093 2.20219177
v 7.04999942 -1.64541221 2.04315418
v 7.04999942 -1.53070235 1.89496082
v 7.04999942 -1.40158916 1.75913376
v 6.05000037 -1.25939631 1.63706535
v 6.05000037 -1.20614314 1.59999985
v 6.05000037 -1.10558295 1.53000778
v 7.04999942 -1.25939631 1.63706535
v 7.04999942 -1.10558295 1.53000778
v 6.05000037 -0.94172931 1.43906158
v 6.05000037 -0.76951480 1.36515850
v 6.05000037 -0.59070754 1.30905766
v 6.05000037 -0.40714145 1.27133316
v 6.05000037 -0.22070098 1.25237411
v 6.05000037 -0.03329921 1.25237411
v 7.04999942 -0.94172931 1.43906158
v 7.04999942 -0.76951480 1.36515850
v 7.04999942 -0.59070754 1.30905766
v 7.04999942 -0.40714145 1.27133316
v 7.04999942 -0.22070098 1.25237411
v 7.04999942 -0.03329921 1.25237411
v 5.39999980 1.19400048 3.54000038
v 5.39999980 2.14400029 3.54000038
v 6.05000037 1.72299981 3.94000000
v 6.05000037 2.14400029 3.94000000
v 7.04999942 1.19400048 3.94000000
v 7.04999942 1.72299981 3.94000000
v 7.04999942 2.14400029 3.94000000
v 7.64999980 2.14400029 3.94000000
v 6.05000037 1.72299981 3.69757599
v 6.05000037 2.14400029 3.69757599
v 5.39999980 1.19400048 3.33999962
v 5.39999980 2.14400029 3.33999962
v 6.05000037 1.72299981 3.33999962
v 6.05000037 1.72299981 3.09999985
v 6.05000037 2.14400029 3.33999962
v 6.05000037 1.71350789 2.91283840
v 7.04999942 1.19400048 3.33999962
v 7.04999942 1.72299981 3.33999962
v 7.04999942 1.72299981 3.09999985
v 7.04999942 2.14400029 3.33999962
v 7.04999942 1.71350789 2.91283840
v 6.05000037 1.57307172 2.37044186
v 6.05000037 1.68513036 2.72759766
v 6.05000037 1.63815808 2.54617828
v 7.04999942 1.57307172 2.37044186
v 7.04999942 1.68513036 2.72759766
v 7.04999942 1.63815808 2.54617828
v 3.94999999 2.93200040 4.49000019
v 5.35000056 2.93200040 4.49000019
v 3.94999999 4.33200002 4.49000019
v 5.35000056 4.33200002 4.49000019
v 3.94999999 1.59400010 1.19000000
v 3.94999999 1.79399991 1.59999985
v 5.35000056 1.59400010 1.19000000
v 5.35000056 1.79399991 1.59999985
v 6.05000037 0.15314126 1.27133316
v 6.05000037 0.33670735 1.30905766
v 6.05000037 0.51551461 1.36515850
v 6.05000037 0.68772912 1.43906158
v 6.05000037 1.00539613 1.63706535
v 6.05000037 0.95214295 1.59999985
v 6.05000037 0.85158372 1.53000778
v 7.04999942 0.15314126 1.27133316
v 7.04999942 0.33670735 1.30905766
v 7.04999942 0.51551461 1.36515850
v 7.04999942 0.68772912 1.43906158
v 7.04999942 1.00539613 1.63706535
v 7.04999942 0.85158372 1.53000778
v 6.05000037 1.49054170 2.20219177
v 6.05000037 1.39141202 2.04315418
v 6.05000037 1.27670217 1.89496082
v 6.05000037 1.14758897 1.75913376
v 7.04999942 1.49054170 2.20219177
v 7.04999942 1.39141202 2.04315418
v 7.04999942 1.27670217 1.89496082
v 7.04999942 1.14758897 1.75913376
v 6.05000037 2.14400029 1.59999985
v 7.04999942 2.14400029 1.59999985
v 7.64999980 2.14400029 1.59999985
v 3.94999999 2.77400041 2.19000000
v 3.94999999 2.82217336 2.19000000
v 3.94999999 2.77400041 1.59999985
v 3.94999999 2.79399991 1.59999985
v 5.35000056 2.79399991 1.59999985
v 3.94999999 4.25245118 2.19000000
v 3.94999999 4.27400041 2.19000000
v 5.35000056 4.23204541 1.59999985
v 5.35000056 4.29200006 1.59999985
v 6.05000037 4.29200006 1.59999985
v 7.04999942 4.29200006 1.59999985
v 7.64999980 4.29200006 1.59999985
v 3.94999999 2.77400041 0.00000042
v 3.94999999 3.69400048 0.00000042
v 3.94999999 4.19400048 0.50000042
v 3.94999999 4.27400041 0.00000042
v 5.35000056 3.69400048 0.00000042
v 5.35000056 3.76400018 0.00000042
v 5.35000056 4.19400048 0.50000042
v 5.35000056 4.26400018 0.50000042
v 6.05000037 3.76400018 0.00000042
v 6.05000037 4.26400018 0.50000042
v 7.04999942 3.76400018 0.00000042
v 7.64999980 3.76400018 0.00000042
v 7.04999942 4.26400018 0.50000042
v 7.64999980 4.26400018 0.50000042
f 3 13 2
f 10 2 1
f 10 4 2
f 4 3 2
f 4 15 3
f 10 9 4
f 9 16 4
f 10 11 9
f 6 7 5
f 6 8 7
f 7 41 5
f 42 8 6
f 8 41 7
f 11 12 9
f 36 10 1
f 22 12 11
f 36 11 10
f 35 36 1
f 37 28 11
f 53 6 5
f 41 39 5
f 42 41 8
f 15 13 3
f 16 14 13
f 15 16 13
f 16 15 4
f 14 16 9
f 17 14 9
f 17 21 14
f 31 21 17
f 2 85 1
f 13 85 2
f 14 85 13
f 21 94 14
f 12 17 9
f 31 17 12
f 23 19 18
f 19 21 18
f 23 20 19
f 24 25 20
f 22 23 18
f 23 22 11
f 24 23 11
f 31 22 18
f 23 24 20
f 28 24 11
f 21 31 18
f 28 26 25
f 29 27 26
f 30 55 27
f 24 28 25
f 28 29 26
f 29 30 27
f 59 55 30
f 37 29 28
f 85 35 1
f 20 94 19
f 94 21 19
f 25 94 20
f 26 94 25
f 27 94 26
f 55 94 27
f 56 94 55
f 57 94 56
f 58 94 57
f 63 94 58
f 22 31 12
f 44 33 32
f 33 35 32
f 34 36 33
f 35 43 32
f 47 34 33
f 38 37 34
f 36 37 11
f 36 35 33
f 34 37 36
f 66 37 38
f 39 53 5
f 53 42 6
f 40 38 34
f 40 39 38
f 50 40 34
f 40 53 39
f 42 80 41
f 42 82 80
f 83 82 42
f 43 44 32
f 44 47 33
f 45 43 35
f 47 50 34
f 46 44 43
f 45 46 43
f 46 48 44
f 48 47 44
f 48 52 47
f 50 49 40
f 49 53 40
f 53 54 42
f 52 50 47
f 50 51 49
f 52 51 50
f 51 54 49
f 54 53 49
f 54 83 42
f 59 56 55
f 60 57 56
f 61 58 57
f 62 63 58
f 59 60 56
f 37 30 29
f 37 59 30
f 60 59 37
f 61 60 37
f 62 61 37
f 60 61 57
f 61 62 58
f 65 64 63
f 65 62 37
f 62 65 63
f 65 66 64
f 66 67 64
f 66 65 37
f 126 66 38
f 64 94 63
f 67 68 64
f 74 69 68
f 75 70 69
f 68 118 64
f 69 118 68
f 76 71 70
f 77 72 71
f 70 118 69
f 71 116 70
f 72 115 71
f 73 115 72
f 78 73 72
f 67 74 68
f 74 75 69
f 75 76 70
f 126 67 66
f 138 126 38
f 124 74 67
f 76 77 71
f 77 78 72
f 78 79 73
f 122 75 74
f 122 76 75
f 121 77 76
f 123 122 74
f 121 79 77
f 122 121 76
f 79 78 77
f 82 81 80
f 39 145 38
f 82 83 81
f 41 145 39
f 81 139 80
f 83 139 81
f 80 145 41
f 136 45 35
f 156 46 45
f 159 48 46
f 141 83 54
f 162 52 48
f 52 166 51
f 161 54 51
f 84 85 14
f 94 84 14
f 86 85 84
f 86 87 85
f 88 87 86
f 88 89 87
f 91 97 87
f 92 86 84
f 92 90 86
f 94 92 84
f 94 109 92
f 90 88 86
f 89 91 87
f 90 89 88
f 90 91 89
f 93 97 91
f 93 91 90
f 101 97 93
f 109 93 92
f 92 93 90
f 109 110 93
f 110 101 93
f 96 94 64
f 85 136 35
f 98 96 64
f 104 98 64
f 105 104 64
f 96 95 94
f 95 99 94
f 87 136 85
f 96 99 95
f 97 136 87
f 98 102 96
f 99 109 94
f 100 99 96
f 100 101 99
f 101 109 99
f 102 100 96
f 107 102 98
f 106 105 103
f 128 132 103
f 104 107 98
f 105 108 104
f 106 108 105
f 132 106 103
f 108 107 104
f 101 138 97
f 102 138 100
f 138 101 100
f 107 138 102
f 108 138 107
f 110 109 101
f 147 112 111
f 112 113 111
f 112 114 113
f 113 148 111
f 114 153 113
f 147 114 112
f 148 150 111
f 150 147 111
f 147 151 114
f 153 148 113
f 151 164 114
f 130 129 64
f 131 130 64
f 103 105 64
f 128 103 64
f 129 128 64
f 120 119 64
f 118 120 64
f 119 131 64
f 115 116 71
f 116 117 70
f 117 118 70
f 121 116 115
f 79 115 73
f 122 117 116
f 124 120 118
f 120 127 119
f 125 131 119
f 123 118 117
f 126 127 67
f 124 123 74
f 127 124 67
f 121 115 79
f 121 122 116
f 122 123 117
f 123 124 118
f 124 127 120
f 127 126 119
f 126 125 119
f 145 138 38
f 129 133 128
f 130 134 129
f 131 135 130
f 137 136 97
f 138 137 97
f 134 133 129
f 133 132 128
f 135 134 130
f 125 135 131
f 134 138 133
f 135 138 134
f 138 108 106
f 132 138 106
f 133 138 132
f 138 135 125
f 126 138 125
f 139 140 80
f 141 139 83
f 140 145 80
f 142 148 140
f 141 140 139
f 141 142 140
f 136 155 45
f 155 156 45
f 156 159 46
f 159 163 48
f 161 141 54
f 166 161 51
f 161 142 141
f 163 162 48
f 162 166 52
f 137 143 136
f 138 144 137
f 144 143 137
f 143 157 136
f 144 157 143
f 145 158 144
f 145 144 138
f 154 160 145
f 147 150 146
f 150 149 146
f 148 145 140
f 142 149 148
f 149 150 148
f 164 153 114
f 153 145 148
f 153 154 145
f 164 154 153
f 152 167 151
f 157 155 136
f 158 157 144
f 160 158 145
f 157 158 155
f 158 160 156
f 158 156 155
f 160 165 159
f 160 159 156
f 161 149 142
f 165 160 154
f 164 165 154
f 151 167 164
f 168 167 152
f 165 164 162
f 164 167 162
f 165 163 159
f 163 165 162
f 167 166 162
f 167 168 166
f 311 147 146
f 149 323 146
f 311 151 147
f 311 152 151
f 317 168 152
f 161 323 149
f 166 326 161
f 168 326 166
f 313 311 146
f 323 313 146
f 311 312 152
f 312 316 152
f 316 317 152
f 324 323 161
f 317 326 168
f 326 324 161
f 314 312 311
f 313 314 311
f 316 325 317
f 325 326 317
f 325 324 326
f 170 171 169
f 170 172 171
f 171 203 169
f 201 170 169
f 204 172 170
f 172 203 171
f 178 179 173
f 175 182 174
f 176 183 175
f 185 177 174
f 177 175 174
f 177 185 173
f 180 177 173
f 179 180 173
f 180 175 177
f 202 201 169
f 201 204 170
f 204 203 172
f 187 179 178
f 210 176 175
f 180 210 175
f 194 208 179
f 208 180 179
f 185 181 173
f 186 178 173
f 181 186 173
f 175 183 182
f 184 183 176
f 182 185 174
f 185 183 181
f 183 185 182
f 183 184 181
f 193 186 181
f 184 193 181
f 256 184 176
f 256 193 184
f 187 188 179
f 193 187 178
f 188 189 179
f 186 193 178
f 191 188 187
f 189 194 179
f 191 189 188
f 192 194 189
f 190 191 187
f 193 190 187
f 193 191 190
f 191 192 189
f 197 195 194
f 195 208 194
f 198 196 195
f 199 227 196
f 192 197 194
f 197 198 195
f 198 199 196
f 231 227 199
f 193 270 191
f 210 259 176
f 270 192 191
f 270 197 192
f 270 198 197
f 270 199 198
f 270 231 199
f 270 232 231
f 270 233 232
f 270 234 233
f 203 211 169
f 211 213 169
f 213 202 169
f 201 202 200
f 205 201 200
f 205 204 201
f 202 217 200
f 223 224 203
f 204 223 203
f 205 225 204
f 204 225 223
f 217 205 200
f 206 208 205
f 219 206 205
f 220 207 206
f 207 209 206
f 220 210 207
f 208 209 180
f 209 210 180
f 206 209 208
f 207 210 209
f 212 211 203
f 213 214 202
f 214 217 202
f 212 215 211
f 215 213 211
f 215 214 213
f 215 216 214
f 216 218 214
f 216 215 212
f 224 212 203
f 217 219 205
f 219 220 206
f 220 222 210
f 218 217 214
f 218 221 217
f 221 219 217
f 222 220 219
f 221 222 219
f 225 224 223
f 225 226 224
f 205 286 225
f 226 283 224
f 285 226 225
f 196 208 195
f 227 208 196
f 231 228 227
f 227 228 208
f 228 229 208
f 229 230 208
f 232 229 228
f 233 230 229
f 234 235 230
f 231 232 228
f 232 233 229
f 233 234 230
f 230 235 208
f 235 236 208
f 238 236 235
f 238 237 236
f 234 238 235
f 238 239 237
f 270 238 234
f 205 208 319
f 239 240 237
f 246 241 240
f 247 242 241
f 237 292 236
f 240 290 237
f 241 290 240
f 242 290 241
f 243 288 242
f 244 287 243
f 245 287 244
f 248 243 242
f 249 244 243
f 250 245 244
f 239 246 240
f 246 247 241
f 247 248 242
f 299 239 238
f 297 246 239
f 248 249 243
f 295 247 246
f 295 248 247
f 294 249 248
f 249 250 244
f 296 295 246
f 294 251 249
f 295 294 248
f 250 251 245
f 251 250 249
f 224 283 212
f 327 216 212
f 222 310 210
f 331 218 216
f 333 221 218
f 334 222 221
f 263 262 252
f 261 253 252
f 253 263 252
f 266 263 253
f 257 256 176
f 258 257 176
f 259 258 176
f 256 268 193
f 257 255 254
f 257 258 255
f 256 260 252
f 262 268 252
f 268 256 252
f 261 260 254
f 255 261 254
f 260 257 254
f 258 261 255
f 260 261 252
f 261 271 253
f 271 266 253
f 256 257 260
f 258 271 261
f 259 271 258
f 263 264 262
f 268 270 193
f 270 272 238
f 272 277 238
f 277 278 238
f 310 259 210
f 264 269 262
f 269 268 262
f 266 264 263
f 265 269 264
f 267 272 265
f 269 270 268
f 270 269 265
f 272 270 265
f 277 272 267
f 309 271 259
f 276 275 273
f 300 304 273
f 308 265 264
f 308 267 265
f 266 308 264
f 274 277 267
f 275 278 274
f 308 274 267
f 308 275 274
f 276 278 275
f 304 276 273
f 278 277 274
f 271 309 266
f 310 309 259
f 315 280 279
f 280 281 279
f 280 282 281
f 281 312 279
f 282 316 281
f 315 282 280
f 312 315 279
f 316 312 281
f 325 316 282
f 315 318 282
f 205 315 286
f 286 285 225
f 285 283 226
f 205 318 315
f 286 313 284
f 285 284 283
f 205 319 318
f 285 286 284
f 304 305 238
f 305 306 238
f 306 307 238
f 278 276 238
f 276 304 238
f 208 236 319
f 293 292 237
f 290 293 237
f 287 288 243
f 288 289 242
f 289 290 242
f 294 288 287
f 251 287 245
f 295 289 288
f 297 293 290
f 292 299 291
f 293 299 292
f 298 303 291
f 296 290 289
f 298 299 238
f 297 296 246
f 299 297 239
f 307 298 238
f 294 287 251
f 294 295 288
f 295 296 289
f 296 297 290
f 297 299 293
f 299 298 291
f 301 305 300
f 308 302 301
f 308 303 302
f 302 306 301
f 303 307 302
f 275 308 273
f 308 300 273
f 309 308 266
f 308 301 300
f 306 305 301
f 305 304 300
f 307 306 302
f 298 307 303
f 236 292 319
f 303 308 291
f 308 292 291
f 283 323 212
f 323 327 212
f 284 323 283
f 327 331 216
f 334 310 222
f 331 333 218
f 333 334 221
f 312 314 315
f 314 313 286
f 315 314 286
f 318 325 282
f 319 330 318
f 320 330 319
f 292 308 319
f 309 320 308
f 310 321 309
f 308 320 319
f 321 332 320
f 309 321 320
f 322 321 310
f 336 322 310
f 322 335 321
f 313 323 284
f 329 325 318
f 330 329 318
f 323 324 327
f 324 325 329
f 328 331 327
f 329 330 328
f 330 332 328
f 324 329 327
f 329 328 327
f 320 332 330
f 334 336 310
f 321 335 332
f 336 335 322
f 332 335 331
f 332 331 328
f 335 336 333
f 335 333 331
f 336 334 333

